{
.appVersion = "895";
copyright = "Copyright 2016 The Montserrat and Sector Project Authors";
customParameters = (
{
name = fsType;
value = (
);
},
{
name = license;
value = "This Font Software is licensed under the SIL Open Font License Version 1.1.";
},
{
name = licenseURL;
value = "http://scripts.sil.org/OFL";
}
);
date = "2016-04-14 23:39:46 +0000";
designer = "Montserrat by Julieta Ulanovsky; Sector Gurmukhi by Gunnar Vilhjalmsson";
designerURL = "Montserrat http://www.zkysky.com.ar; Sector Gurmukhi http://universalthirst.com";
familyName = Sector;
fontMaster = (
{
alignmentZones = (
"{850, 17}",
"{685, 20}",
"{471, 5}",
"{-60, -17}"
);
ascender = 885;
capHeight = 685;
descender = -198;
id = "89102082-4794-43F6-87DB-199E42FAC5CB";
weight = Light;
weightValue = 75;
xHeight = 685;
}
);
glyphs = (
{
glyphname = A;
layers = (
{
anchors = (
{
name = ogonek;
position = "{754, 10}";
},
{
name = top;
position = "{359, 700}";
}
);
layerId = "89102082-4794-43F6-87DB-199E42FAC5CB";
paths = (
{
closed = 1;
nodes = (
"317 700 LINE",
"4 0 LINE",
"88 0 LINE",
"357 613 LINE",
"627 0 LINE",
"713 0 LINE",
"400 700 LINE"
);
},
{
closed = 1;
nodes = (
"144 253 LINE",
"144 179 LINE",
"569 179 LINE",
"569 253 LINE"
);
}
);
width = 718;
}
);
leftKerningGroup = A;
rightKerningGroup = A;
unicode = 0041;
},
{
glyphname = Aogonek;
layers = (
{
layerId = "89102082-4794-43F6-87DB-199E42FAC5CB";
paths = (
{
closed = 1;
nodes = (
"317 700 LINE",
"4 0 LINE",
"89 0 LINE",
"168 179 LINE",
"548 179 LINE",
"627 0 LINE",
"649 0 LINE",
"612 -53 OFFCURVE",
"594 -91 OFFCURVE",
"594 -126 CURVE SMOOTH",
"594 -176 OFFCURVE",
"630 -200 OFFCURVE",
"667 -200 CURVE SMOOTH",
"700 -200 OFFCURVE",
"733 -180 OFFCURVE",
"754 -150 CURVE",
"728 -120 LINE",
"712 -140 OFFCURVE",
"695 -153 OFFCURVE",
"675 -153 CURVE SMOOTH",
"654 -153 OFFCURVE",
"640 -139 OFFCURVE",
"640 -115 CURVE SMOOTH",
"640 -89 OFFCURVE",
"652 -56 OFFCURVE",
"693 0 CURVE",
"713 0 LINE",
"400 700 LINE"
);
},
{
closed = 1;
nodes = (
"519 252 LINE",
"197 252 LINE",
"357 613 LINE"
);
}
);
width = 718;
}
);
leftKerningGroup = A;
rightKerningGroup = A;
unicode = 0104;
},
{
glyphname = Aring;
layers = (
{
components = (
{
name = A;
}
);
layerId = "89102082-4794-43F6-87DB-199E42FAC5CB";
paths = (
{
closed = 1;
nodes = (
"295 896 OFFCURVE",
"242 842 OFFCURVE",
"242 779 CURVE SMOOTH",
"242 716 OFFCURVE",
"295 663 OFFCURVE",
"360 663 CURVE SMOOTH",
"425 663 OFFCURVE",
"479 716 OFFCURVE",
"479 779 CURVE SMOOTH",
"479 842 OFFCURVE",
"425 896 OFFCURVE",
"360 896 CURVE SMOOTH"
);
},
{
closed = 1;
nodes = (
"403 854 OFFCURVE",
"439 820 OFFCURVE",
"439 779 CURVE SMOOTH",
"439 738 OFFCURVE",
"403 705 OFFCURVE",
"360 705 CURVE SMOOTH",
"317 705 OFFCURVE",
"282 738 OFFCURVE",
"282 779 CURVE SMOOTH",
"282 820 OFFCURVE",
"317 854 OFFCURVE",
"360 854 CURVE SMOOTH"
);
}
);
width = 718;
}
);
leftKerningGroup = A;
leftMetricsKey = A;
rightKerningGroup = A;
rightMetricsKey = A;
unicode = 00C5;
},
{
glyphname = AE;
layers = (
{
anchors = (
{
name = bottom;
position = "{703, 0}";
},
{
name = ogonek;
position = "{967, 10}";
},
{
name = top;
position = "{615, 700}";
}
);
layerId = "89102082-4794-43F6-87DB-199E42FAC5CB";
paths = (
{
closed = 1;
nodes = (
"416 700 LINE",
"4 0 LINE",
"89 0 LINE",
"455 632 LINE",
"745 632 LINE",
"747 700 LINE"
);
},
{
closed = 1;
nodes = (
"176 257 LINE",
"174 192 LINE",
"525 192 LINE",
"527 257 LINE"
);
},
{
closed = 1;
nodes = (
"481 700 LINE",
"481 0 LINE",
"969 0 LINE",
"969 74 LINE",
"560 74 LINE",
"560 318 LINE",
"914 318 LINE",
"914 391 LINE",
"560 391 LINE",
"560 626 LINE",
"956 626 LINE",
"956 700 LINE"
);
}
);
width = 1026;
}
);
leftKerningGroup = A;
leftMetricsKey = A;
rightKerningGroup = E;
rightMetricsKey = E;
unicode = 00C6;
},
{
glyphname = B;
layers = (
{
layerId = "89102082-4794-43F6-87DB-199E42FAC5CB";
paths = (
{
closed = 1;
nodes = (
"106 700 LINE",
"106 0 LINE",
"406 0 LINE SMOOTH",
"564 0 OFFCURVE",
"658 71 OFFCURVE",
"658 190 CURVE SMOOTH",
"658 286 OFFCURVE",
"599 352 OFFCURVE",
"498 367 CURVE",
"580 384 OFFCURVE",
"627 443 OFFCURVE",
"627 525 CURVE SMOOTH",
"627 635 OFFCURVE",
"542 700 OFFCURVE",
"401 700 CURVE SMOOTH"
);
},
{
closed = 1;
nodes = (
"511 323 OFFCURVE",
"577 278 OFFCURVE",
"577 200 CURVE SMOOTH",
"577 119 OFFCURVE",
"511 74 OFFCURVE",
"398 74 CURVE SMOOTH",
"186 74 LINE",
"186 323 LINE",
"398 323 LINE SMOOTH"
);
},
{
closed = 1;
nodes = (
"491 626 OFFCURVE",
"546 585 OFFCURVE",
"546 513 CURVE SMOOTH",
"546 439 OFFCURVE",
"491 397 OFFCURVE",
"398 397 CURVE SMOOTH",
"186 397 LINE",
"186 626 LINE",
"398 626 LINE SMOOTH"
);
}
);
width = 716;
}
);
leftKerningGroup = H;
rightKerningGroup = B;
unicode = 0042;
},
{
glyphname = C;
layers = (
{
anchors = (
{
name = bottom;
position = "{388, 0}";
},
{
name = top;
position = "{365, 700}";
}
);
layerId = "89102082-4794-43F6-87DB-199E42FAC5CB";
paths = (
{
closed = 1;
nodes = (
"201 702 OFFCURVE",
"40 547 OFFCURVE",
"40 351 CURVE SMOOTH",
"40 153 OFFCURVE",
"200 -3 OFFCURVE",
"402 -3 CURVE SMOOTH",
"498 -3 OFFCURVE",
"593 38 OFFCURVE",
"661 103 CURVE",
"613 156 LINE",
"557 104 OFFCURVE",
"482 72 OFFCURVE",
"406 72 CURVE SMOOTH",
"247 72 OFFCURVE",
"121 197 OFFCURVE",
"121 351 CURVE SMOOTH",
"121 506 OFFCURVE",
"247 629 OFFCURVE",
"406 629 CURVE SMOOTH",
"483 629 OFFCURVE",
"559 596 OFFCURVE",
"613 542 CURVE",
"660 600 LINE",
"594 663 OFFCURVE",
"501 702 OFFCURVE",
"405 702 CURVE SMOOTH"
);
}
);
width = 700;
}
);
leftKerningGroup = O;
rightKerningGroup = C;
unicode = 0043;
},
{
glyphname = D;
layers = (
{
anchors = (
{
name = center;
position = "{393, 350}";
},
{
name = top;
position = "{373, 700}";
}
);
layerId = "89102082-4794-43F6-87DB-199E42FAC5CB";
paths = (
{
closed = 1;
nodes = (
"106 700 LINE",
"106 0 LINE",
"386 0 LINE SMOOTH",
"592 0 OFFCURVE",
"749 151 OFFCURVE",
"749 350 CURVE SMOOTH",
"749 549 OFFCURVE",
"593 700 OFFCURVE",
"389 700 CURVE SMOOTH"
);
},
{
closed = 1;
nodes = (
"544 626 OFFCURVE",
"668 507 OFFCURVE",
"668 349 CURVE SMOOTH",
"668 192 OFFCURVE",
"546 74 OFFCURVE",
"391 74 CURVE SMOOTH",
"186 74 LINE",
"186 626 LINE",
"388 626 LINE SMOOTH"
);
}
);
width = 789;
}
);
leftKerningGroup = H;
rightKerningGroup = O;
unicode = 0044;
},
{
glyphname = Eth;
layers = (
{
components = (
{
name = D;
transform = "{1, 0, 0, 1, 12, 0}";
}
);
layerId = "89102082-4794-43F6-87DB-199E42FAC5CB";
paths = (
{
closed = 1;
nodes = (
"0 377 LINE",
"0 326 LINE",
"421 326 LINE",
"421 377 LINE"
);
}
);
width = 801;
}
);
leftKerningGroup = H;
rightKerningGroup = O;
rightMetricsKey = D;
unicode = 00D0;
},
{
glyphname = E;
layers = (
{
anchors = (
{
name = bottom;
position = "{328, 0}";
},
{
name = ogonek;
position = "{592, 10}";
},
{
name = top;
position = "{347, 700}";
}
);
layerId = "89102082-4794-43F6-87DB-199E42FAC5CB";
paths = (
{
closed = 1;
nodes = (
"106 700 LINE",
"106 0 LINE",
"594 0 LINE",
"594 74 LINE",
"186 74 LINE",
"186 318 LINE",
"539 318 LINE",
"539 391 LINE",
"186 391 LINE",
"186 626 LINE",
"581 626 LINE",
"581 700 LINE"
);
}
);
width = 651;
}
);
leftKerningGroup = H;
rightKerningGroup = E;
unicode = 0045;
},
{
glyphname = Eogonek;
layers = (
{
layerId = "89102082-4794-43F6-87DB-199E42FAC5CB";
paths = (
{
closed = 1;
nodes = (
"106 700 LINE",
"106 0 LINE",
"493 0 LINE",
"455 -54 OFFCURVE",
"438 -92 OFFCURVE",
"438 -126 CURVE SMOOTH",
"438 -176 OFFCURVE",
"473 -200 OFFCURVE",
"511 -200 CURVE SMOOTH",
"544 -200 OFFCURVE",
"577 -180 OFFCURVE",
"598 -150 CURVE",
"572 -120 LINE",
"556 -140 OFFCURVE",
"538 -153 OFFCURVE",
"519 -153 CURVE SMOOTH",
"499 -153 OFFCURVE",
"483 -139 OFFCURVE",
"483 -115 CURVE SMOOTH",
"483 -89 OFFCURVE",
"496 -56 OFFCURVE",
"537 0 CURVE",
"600 0 LINE",
"600 68 LINE",
"186 68 LINE",
"186 323 LINE",
"545 323 LINE",
"545 391 LINE",
"186 391 LINE",
"186 632 LINE",
"587 632 LINE",
"587 700 LINE"
);
}
);
width = 657;
}
);
leftKerningGroup = H;
rightKerningGroup = E;
unicode = 0118;
},
{
glyphname = F;
layers = (
{
layerId = "89102082-4794-43F6-87DB-199E42FAC5CB";
paths = (
{
closed = 1;
nodes = (
"106 700 LINE",
"106 0 LINE",
"186 0 LINE",
"186 302 LINE",
"513 302 LINE",
"513 375 LINE",
"186 375 LINE",
"186 626 LINE",
"551 626 LINE",
"551 700 LINE"
);
}
);
width = 563;
}
);
leftKerningGroup = H;
rightKerningGroup = F;
unicode = 0046;
},
{
glyphname = G;
layers = (
{
anchors = (
{
name = bottom;
position = "{384, 0}";
},
{
name = top;
position = "{384, 700}";
}
);
layerId = "89102082-4794-43F6-87DB-199E42FAC5CB";
paths = (
{
closed = 1;
nodes = (
"203 702 OFFCURVE",
"40 547 OFFCURVE",
"40 350 CURVE SMOOTH",
"40 153 OFFCURVE",
"201 -3 OFFCURVE",
"405 -3 CURVE SMOOTH",
"499 -3 OFFCURVE",
"596 33 OFFCURVE",
"664 88 CURVE",
"617 147 LINE",
"560 99 OFFCURVE",
"483 70 OFFCURVE",
"409 70 CURVE SMOOTH",
"249 70 OFFCURVE",
"121 194 OFFCURVE",
"121 350 CURVE SMOOTH",
"121 505 OFFCURVE",
"249 629 OFFCURVE",
"409 629 CURVE SMOOTH",
"487 629 OFFCURVE",
"564 599 OFFCURVE",
"621 548 CURVE",
"667 606 LINE",
"599 665 OFFCURVE",
"506 702 OFFCURVE",
"409 702 CURVE SMOOTH"
);
},
{
closed = 1;
nodes = (
"594 342 LINE",
"594 88 LINE",
"665 88 LINE",
"665 342 LINE"
);
}
);
width = 753;
}
);
leftKerningGroup = O;
rightKerningGroup = G;
unicode = 0047;
},
{
glyphname = H;
layers = (
{
anchors = (
{
name = center;
position = "{397, 350}";
},
{
name = top;
position = "{400, 700}";
}
);
layerId = "89102082-4794-43F6-87DB-199E42FAC5CB";
paths = (
{
closed = 1;
nodes = (
"608 700 LINE",
"608 383 LINE",
"186 383 LINE",
"186 700 LINE",
"106 700 LINE",
"106 0 LINE",
"186 0 LINE",
"186 310 LINE",
"608 310 LINE",
"608 0 LINE",
"688 0 LINE",
"688 700 LINE"
);
}
);
width = 794;
}
);
leftKerningGroup = H;
rightKerningGroup = H;
unicode = 0048;
},
{
glyphname = Hbar;
layers = (
{
components = (
{
name = H;
transform = "{1, 0, 0, 1, 22, 0}";
}
);
layerId = "89102082-4794-43F6-87DB-199E42FAC5CB";
paths = (
{
closed = 1;
nodes = (
"42 580 LINE",
"42 520 LINE",
"796 520 LINE",
"796 580 LINE"
);
}
);
width = 839;
}
);
leftKerningGroup = H;
rightKerningGroup = H;
unicode = 0126;
},
{
glyphname = I;
layers = (
{
anchors = (
{
name = ogonek;
position = "{232, 10}";
},
{
name = top;
position = "{146, 700}";
}
);
layerId = "89102082-4794-43F6-87DB-199E42FAC5CB";
paths = (
{
closed = 1;
nodes = (
"106 700 LINE",
"106 0 LINE",
"186 0 LINE",
"186 700 LINE"
);
}
);
width = 292;
}
);
leftKerningGroup = H;
rightKerningGroup = H;
unicode = 0049;
},
{
glyphname = Iogonek;
layers = (
{
layerId = "89102082-4794-43F6-87DB-199E42FAC5CB";
paths = (
{
closed = 1;
nodes = (
"206 -120 LINE",
"190 -140 OFFCURVE",
"173 -153 OFFCURVE",
"153 -153 CURVE SMOOTH",
"132 -153 OFFCURVE",
"118 -139 OFFCURVE",
"118 -115 CURVE SMOOTH",
"118 -89 OFFCURVE",
"131 -55 OFFCURVE",
"171 0 CURVE",
"186 0 LINE",
"186 700 LINE",
"106 700 LINE",
"106 1 LINE",
"127 1 LINE",
"90 -51 OFFCURVE",
"72 -91 OFFCURVE",
"72 -126 CURVE SMOOTH",
"72 -176 OFFCURVE",
"107 -200 OFFCURVE",
"145 -200 CURVE SMOOTH",
"178 -200 OFFCURVE",
"211 -180 OFFCURVE",
"232 -150 CURVE"
);
}
);
width = 292;
}
);
leftKerningGroup = H;
rightKerningGroup = H;
unicode = 012E;
},
{
glyphname = J;
layers = (
{
anchors = (
{
name = top;
position = "{225, 700}";
}
);
layerId = "89102082-4794-43F6-87DB-199E42FAC5CB";
paths = (
{
closed = 1;
nodes = (
"63 700 LINE",
"63 626 LINE",
"313 626 LINE",
"313 211 LINE",
"313 123 OFFCURVE",
"269 76 OFFCURVE",
"193 76 CURVE",
"139 76 OFFCURVE",
"84 105 OFFCURVE",
"40 158 CURVE",
"0 96 LINE",
"49 33 OFFCURVE",
"116 -3 OFFCURVE",
"193 -3 CURVE",
"319 -3 OFFCURVE",
"394 73 OFFCURVE",
"394 209 CURVE",
"394 700 LINE"
);
}
);
width = 483;
}
);
leftKerningGroup = J;
rightKerningGroup = U;
unicode = 004A;
},
{
glyphname = K;
layers = (
{
anchors = (
{
name = bottom;
position = "{346, 0}";
},
{
name = top;
position = "{346, 700}";
}
);
layerId = "89102082-4794-43F6-87DB-199E42FAC5CB";
paths = (
{
closed = 1;
nodes = (
"562 700 LINE",
"186 293 LINE",
"186 700 LINE",
"106 700 LINE",
"106 0 LINE",
"186 0 LINE",
"186 183 LINE",
"657 700 LINE"
);
},
{
closed = 1;
nodes = (
"316 341 LINE",
"580 0 LINE",
"677 0 LINE",
"368 409 LINE"
);
}
);
width = 699;
}
);
leftKerningGroup = H;
rightKerningGroup = X;
unicode = 004B;
},
{
glyphname = L;
layers = (
{
anchors = (
{
name = bottom;
position = "{289, 0}";
},
{
name = top;
position = "{151, 700}";
}
);
layerId = "89102082-4794-43F6-87DB-199E42FAC5CB";
paths = (
{
closed = 1;
nodes = (
"106 700 LINE",
"106 0 LINE",
"493 0 LINE",
"493 74 LINE",
"186 74 LINE",
"186 700 LINE"
);
}
);
width = 517;
}
);
leftKerningGroup = H;
rightKerningGroup = L;
unicode = 004C;
},
{
glyphname = Lslash;
layers = (
{
components = (
{
name = L;
transform = "{1, 0, 0, 1, 15, 0}";
}
);
layerId = "89102082-4794-43F6-87DB-199E42FAC5CB";
paths = (
{
closed = 1;
nodes = (
"17 423 LINE",
"31 369 LINE",
"383 471 LINE",
"369 526 LINE"
);
}
);
width = 532;
}
);
leftKerningGroup = H;
rightKerningGroup = L;
rightMetricsKey = L;
unicode = 0141;
},
{
glyphname = M;
layers = (
{
layerId = "89102082-4794-43F6-87DB-199E42FAC5CB";
paths = (
{
closed = 1;
nodes = (
"716 700 LINE",
"461 192 LINE SMOOTH",
"205 700 LINE",
"106 700 LINE",
"106 0 LINE",
"182 0 LINE",
"182 582 LINE",
"436 74 LINE",
"484 74 LINE",
"739 582 LINE",
"740 0 LINE",
"814 0 LINE",
"814 700 LINE"
);
}
);
width = 921;
}
);
leftKerningGroup = H;
rightKerningGroup = H;
unicode = 004D;
},
{
glyphname = N;
layers = (
{
anchors = (
{
name = bottom;
position = "{398, 0}";
},
{
name = top;
position = "{398, 700}";
}
);
layerId = "89102082-4794-43F6-87DB-199E42FAC5CB";
paths = (
{
closed = 1;
nodes = (
"609 700 LINE",
"609 131 LINE",
"189 700 LINE",
"106 700 LINE",
"106 0 LINE",
"186 0 LINE",
"186 568 LINE",
"606 0 LINE",
"688 0 LINE",
"688 700 LINE"
);
}
);
width = 795;
}
);
leftKerningGroup = H;
rightKerningGroup = H;
unicode = 004E;
},
{
glyphname = Eng;
layers = (
{
anchors = (
{
name = bottom;
position = "{398, 0}";
},
{
name = top;
position = "{398, 700}";
}
);
layerId = "89102082-4794-43F6-87DB-199E42FAC5CB";
paths = (
{
closed = 1;
nodes = (
"608 -74 OFFCURVE",
"563 -121 OFFCURVE",
"487 -121 CURVE SMOOTH",
"437 -121 OFFCURVE",
"384 -98 OFFCURVE",
"341 -53 CURVE",
"301 -115 LINE",
"348 -170 OFFCURVE",
"413 -201 OFFCURVE",
"488 -201 CURVE SMOOTH",
"613 -201 OFFCURVE",
"689 -124 OFFCURVE",
"689 1 CURVE",
"608 14 LINE"
);
},
{
closed = 1;
nodes = (
"609 700 LINE",
"609 131 LINE",
"189 700 LINE",
"106 700 LINE",
"106 0 LINE",
"186 0 LINE",
"186 568 LINE",
"606 0 LINE",
"688 0 LINE",
"688 700 LINE"
);
}
);
width = 795;
}
);
leftKerningGroup = H;
rightKerningGroup = H;
unicode = 014A;
},
{
glyphname = O;
layers = (
{
anchors = (
{
name = top;
position = "{404, 700}";
}
);
layerId = "89102082-4794-43F6-87DB-199E42FAC5CB";
paths = (
{
closed = 1;
nodes = (
"202 702 OFFCURVE",
"40 547 OFFCURVE",
"40 350 CURVE SMOOTH",
"40 153 OFFCURVE",
"202 -3 OFFCURVE",
"406 -3 CURVE SMOOTH",
"611 -3 OFFCURVE",
"773 153 OFFCURVE",
"773 350 CURVE SMOOTH",
"773 547 OFFCURVE",
"611 702 OFFCURVE",
"406 702 CURVE SMOOTH"
);
},
{
closed = 1;
nodes = (
"563 628 OFFCURVE",
"691 505 OFFCURVE",
"691 350 CURVE SMOOTH",
"691 195 OFFCURVE",
"563 70 OFFCURVE",
"407 70 CURVE SMOOTH",
"251 70 OFFCURVE",
"121 195 OFFCURVE",
"121 350 CURVE SMOOTH",
"121 505 OFFCURVE",
"250 628 OFFCURVE",
"407 628 CURVE SMOOTH"
);
}
);
width = 813;
}
);
leftKerningGroup = O;
rightKerningGroup = O;
unicode = 004F;
},
{
glyphname = Oslash;
layers = (
{
anchors = (
{
name = top;
position = "{401, 700}";
}
);
components = (
{
name = O;
}
);
layerId = "89102082-4794-43F6-87DB-199E42FAC5CB";
paths = (
{
closed = 1;
nodes = (
"525 813 LINE",
"213 -129 LINE",
"263 -129 LINE",
"576 813 LINE"
);
}
);
width = 813;
}
);
leftKerningGroup = O;
leftMetricsKey = O;
rightKerningGroup = O;
rightMetricsKey = O;
unicode = 00D8;
},
{
glyphname = OE;
layers = (
{
anchors = (
{
name = bottom;
position = "{770, 0}";
},
{
name = ogonek;
position = "{1035, 10}";
},
{
name = top;
position = "{549, 700}";
}
);
layerId = "89102082-4794-43F6-87DB-199E42FAC5CB";
paths = (
{
closed = 1;
nodes = (
"406 700 LINE",
"201 700 OFFCURVE",
"40 545 OFFCURVE",
"40 350 CURVE SMOOTH",
"40 154 OFFCURVE",
"202 0 OFFCURVE",
"406 0 CURVE",
"572 0 LINE",
"572 72 LINE",
"406 73 LINE",
"247 73 OFFCURVE",
"121 194 OFFCURVE",
"121 349 CURVE SMOOTH",
"121 505 OFFCURVE",
"247 626 OFFCURVE",
"406 626 CURVE",
"567 626 LINE",
"569 700 LINE"
);
},
{
closed = 1;
nodes = (
"549 700 LINE",
"549 0 LINE",
"1037 0 LINE",
"1037 74 LINE",
"629 74 LINE",
"629 318 LINE",
"982 318 LINE",
"982 391 LINE",
"629 391 LINE",
"629 626 LINE",
"1025 626 LINE",
"1025 700 LINE"
);
}
);
width = 1094;
}
);
leftKerningGroup = O;
leftMetricsKey = O;
rightKerningGroup = E;
rightMetricsKey = E;
unicode = 0152;
},
{
glyphname = P;
layers = (
{
layerId = "89102082-4794-43F6-87DB-199E42FAC5CB";
paths = (
{
closed = 1;
nodes = (
"106 700 LINE",
"106 0 LINE",
"186 0 LINE",
"186 222 LINE",
"369 222 LINE SMOOTH",
"542 222 OFFCURVE",
"642 311 OFFCURVE",
"642 465 CURVE SMOOTH",
"642 614 OFFCURVE",
"542 700 OFFCURVE",
"369 700 CURVE SMOOTH"
);
},
{
closed = 1;
nodes = (
"493 626 OFFCURVE",
"566 570 OFFCURVE",
"566 463 CURVE SMOOTH",
"566 353 OFFCURVE",
"493 296 OFFCURVE",
"366 296 CURVE SMOOTH",
"186 296 LINE",
"186 626 LINE",
"366 626 LINE SMOOTH"
);
}
);
width = 669;
}
);
leftKerningGroup = H;
rightKerningGroup = P;
unicode = 0050;
},
{
glyphname = Thorn;
layers = (
{
layerId = "89102082-4794-43F6-87DB-199E42FAC5CB";
paths = (
{
closed = 1;
nodes = (
"167 596 LINE",
"177 528 LINE",
"346 528 LINE SMOOTH",
"491 528 OFFCURVE",
"564 472 OFFCURVE",
"564 365 CURVE SMOOTH",
"564 254 OFFCURVE",
"491 198 OFFCURVE",
"346 198 CURVE SMOOTH",
"179 198 LINE",
"179 130 LINE",
"348 130 LINE SMOOTH",
"542 130 OFFCURVE",
"645 213 OFFCURVE",
"645 367 CURVE SMOOTH",
"645 516 OFFCURVE",
"542 596 OFFCURVE",
"348 596 CURVE SMOOTH"
);
},
{
closed = 1;
nodes = (
"106 700 LINE",
"106 0 LINE",
"186 0 LINE",
"186 700 LINE"
);
}
);
width = 672;
}
);
leftKerningGroup = H;
leftMetricsKey = H;
rightKerningGroup = Thorn;
rightMetricsKey = P;
unicode = 00DE;
},
{
glyphname = Q;
layers = (
{
components = (
{
name = O;
}
);
layerId = "89102082-4794-43F6-87DB-199E42FAC5CB";
paths = (
{
closed = 1;
nodes = (
"412 1 LINE",
"477 -91 OFFCURVE",
"553 -143 OFFCURVE",
"635 -143 CURVE SMOOTH",
"696 -143 OFFCURVE",
"760 -116 OFFCURVE",
"814 -66 CURVE",
"779 -9 LINE",
"732 -49 OFFCURVE",
"685 -72 OFFCURVE",
"644 -72 CURVE SMOOTH",
"590 -72 OFFCURVE",
"537 -36 OFFCURVE",
"480 30 CURVE"
);
}
);
width = 830;
}
);
leftKerningGroup = O;
rightKerningGroup = O;
unicode = 0051;
},
{
glyphname = R;
layers = (
{
anchors = (
{
name = bottom;
position = "{360, 0}";
},
{
name = top;
position = "{350, 700}";
}
);
layerId = "89102082-4794-43F6-87DB-199E42FAC5CB";
paths = (
{
closed = 1;
nodes = (
"106 700 LINE",
"106 0 LINE",
"186 0 LINE",
"186 222 LINE",
"372 222 LINE SMOOTH",
"547 222 OFFCURVE",
"648 311 OFFCURVE",
"648 465 CURVE SMOOTH",
"648 614 OFFCURVE",
"547 700 OFFCURVE",
"372 700 CURVE SMOOTH"
);
},
{
closed = 1;
nodes = (
"396 257 LINE",
"564 0 LINE",
"655 0 LINE",
"477 257 LINE"
);
},
{
closed = 1;
nodes = (
"499 626 OFFCURVE",
"572 570 OFFCURVE",
"572 463 CURVE SMOOTH",
"572 353 OFFCURVE",
"499 296 OFFCURVE",
"372 296 CURVE SMOOTH",
"186 296 LINE",
"186 626 LINE",
"372 626 LINE SMOOTH"
);
}
);
width = 723;
}
);
leftKerningGroup = H;
rightKerningGroup = R;
unicode = 0052;
},
{
glyphname = S;
layers = (
{
anchors = (
{
name = bottom;
position = "{309, 0}";
},
{
name = top;
position = "{307, 700}";
}
);
layerId = "89102082-4794-43F6-87DB-199E42FAC5CB";
paths = (
{
closed = 1;
nodes = (
"169 703 OFFCURVE",
"72 633 OFFCURVE",
"72 523 CURVE",
"72 272 OFFCURVE",
"466 371 OFFCURVE",
"465 184 CURVE",
"465 116 OFFCURVE",
"402 75 OFFCURVE",
"301 75 CURVE",
"222 75 OFFCURVE",
"133 111 OFFCURVE",
"69 173 CURVE",
"32 104 LINE",
"99 41 OFFCURVE",
"198 -3 OFFCURVE",
"300 -3 CURVE",
"450 -3 OFFCURVE",
"553 72 OFFCURVE",
"553 188 CURVE",
"555 442 OFFCURVE",
"160 347 OFFCURVE",
"160 529 CURVE",
"160 589 OFFCURVE",
"219 625 OFFCURVE",
"309 625 CURVE",
"365 625 OFFCURVE",
"439 608 OFFCURVE",
"503 567 CURVE",
"536 638 LINE",
"478 677 OFFCURVE",
"395 703 OFFCURVE",
"314 703 CURVE"
);
}
);
width = 611;
}
);
leftKerningGroup = S;
rightKerningGroup = S;
unicode = 0053;
},
{
glyphname = T;
layers = (
{
anchors = (
{
name = bottom;
position = "{265, 0}";
},
{
name = center;
position = "{275, 350}";
},
{
name = top;
position = "{284, 700}";
}
);
layerId = "89102082-4794-43F6-87DB-199E42FAC5CB";
paths = (
{
closed = 1;
nodes = (
"11 700 LINE",
"11 626 LINE",
"239 626 LINE",
"239 0 LINE",
"319 0 LINE",
"319 626 LINE",
"548 626 LINE",
"548 700 LINE"
);
}
);
width = 558;
}
);
leftKerningGroup = T;
rightKerningGroup = T;
unicode = 0054;
},
{
glyphname = U;
layers = (
{
anchors = (
{
name = ogonek;
position = "{537, 10}";
},
{
name = top;
position = "{384, 700}";
}
);
layerId = "89102082-4794-43F6-87DB-199E42FAC5CB";
paths = (
{
closed = 1;
nodes = (
"598 700 LINE",
"598 288 LINE",
"598 150 OFFCURVE",
"518 70 OFFCURVE",
"385 70 CURVE",
"251 70 OFFCURVE",
"170 150 OFFCURVE",
"170 288 CURVE",
"170 700 LINE",
"90 700 LINE",
"90 288 LINE",
"90 105 OFFCURVE",
"201 -3 OFFCURVE",
"384 -3 CURVE",
"568 -3 OFFCURVE",
"678 105 OFFCURVE",
"678 288 CURVE",
"678 700 LINE"
);
}
);
width = 768;
}
);
leftKerningGroup = U;
rightKerningGroup = U;
unicode = 0055;
},
{
glyphname = Uogonek;
layers = (
{
layerId = "89102082-4794-43F6-87DB-199E42FAC5CB";
paths = (
{
closed = 1;
nodes = (
"598 700 LINE",
"598 288 LINE",
"598 150 OFFCURVE",
"518 70 OFFCURVE",
"385 70 CURVE",
"251 70 OFFCURVE",
"169 151 OFFCURVE",
"169 288 CURVE",
"169 700 LINE",
"90 700 LINE",
"90 288 LINE",
"90 106 OFFCURVE",
"200 -3 OFFCURVE",
"384 -3 CURVE",
"567 -3 OFFCURVE",
"678 106 OFFCURVE",
"678 288 CURVE",
"678 700 LINE"
);
},
{
closed = 1;
nodes = (
"443 16 LINE",
"398 -44 OFFCURVE",
"377 -87 OFFCURVE",
"377 -126 CURVE SMOOTH",
"377 -176 OFFCURVE",
"412 -200 OFFCURVE",
"450 -200 CURVE SMOOTH",
"483 -200 OFFCURVE",
"516 -180 OFFCURVE",
"537 -150 CURVE",
"511 -120 LINE",
"495 -140 OFFCURVE",
"478 -153 OFFCURVE",
"458 -153 CURVE SMOOTH",
"437 -153 OFFCURVE",
"423 -139 OFFCURVE",
"423 -115 CURVE SMOOTH",
"423 -86 OFFCURVE",
"440 -48 OFFCURVE",
"487 16 CURVE"
);
}
);
width = 769;
}
);
leftKerningGroup = U;
rightKerningGroup = U;
unicode = 0172;
},
{
glyphname = V;
layers = (
{
layerId = "89102082-4794-43F6-87DB-199E42FAC5CB";
paths = (
{
closed = 1;
nodes = (
"575 700 LINE",
"334 90 LINE",
"92 700 LINE",
"6 700 LINE",
"290 0 LINE",
"373 0 LINE",
"659 700 LINE"
);
}
);
width = 665;
}
);
leftKerningGroup = V;
rightKerningGroup = V;
unicode = 0056;
},
{
glyphname = W;
layers = (
{
anchors = (
{
name = top;
position = "{513, 700}";
}
);
layerId = "89102082-4794-43F6-87DB-199E42FAC5CB";
paths = (
{
closed = 1;
nodes = (
"936 700 LINE",
"746 90 LINE",
"554 700 LINE",
"474 700 LINE",
"284 90 LINE",
"92 700 LINE",
"6 700 LINE",
"240 0 LINE",
"323 0 LINE",
"513 593 LINE",
"702 0 LINE",
"785 0 LINE",
"1019 700 LINE"
);
}
);
width = 1017;
}
);
leftKerningGroup = V;
rightKerningGroup = V;
unicode = 0057;
},
{
glyphname = X;
layers = (
{
layerId = "89102082-4794-43F6-87DB-199E42FAC5CB";
paths = (
{
closed = 1;
nodes = (
"522 700 LINE",
"327 427 LINE",
"133 700 LINE",
"40 700 LINE",
"279 360 LINE",
"22 0 LINE",
"116 0 LINE",
"327 295 LINE",
"540 0 LINE",
"636 0 LINE",
"378 364 LINE",
"616 700 LINE"
);
}
);
width = 665;
}
);
leftKerningGroup = X;
rightKerningGroup = X;
unicode = 0058;
},
{
glyphname = Y;
layers = (
{
anchors = (
{
name = top;
position = "{312, 700}";
}
);
layerId = "89102082-4794-43F6-87DB-199E42FAC5CB";
paths = (
{
closed = 1;
nodes = (
"537 700 LINE",
"314 333 LINE",
"86 700 LINE",
"4 700 LINE",
"307 185 LINE",
"320 185 LINE",
"620 700 LINE"
);
},
{
closed = 1;
nodes = (
"275 289 LINE",
"275 0 LINE",
"355 0 LINE",
"355 289 LINE"
);
}
);
width = 625;
}
);
leftKerningGroup = V;
rightKerningGroup = V;
unicode = 0059;
},
{
glyphname = Z;
layers = (
{
anchors = (
{
name = top;
position = "{335, 700}";
}
);
layerId = "89102082-4794-43F6-87DB-199E42FAC5CB";
paths = (
{
closed = 1;
nodes = (
"56 700 LINE",
"56 626 LINE",
"507 626 LINE",
"43 62 LINE",
"43 0 LINE",
"616 0 LINE",
"617 74 LINE",
"148 74 LINE",
"612 638 LINE",
"612 700 LINE"
);
}
);
width = 660;
}
);
leftKerningGroup = Z;
rightKerningGroup = Z;
unicode = 005A;
},
{
glyphname = A.ss01;
layers = (
{
anchors = (
{
name = ogonek;
position = "{716, 10}";
},
{
name = top;
position = "{385, 700}";
}
);
layerId = "89102082-4794-43F6-87DB-199E42FAC5CB";
paths = (
{
closed = 1;
nodes = (
"200 702 OFFCURVE",
"90 592 OFFCURVE",
"90 411 CURVE SMOOTH",
"90 0 LINE",
"170 0 LINE",
"170 201 LINE",
"599 201 LINE",
"599 0 LINE",
"679 0 LINE",
"679 411 LINE SMOOTH",
"679 592 OFFCURVE",
"568 702 OFFCURVE",
"384 702 CURVE SMOOTH"
);
},
{
closed = 1;
nodes = (
"519 629 OFFCURVE",
"599 547 OFFCURVE",
"600 411 CURVE SMOOTH",
"600 275 LINE",
"170 275 LINE",
"170 411 LINE SMOOTH",
"170 547 OFFCURVE",
"250 629 OFFCURVE",
"385 629 CURVE SMOOTH"
);
}
);
width = 769;
}
);
leftKerningGroup = A.ss01;
leftMetricsKey = U;
rightKerningGroup = A.ss01;
rightMetricsKey = U;
},
{
glyphname = Aogonek.ss01;
layers = (
{
layerId = "89102082-4794-43F6-87DB-199E42FAC5CB";
paths = (
{
closed = 1;
nodes = (
"200 702 OFFCURVE",
"90 592 OFFCURVE",
"90 411 CURVE SMOOTH",
"90 0 LINE",
"170 0 LINE",
"170 202 LINE",
"599 202 LINE",
"599 0 LINE",
"621 0 LINE",
"584 -53 OFFCURVE",
"565 -91 OFFCURVE",
"565 -126 CURVE SMOOTH",
"565 -176 OFFCURVE",
"601 -200 OFFCURVE",
"639 -200 CURVE SMOOTH",
"671 -200 OFFCURVE",
"704 -180 OFFCURVE",
"725 -150 CURVE",
"700 -120 LINE",
"684 -140 OFFCURVE",
"666 -153 OFFCURVE",
"646 -153 CURVE SMOOTH",
"626 -153 OFFCURVE",
"611 -139 OFFCURVE",
"611 -115 CURVE SMOOTH",
"611 -89 OFFCURVE",
"624 -56 OFFCURVE",
"664 0 CURVE",
"679 0 LINE",
"679 411 LINE SMOOTH",
"679 592 OFFCURVE",
"568 702 OFFCURVE",
"384 702 CURVE SMOOTH"
);
},
{
closed = 1;
nodes = (
"519 629 OFFCURVE",
"599 547 OFFCURVE",
"600 411 CURVE SMOOTH",
"600 275 LINE",
"170 275 LINE",
"170 411 LINE SMOOTH",
"170 547 OFFCURVE",
"250 629 OFFCURVE",
"385 629 CURVE SMOOTH"
);
}
);
width = 774;
}
);
leftKerningGroup = Aogonek.ss01;
rightKerningGroup = Aogonek.ss01;
},
{
glyphname = E.ss01;
layers = (
{
anchors = (
{
name = bottom;
position = "{283, 0}";
},
{
name = ogonek;
position = "{509, 10}";
},
{
name = top;
position = "{283, 700}";
}
);
layerId = "89102082-4794-43F6-87DB-199E42FAC5CB";
paths = (
{
closed = 1;
nodes = (
"182 703 OFFCURVE",
"83 630 OFFCURVE",
"83 527 CURVE SMOOTH",
"83 451 OFFCURVE",
"140 387 OFFCURVE",
"220 370 CURVE",
"119 352 OFFCURVE",
"50 277 OFFCURVE",
"50 190 CURVE SMOOTH",
"50 77 OFFCURVE",
"162 -3 OFFCURVE",
"315 -3 CURVE SMOOTH",
"396 -3 OFFCURVE",
"490 22 OFFCURVE",
"545 54 CURVE",
"513 118 LINE",
"467 93 OFFCURVE",
"384 69 OFFCURVE",
"318 69 CURVE SMOOTH",
"212 69 OFFCURVE",
"132 120 OFFCURVE",
"132 197 CURVE SMOOTH",
"132 273 OFFCURVE",
"210 329 OFFCURVE",
"319 329 CURVE SMOOTH",
"448 329 LINE",
"448 403 LINE",
"319 403 LINE SMOOTH",
"225 403 OFFCURVE",
"159 453 OFFCURVE",
"159 519 CURVE SMOOTH",
"159 588 OFFCURVE",
"230 630 OFFCURVE",
"327 630 CURVE SMOOTH",
"380 630 OFFCURVE",
"445 618 OFFCURVE",
"487 597 CURVE",
"515 661 LINE",
"469 686 OFFCURVE",
"388 703 OFFCURVE",
"323 703 CURVE SMOOTH"
);
}
);
width = 566;
}
);
leftKerningGroup = E.ss01;
leftMetricsKey = eight;
rightKerningGroup = E.ss01;
},
{
glyphname = Eogonek.ss01;
layers = (
{
layerId = "89102082-4794-43F6-87DB-199E42FAC5CB";
paths = (
{
closed = 1;
nodes = (
"182 703 OFFCURVE",
"83 630 OFFCURVE",
"83 527 CURVE SMOOTH",
"83 451 OFFCURVE",
"140 387 OFFCURVE",
"220 370 CURVE",
"119 352 OFFCURVE",
"50 277 OFFCURVE",
"50 190 CURVE SMOOTH",
"50 77 OFFCURVE",
"162 -3 OFFCURVE",
"315 -3 CURVE SMOOTH",
"396 -3 OFFCURVE",
"490 22 OFFCURVE",
"545 54 CURVE",
"513 118 LINE",
"467 93 OFFCURVE",
"384 69 OFFCURVE",
"318 69 CURVE SMOOTH",
"212 69 OFFCURVE",
"132 120 OFFCURVE",
"132 197 CURVE SMOOTH",
"132 273 OFFCURVE",
"210 329 OFFCURVE",
"319 329 CURVE SMOOTH",
"448 329 LINE",
"448 403 LINE",
"319 403 LINE SMOOTH",
"225 403 OFFCURVE",
"159 453 OFFCURVE",
"159 519 CURVE SMOOTH",
"159 588 OFFCURVE",
"230 630 OFFCURVE",
"327 630 CURVE SMOOTH",
"380 630 OFFCURVE",
"445 618 OFFCURVE",
"487 597 CURVE",
"515 661 LINE",
"469 686 OFFCURVE",
"388 703 OFFCURVE",
"323 703 CURVE SMOOTH"
);
},
{
closed = 1;
nodes = (
"417 18 LINE",
"371 -42 OFFCURVE",
"349 -86 OFFCURVE",
"349 -126 CURVE SMOOTH",
"349 -176 OFFCURVE",
"384 -200 OFFCURVE",
"422 -200 CURVE SMOOTH",
"455 -200 OFFCURVE",
"488 -180 OFFCURVE",
"509 -150 CURVE",
"483 -120 LINE",
"467 -140 OFFCURVE",
"449 -153 OFFCURVE",
"430 -153 CURVE SMOOTH",
"409 -153 OFFCURVE",
"394 -139 OFFCURVE",
"394 -115 CURVE SMOOTH",
"394 -81 OFFCURVE",
"416 -36 OFFCURVE",
"475 37 CURVE"
);
}
);
width = 566;
}
);
leftKerningGroup = Eogonek.ss01;
rightKerningGroup = Eogonek.ss01;
},
{
glyphname = F.ss01;
layers = (
{
layerId = "89102082-4794-43F6-87DB-199E42FAC5CB";
paths = (
{
closed = 1;
nodes = (
"169 0 LINE",
"169 486 LINE",
"169 573 OFFCURVE",
"226 629 OFFCURVE",
"313 629 CURVE",
"367 629 OFFCURVE",
"436 612 OFFCURVE",
"486 588 CURVE",
"507 660 LINE",
"454 686 OFFCURVE",
"378 703 OFFCURVE",
"306 703 CURVE",
"175 703 OFFCURVE",
"90 618 OFFCURVE",
"90 487 CURVE",
"90 0 LINE"
);
},
{
closed = 1;
nodes = (
"114 364 LINE",
"114 290 LINE",
"451 290 LINE",
"451 364 LINE"
);
}
);
width = 515;
}
);
leftKerningGroup = F.ss01;
leftMetricsKey = U;
rightKerningGroup = F.ss01;
},
{
glyphname = G.ss01;
layers = (
{
anchors = (
{
name = bottom;
position = "{378, 0}";
},
{
name = top;
position = "{378, 700}";
}
);
layerId = "89102082-4794-43F6-87DB-199E42FAC5CB";
paths = (
{
closed = 1;
nodes = (
"203 702 OFFCURVE",
"40 547 OFFCURVE",
"40 350 CURVE SMOOTH",
"40 153 OFFCURVE",
"198 -3 OFFCURVE",
"398 -3 CURVE SMOOTH",
"494 -3 OFFCURVE",
"588 46 OFFCURVE",
"648 119 CURVE",
"607 166 LINE",
"559 107 OFFCURVE",
"485 70 OFFCURVE",
"405 70 CURVE SMOOTH",
"247 70 OFFCURVE",
"121 194 OFFCURVE",
"121 350 CURVE SMOOTH",
"121 505 OFFCURVE",
"249 629 OFFCURVE",
"409 629 CURVE SMOOTH",
"488 629 OFFCURVE",
"564 599 OFFCURVE",
"621 548 CURVE",
"667 606 LINE",
"599 665 OFFCURVE",
"505 702 OFFCURVE",
"408 702 CURVE SMOOTH"
);
},
{
closed = 1;
nodes = (
"594 351 LINE",
"594 98 LINE",
"603 88 LINE",
"603 0 LINE",
"665 0 LINE",
"665 351 LINE"
);
}
);
width = 754;
}
);
leftKerningGroup = O;
leftMetricsKey = O;
rightKerningGroup = G;
},
{
glyphname = I.ss01;
layers = (
{
anchors = (
{
name = ogonek;
position = "{423, 10}";
},
{
name = top;
position = "{235, 700}";
}
);
layerId = "89102082-4794-43F6-87DB-199E42FAC5CB";
paths = (
{
closed = 1;
nodes = (
"54 626 LINE",
"415 626 LINE",
"415 700 LINE",
"54 700 LINE"
);
},
{
closed = 1;
nodes = (
"54 0 LINE",
"415 0 LINE",
"415 74 LINE",
"54 74 LINE"
);
},
{
closed = 1;
nodes = (
"195 700 LINE",
"195 0 LINE",
"275 0 LINE",
"275 700 LINE"
);
}
);
width = 470;
}
);
leftKerningGroup = I.ss01;
rightKerningGroup = I.ss01;
},
{
glyphname = J.ss01;
layers = (
{
anchors = (
{
name = top;
position = "{245, 700}";
}
);
layerId = "89102082-4794-43F6-87DB-199E42FAC5CB";
paths = (
{
closed = 1;
nodes = (
"63 700 LINE",
"63 626 LINE",
"313 626 LINE",
"313 111 LINE",
"313 23 OFFCURVE",
"269 -24 OFFCURVE",
"193 -24 CURVE",
"139 -24 OFFCURVE",
"84 5 OFFCURVE",
"40 58 CURVE",
"0 -4 LINE",
"49 -67 OFFCURVE",
"116 -103 OFFCURVE",
"193 -103 CURVE",
"319 -103 OFFCURVE",
"393 -27 OFFCURVE",
"393 109 CURVE",
"393 700 LINE"
);
}
);
width = 482;
}
);
leftKerningGroup = J.ss01;
leftMetricsKey = J;
rightKerningGroup = J.ss01;
rightMetricsKey = J;
},
{
glyphname = M.ss01;
layers = (
{
anchors = (
{
name = ogonek;
position = "{232, 10}";
},
{
name = top;
position = "{146, 700}";
}
);
layerId = "89102082-4794-43F6-87DB-199E42FAC5CB";
paths = (
{
closed = 1;
nodes = (
"259 697 OFFCURVE",
"146 579 OFFCURVE",
"146 413 CURVE",
"185 392 LINE",
"185 519 OFFCURVE",
"273 619 OFFCURVE",
"395 622 CURVE",
"498 622 OFFCURVE",
"570 541 OFFCURVE",
"570 427 CURVE",
"570 0 LINE SMOOTH",
"651 0 LINE",
"651 444 LINE",
"651 594 OFFCURVE",
"554 700 OFFCURVE",
"421 700 CURVE"
);
},
{
closed = 1;
nodes = (
"726 697 OFFCURVE",
"613 579 OFFCURVE",
"613 413 CURVE",
"652 392 LINE",
"652 519 OFFCURVE",
"740 619 OFFCURVE",
"862 622 CURVE",
"965 622 OFFCURVE",
"1037 541 OFFCURVE",
"1037 427 CURVE",
"1037 0 LINE SMOOTH",
"1118 0 LINE",
"1118 444 LINE",
"1118 594 OFFCURVE",
"1021 700 OFFCURVE",
"887 700 CURVE"
);
},
{
closed = 1;
nodes = (
"106 700 LINE",
"106 0 LINE",
"186 0 LINE",
"186 700 LINE"
);
}
);
width = 1208;
}
);
leftKerningGroup = M.ss01;
leftMetricsKey = H;
rightKerningGroup = M.ss01;
rightMetricsKey = U;
},
{
glyphname = N.ss01;
layers = (
{
anchors = (
{
name = bottom;
position = "{389, 0}";
},
{
name = ogonek;
position = "{232, 10}";
},
{
name = top;
position = "{389, 700}";
}
);
layerId = "89102082-4794-43F6-87DB-199E42FAC5CB";
paths = (
{
closed = 1;
nodes = (
"268 697 OFFCURVE",
"146 579 OFFCURVE",
"146 413 CURVE",
"185 392 LINE",
"185 519 OFFCURVE",
"282 619 OFFCURVE",
"417 622 CURVE",
"529 622 OFFCURVE",
"608 541 OFFCURVE",
"608 427 CURVE",
"608 0 LINE SMOOTH",
"689 0 LINE",
"689 444 LINE",
"689 595 OFFCURVE",
"585 700 OFFCURVE",
"442 700 CURVE"
);
},
{
closed = 1;
nodes = (
"106 700 LINE",
"106 0 LINE",
"186 0 LINE",
"186 700 LINE"
);
}
);
width = 779;
}
);
leftKerningGroup = N.ss01;
leftMetricsKey = H;
rightKerningGroup = N.ss01;
rightMetricsKey = U;
},
{
glyphname = Eng.ss01;
layers = (
{
anchors = (
{
name = bottom;
position = "{389, 0}";
},
{
name = ogonek;
position = "{232, 10}";
},
{
name = top;
position = "{389, 700}";
}
);
layerId = "89102082-4794-43F6-87DB-199E42FAC5CB";
paths = (
{
closed = 1;
nodes = (
"608 -74 OFFCURVE",
"563 -121 OFFCURVE",
"487 -121 CURVE SMOOTH",
"437 -121 OFFCURVE",
"384 -98 OFFCURVE",
"341 -53 CURVE",
"301 -115 LINE",
"348 -170 OFFCURVE",
"413 -201 OFFCURVE",
"488 -201 CURVE SMOOTH",
"613 -201 OFFCURVE",
"689 -125 OFFCURVE",
"689 0 CURVE",
"608 14 LINE"
);
},
{
closed = 1;
nodes = (
"268 697 OFFCURVE",
"146 579 OFFCURVE",
"146 413 CURVE",
"185 392 LINE",
"185 519 OFFCURVE",
"282 619 OFFCURVE",
"417 622 CURVE",
"529 622 OFFCURVE",
"608 541 OFFCURVE",
"608 427 CURVE",
"608 0 LINE SMOOTH",
"689 0 LINE",
"689 444 LINE",
"689 595 OFFCURVE",
"585 700 OFFCURVE",
"442 700 CURVE"
);
},
{
closed = 1;
nodes = (
"106 700 LINE",
"106 0 LINE",
"186 0 LINE",
"186 700 LINE"
);
}
);
width = 779;
}
);
leftKerningGroup = H;
rightKerningGroup = H;
},
{
glyphname = Q.ss01;
layers = (
{
components = (
{
name = O;
}
);
layerId = "89102082-4794-43F6-87DB-199E42FAC5CB";
paths = (
{
closed = 1;
nodes = (
"368 -129 LINE",
"437 -129 LINE",
"437 252 LINE",
"368 252 LINE"
);
}
);
width = 813;
}
);
leftKerningGroup = O;
leftMetricsKey = O;
rightKerningGroup = O;
rightMetricsKey = O;
},
{
glyphname = T.ss01;
layers = (
{
anchors = (
{
name = bottom;
position = "{303, 0}";
},
{
name = center;
position = "{317, 350}";
},
{
name = top;
position = "{317, 700}";
}
);
layerId = "89102082-4794-43F6-87DB-199E42FAC5CB";
paths = (
{
closed = 1;
nodes = (
"215 703 OFFCURVE",
"115 678 OFFCURVE",
"33 634 CURVE",
"61 563 LINE",
"135 602 OFFCURVE",
"226 624 OFFCURVE",
"314 624 CURVE SMOOTH",
"404 624 OFFCURVE",
"494 602 OFFCURVE",
"569 563 CURVE",
"597 633 LINE",
"514 678 OFFCURVE",
"414 703 OFFCURVE",
"314 703 CURVE SMOOTH"
);
},
{
closed = 1;
nodes = (
"275 660 LINE",
"275 0 LINE",
"355 0 LINE",
"355 660 LINE"
);
}
);
width = 633;
}
);
leftKerningGroup = T;
rightKerningGroup = T;
},
{
glyphname = W.ss01;
layers = (
{
anchors = (
{
name = top;
position = "{594, 700}";
}
);
layerId = "89102082-4794-43F6-87DB-199E42FAC5CB";
paths = (
{
closed = 1;
nodes = (
"1018 700 LINE",
"1018 250 LINE SMOOTH",
"1018 142 OFFCURVE",
"944 70 OFFCURVE",
"830 70 CURVE SMOOTH",
"713 70 OFFCURVE",
"635 142 OFFCURVE",
"635 250 CURVE SMOOTH",
"635 700 LINE",
"555 700 LINE",
"555 250 LINE SMOOTH",
"555 142 OFFCURVE",
"477 70 OFFCURVE",
"360 70 CURVE SMOOTH",
"246 70 OFFCURVE",
"170 142 OFFCURVE",
"170 250 CURVE SMOOTH",
"170 700 LINE",
"90 700 LINE",
"90 250 LINE SMOOTH",
"90 99 OFFCURVE",
"194 -3 OFFCURVE",
"349 -3 CURVE SMOOTH",
"466 -3 OFFCURVE",
"561 55 OFFCURVE",
"595 141 CURVE",
"628 55 OFFCURVE",
"724 -3 OFFCURVE",
"840 -3 CURVE SMOOTH",
"994 -3 OFFCURVE",
"1098 99 OFFCURVE",
"1098 250 CURVE SMOOTH",
"1098 700 LINE"
);
}
);
width = 1188;
}
);
leftKerningGroup = W.ss01;
leftMetricsKey = U;
rightKerningGroup = W.ss01;
rightMetricsKey = U;
},
{
glyphname = Y.ss01;
layers = (
{
anchors = (
{
name = top;
position = "{369, 700}";
}
);
layerId = "89102082-4794-43F6-87DB-199E42FAC5CB";
paths = (
{
closed = 1;
nodes = (
"499 160 OFFCURVE",
"607 280 OFFCURVE",
"607 451 CURVE",
"569 464 LINE",
"569 330 OFFCURVE",
"480 234 OFFCURVE",
"358 232 CURVE",
"248 232 OFFCURVE",
"170 312 OFFCURVE",
"170 424 CURVE",
"170 700 LINE SMOOTH",
"90 700 LINE",
"90 417 LINE",
"90 265 OFFCURVE",
"195 157 OFFCURVE",
"343 157 CURVE"
);
},
{
closed = 1;
nodes = (
"568 700 LINE",
"568 164 LINE",
"568 51 OFFCURVE",
"482 -30 OFFCURVE",
"361 -30 CURVE",
"277 -30 OFFCURVE",
"184 11 OFFCURVE",
"135 68 CURVE",
"95 11 LINE",
"150 -56 OFFCURVE",
"263 -103 OFFCURVE",
"370 -103 CURVE",
"533 -103 OFFCURVE",
"647 6 OFFCURVE",
"647 162 CURVE",
"647 700 LINE"
);
}
);
width = 736;
}
);
leftKerningGroup = Y.ss01;
leftMetricsKey = U;
rightKerningGroup = Y.ss01;
rightMetricsKey = J;
},
{
glyphname = Z.ss01;
layers = (
{
anchors = (
{
name = top;
position = "{330, 700}";
}
);
layerId = "89102082-4794-43F6-87DB-199E42FAC5CB";
paths = (
{
closed = 1;
nodes = (
"323 380 LINE",
"323 312 LINE",
"542 312 LINE",
"542 380 LINE"
);
},
{
closed = 1;
nodes = (
"110 384 LINE",
"110 317 LINE",
"327 317 LINE",
"327 384 LINE"
);
},
{
closed = 1;
nodes = (
"56 700 LINE",
"56 626 LINE",
"507 626 LINE",
"43 62 LINE",
"43 0 LINE",
"616 0 LINE",
"617 74 LINE",
"148 74 LINE",
"612 638 LINE",
"612 700 LINE"
);
}
);
width = 660;
}
);
leftKerningGroup = Z.ss01;
leftMetricsKey = Z;
rightKerningGroup = Z.ss01;
rightMetricsKey = Z;
},
{
glyphname = a;
layers = (
{
anchors = (
{
name = ogonek;
position = "{530, 10}";
},
{
name = top;
position = "{284, 526}";
}
);
layerId = "89102082-4794-43F6-87DB-199E42FAC5CB";
paths = (
{
closed = 1;
nodes = (
"204 529 OFFCURVE",
"147 503 OFFCURVE",
"79 458 CURVE",
"112 403 LINE",
"167 442 OFFCURVE",
"221 464 OFFCURVE",
"279 464 CURVE",
"372 464 OFFCURVE",
"420 417 OFFCURVE",
"420 340 CURVE",
"422 0 LINE",
"498 0 LINE",
"497 348 LINE",
"496 460 OFFCURVE",
"424 529 OFFCURVE",
"294 529 CURVE"
);
},
{
closed = 1;
nodes = (
"248 307 LINE",
"123 306 OFFCURVE",
"50 248 OFFCURVE",
"50 156 CURVE",
"50 66 OFFCURVE",
"120 -3 OFFCURVE",
"230 -3 CURVE",
"329 -3 OFFCURVE",
"406 36 OFFCURVE",
"442 118 CURVE",
"422 185 LINE",
"405 108 OFFCURVE",
"336 62 OFFCURVE",
"245 62 CURVE",
"170 62 OFFCURVE",
"124 101 OFFCURVE",
"124 159 CURVE",
"124 218 OFFCURVE",
"169 245 OFFCURVE",
"258 245 CURVE",
"434 245 LINE",
"434 307 LINE"
);
}
);
width = 577;
}
);
leftKerningGroup = a;
rightKerningGroup = n;
unicode = 0061;
},
{
glyphname = aogonek;
layers = (
{
layerId = "89102082-4794-43F6-87DB-199E42FAC5CB";
paths = (
{
closed = 1;
nodes = (
"204 529 OFFCURVE",
"148 503 OFFCURVE",
"79 458 CURVE",
"113 403 LINE",
"167 442 OFFCURVE",
"221 464 OFFCURVE",
"281 464 CURVE SMOOTH",
"374 464 OFFCURVE",
"421 417 OFFCURVE",
"422 339 CURVE SMOOTH",
"422 307 LINE",
"248 307 LINE SMOOTH",
"124 306 OFFCURVE",
"50 249 OFFCURVE",
"50 156 CURVE SMOOTH",
"50 67 OFFCURVE",
"118 -3 OFFCURVE",
"233 -3 CURVE SMOOTH",
"311 -3 OFFCURVE",
"381 23 OFFCURVE",
"423 82 CURVE",
"423 2 LINE",
"436 2 LINE",
"388 -50 OFFCURVE",
"368 -90 OFFCURVE",
"368 -127 CURVE SMOOTH",
"368 -176 OFFCURVE",
"403 -200 OFFCURVE",
"440 -200 CURVE SMOOTH",
"473 -200 OFFCURVE",
"505 -181 OFFCURVE",
"528 -150 CURVE",
"502 -120 LINE",
"486 -140 OFFCURVE",
"468 -153 OFFCURVE",
"449 -153 CURVE SMOOTH",
"428 -153 OFFCURVE",
"413 -139 OFFCURVE",
"413 -115 CURVE SMOOTH",
"413 -89 OFFCURVE",
"429 -55 OFFCURVE",
"478 0 CURVE",
"500 0 LINE",
"500 348 LINE",
"498 460 OFFCURVE",
"425 529 OFFCURVE",
"296 529 CURVE SMOOTH"
);
},
{
closed = 1;
nodes = (
"422 178 LINE",
"403 107 OFFCURVE",
"329 62 OFFCURVE",
"247 62 CURVE SMOOTH",
"167 62 OFFCURVE",
"123 103 OFFCURVE",
"123 158 CURVE SMOOTH",
"123 218 OFFCURVE",
"168 245 OFFCURVE",
"258 245 CURVE SMOOTH",
"422 245 LINE"
);
}
);
width = 581;
}
);
leftKerningGroup = a;
rightKerningGroup = n;
unicode = 0105;
},
{
glyphname = ae;
layers = (
{
anchors = (
{
name = top;
position = "{490, 526}";
}
);
layerId = "89102082-4794-43F6-87DB-199E42FAC5CB";
paths = (
{
closed = 0;
nodes = (
"556 124 LINE"
);
},
{
closed = 1;
nodes = (
"219 529 OFFCURVE",
"148 503 OFFCURVE",
"79 460 CURVE",
"101 403 LINE",
"160 441 OFFCURVE",
"218 464 OFFCURVE",
"280 464 CURVE",
"373 464 OFFCURVE",
"422 417 OFFCURVE",
"422 340 CURVE",
"424 222 LINE",
"500 206 LINE",
"499 348 LINE",
"498 460 OFFCURVE",
"425 529 OFFCURVE",
"294 529 CURVE"
);
},
{
closed = 1;
nodes = (
"249 297 LINE",
"125 296 OFFCURVE",
"50 244 OFFCURVE",
"50 153 CURVE",
"50 62 OFFCURVE",
"121 -3 OFFCURVE",
"229 -3 CURVE",
"341 -3 OFFCURVE",
"425 46 OFFCURVE",
"467 150 CURVE",
"434 192 LINE",
"397 90 OFFCURVE",
"331 55 OFFCURVE",
"245 55 CURVE",
"172 55 OFFCURVE",
"124 97 OFFCURVE",
"124 159 CURVE",
"124 218 OFFCURVE",
"174 251 OFFCURVE",
"262 251 CURVE",
"436 251 LINE",
"436 297 LINE"
);
},
{
closed = 1;
nodes = (
"486 248 LINE",
"941 248 LINE",
"944 414 OFFCURVE",
"843 529 OFFCURVE",
"686 529 CURVE SMOOTH",
"537 529 OFFCURVE",
"433 420 OFFCURVE",
"433 263 CURVE SMOOTH",
"433 106 OFFCURVE",
"536 -3 OFFCURVE",
"688 -3 CURVE SMOOTH",
"775 -3 OFFCURVE",
"849 29 OFFCURVE",
"900 84 CURVE",
"856 130 LINE",
"815 86 OFFCURVE",
"758 63 OFFCURVE",
"693 63 CURVE SMOOTH",
"581 63 OFFCURVE",
"500 144 OFFCURVE",
"500 267 CURVE SMOOTH",
"500 384 OFFCURVE",
"577 469 OFFCURVE",
"687 469 CURVE SMOOTH",
"789 469 OFFCURVE",
"857 397 OFFCURVE",
"863 294 CURVE",
"486 294 LINE"
);
}
);
width = 980;
}
);
leftKerningGroup = a;
leftMetricsKey = a;
rightKerningGroup = e;
rightMetricsKey = e;
unicode = 00E6;
},
{
glyphname = b;
layers = (
{
layerId = "89102082-4794-43F6-87DB-199E42FAC5CB";
paths = (
{
closed = 1;
nodes = (
"100 742 LINE",
"100 0 LINE",
"178 0 LINE",
"178 742 LINE"
);
},
{
closed = 1;
nodes = (
"238 529 OFFCURVE",
"144 426 OFFCURVE",
"145 262 CURVE",
"144 101 OFFCURVE",
"237 -3 OFFCURVE",
"383 -3 CURVE SMOOTH",
"532 -3 OFFCURVE",
"634 106 OFFCURVE",
"634 262 CURVE SMOOTH",
"634 419 OFFCURVE",
"530 529 OFFCURVE",
"382 529 CURVE SMOOTH"
);
},
{
closed = 1;
nodes = (
"477 462 OFFCURVE",
"556 378 OFFCURVE",
"556 264 CURVE SMOOTH",
"556 149 OFFCURVE",
"477 66 OFFCURVE",
"367 66 CURVE SMOOTH",
"257 66 OFFCURVE",
"178 148 OFFCURVE",
"178 264 CURVE SMOOTH",
"178 379 OFFCURVE",
"257 462 OFFCURVE",
"367 462 CURVE SMOOTH"
);
}
);
width = 676;
}
);
leftKerningGroup = h;
rightKerningGroup = o;
unicode = 0062;
},
{
glyphname = c;
layers = (
{
anchors = (
{
name = bottom;
position = "{289, 0}";
},
{
name = top;
position = "{284, 526}";
}
);
layerId = "89102082-4794-43F6-87DB-199E42FAC5CB";
paths = (
{
closed = 1;
nodes = (
"151 529 OFFCURVE",
"42 419 OFFCURVE",
"42 263 CURVE SMOOTH",
"42 106 OFFCURVE",
"151 -3 OFFCURVE",
"303 -3 CURVE SMOOTH",
"394 -3 OFFCURVE",
"467 31 OFFCURVE",
"514 88 CURVE",
"470 134 LINE",
"432 90 OFFCURVE",
"375 66 OFFCURVE",
"307 66 CURVE SMOOTH",
"198 66 OFFCURVE",
"120 146 OFFCURVE",
"120 263 CURVE SMOOTH",
"120 379 OFFCURVE",
"198 459 OFFCURVE",
"307 459 CURVE SMOOTH",
"371 459 OFFCURVE",
"423 436 OFFCURVE",
"463 397 CURVE",
"506 451 LINE",
"459 500 OFFCURVE",
"389 529 OFFCURVE",
"304 529 CURVE SMOOTH"
);
}
);
width = 561;
}
);
leftKerningGroup = o;
rightKerningGroup = c;
unicode = 0063;
},
{
glyphname = d;
layers = (
{
anchors = (
{
name = center;
position = "{-10, 0}";
}
);
layerId = "89102082-4794-43F6-87DB-199E42FAC5CB";
paths = (
{
closed = 0;
nodes = (
"421 264 LINE"
);
},
{
closed = 1;
nodes = (
"147 530 OFFCURVE",
"42 421 OFFCURVE",
"42 264 CURVE SMOOTH",
"42 107 OFFCURVE",
"146 -4 OFFCURVE",
"296 -4 CURVE SMOOTH",
"442 -4 OFFCURVE",
"535 101 OFFCURVE",
"535 263 CURVE",
"535 426 OFFCURVE",
"442 530 OFFCURVE",
"295 530 CURVE SMOOTH"
);
},
{
closed = 1;
nodes = (
"422 462 OFFCURVE",
"501 378 OFFCURVE",
"501 262 CURVE SMOOTH",
"501 146 OFFCURVE",
"422 63 OFFCURVE",
"311 63 CURVE SMOOTH",
"199 63 OFFCURVE",
"121 146 OFFCURVE",
"120 262 CURVE SMOOTH",
"121 378 OFFCURVE",
"200 462 OFFCURVE",
"311 462 CURVE SMOOTH"
);
},
{
closed = 1;
nodes = (
"501 742 LINE",
"501 0 LINE",
"579 0 LINE",
"579 742 LINE"
);
}
);
width = 679;
}
);
leftKerningGroup = o;
rightKerningGroup = l;
unicode = 0064;
},
{
glyphname = eth;
layers = (
{
layerId = "89102082-4794-43F6-87DB-199E42FAC5CB";
paths = (
{
closed = 1;
nodes = (
"136 705 LINE",
"293 625 OFFCURVE",
"421 483 OFFCURVE",
"462 344 CURVE",
"430 403 OFFCURVE",
"356 441 OFFCURVE",
"273 441 CURVE SMOOTH",
"135 441 OFFCURVE",
"46 355 OFFCURVE",
"46 224 CURVE SMOOTH",
"46 86 OFFCURVE",
"139 -3 OFFCURVE",
"282 -3 CURVE SMOOTH",
"439 -3 OFFCURVE",
"541 96 OFFCURVE",
"541 250 CURVE SMOOTH",
"541 443 OFFCURVE",
"402 637 OFFCURVE",
"187 745 CURVE"
);
},
{
closed = 1;
nodes = (
"392 382 OFFCURVE",
"458 319 OFFCURVE",
"458 222 CURVE",
"458 128 OFFCURVE",
"392 67 OFFCURVE",
"288 67 CURVE SMOOTH",
"187 67 OFFCURVE",
"121 130 OFFCURVE",
"121 228 CURVE SMOOTH",
"121 322 OFFCURVE",
"186 382 OFFCURVE",
"289 382 CURVE SMOOTH"
);
},
{
closed = 1;
nodes = (
"143 587 LINE",
"156 543 LINE",
"474 644 LINE",
"461 689 LINE"
);
}
);
width = 581;
}
);
leftKerningGroup = o;
rightKerningGroup = O;
rightMetricsKey = O;
unicode = 00F0;
},
{
glyphname = dcroat;
layers = (
{
components = (
{
name = d;
}
);
layerId = "89102082-4794-43F6-87DB-199E42FAC5CB";
paths = (
{
closed = 1;
nodes = (
"393 680 LINE",
"393 631 LINE",
"650 631 LINE",
"650 680 LINE"
);
}
);
width = 678;
}
);
leftKerningGroup = o;
rightKerningGroup = l;
unicode = 0111;
},
{
glyphname = e;
layers = (
{
anchors = (
{
name = bottom;
position = "{298, 0}";
},
{
name = ogonek;
position = "{521, 10}";
},
{
name = top;
position = "{297, 526}";
}
);
layerId = "89102082-4794-43F6-87DB-199E42FAC5CB";
paths = (
{
closed = 1;
nodes = (
"104 234 LINE",
"549 234 LINE",
"557 412 OFFCURVE",
"474 529 OFFCURVE",
"303 529 CURVE SMOOTH",
"151 528 OFFCURVE",
"42 420 OFFCURVE",
"42 263 CURVE SMOOTH",
"42 106 OFFCURVE",
"149 -3 OFFCURVE",
"305 -3 CURVE SMOOTH",
"392 -3 OFFCURVE",
"466 29 OFFCURVE",
"516 84 CURVE",
"473 129 LINE",
"433 86 OFFCURVE",
"375 62 OFFCURVE",
"310 62 CURVE SMOOTH",
"198 62 OFFCURVE",
"118 144 OFFCURVE",
"118 267 CURVE SMOOTH",
"118 385 OFFCURVE",
"194 464 OFFCURVE",
"304 464 CURVE SMOOTH",
"407 464 OFFCURVE",
"474 398 OFFCURVE",
"480 296 CURVE",
"104 296 LINE"
);
}
);
width = 588;
}
);
leftKerningGroup = o;
rightKerningGroup = o;
unicode = 0065;
},
{
glyphname = eogonek;
layers = (
{
layerId = "89102082-4794-43F6-87DB-199E42FAC5CB";
paths = (
{
closed = 1;
nodes = (
"141 525 OFFCURVE",
"42 414 OFFCURVE",
"42 264 CURVE SMOOTH",
"42 106 OFFCURVE",
"150 -3 OFFCURVE",
"302 -3 CURVE SMOOTH",
"353 -3 OFFCURVE",
"396 10 OFFCURVE",
"437 37 CURVE",
"390 -27 OFFCURVE",
"370 -81 OFFCURVE",
"370 -125 CURVE SMOOTH",
"370 -177 OFFCURVE",
"405 -200 OFFCURVE",
"443 -200 CURVE SMOOTH",
"477 -200 OFFCURVE",
"508 -179 OFFCURVE",
"529 -150 CURVE",
"503 -120 LINE",
"488 -138 OFFCURVE",
"470 -153 OFFCURVE",
"451 -153 CURVE SMOOTH",
"430 -153 OFFCURVE",
"415 -140 OFFCURVE",
"415 -114 CURVE SMOOTH",
"415 -67 OFFCURVE",
"448 0 OFFCURVE",
"516 84 CURVE",
"473 130 LINE",
"433 86 OFFCURVE",
"374 62 OFFCURVE",
"311 62 CURVE SMOOTH",
"204 62 OFFCURVE",
"132 132 OFFCURVE",
"121 234 CURVE",
"549 234 LINE",
"557 415 OFFCURVE",
"467 532 OFFCURVE",
"303 528 CURVE SMOOTH"
);
},
{
closed = 1;
nodes = (
"406 464 OFFCURVE",
"473 395 OFFCURVE",
"479 296 CURVE",
"119 296 LINE",
"127 395 OFFCURVE",
"202 464 OFFCURVE",
"304 464 CURVE SMOOTH"
);
}
);
width = 588;
}
);
leftKerningGroup = o;
rightKerningGroup = e;
unicode = 0119;
},
{
glyphname = f;
layers = (
{
layerId = "89102082-4794-43F6-87DB-199E42FAC5CB";
paths = (
{
closed = 1;
nodes = (
"192 746 OFFCURVE",
"111 683 OFFCURVE",
"111 569 CURVE",
"111 0 LINE",
"188 0 LINE",
"188 579 LINE",
"188 641 OFFCURVE",
"230 676 OFFCURVE",
"281 675 CURVE",
"309 675 OFFCURVE",
"338 665 OFFCURVE",
"361 648 CURVE",
"393 708 LINE",
"361 732 OFFCURVE",
"320 745 OFFCURVE",
"280 745 CURVE"
);
},
{
closed = 1;
nodes = (
"43 510 LINE",
"43 449 LINE",
"339 449 LINE",
"339 510 LINE"
);
}
);
width = 324;
}
);
leftKerningGroup = f;
rightKerningGroup = f;
unicode = 0066;
},
{
glyphname = g;
layers = (
{
anchors = (
{
name = top;
position = "{318, 526}";
}
);
layerId = "89102082-4794-43F6-87DB-199E42FAC5CB";
paths = (
{
closed = 1;
nodes = (
"476 526 LINE",
"476 53 LINE",
"476 -58 OFFCURVE",
"401 -129 OFFCURVE",
"286 -129 CURVE SMOOTH",
"216 -128 OFFCURVE",
"160 -105 OFFCURVE",
"108 -62 CURVE",
"73 -119 LINE",
"136 -168 OFFCURVE",
"206 -195 OFFCURVE",
"289 -196 CURVE SMOOTH",
"449 -196 OFFCURVE",
"553 -99 OFFCURVE",
"553 55 CURVE",
"553 526 LINE"
);
},
{
closed = 1;
nodes = (
"140 528 OFFCURVE",
"42 425 OFFCURVE",
"42 277 CURVE SMOOTH",
"42 128 OFFCURVE",
"140 23 OFFCURVE",
"282 23 CURVE SMOOTH",
"421 23 OFFCURVE",
"509 122 OFFCURVE",
"509 276 CURVE",
"509 431 OFFCURVE",
"420 530 OFFCURVE",
"280 529 CURVE SMOOTH"
);
},
{
closed = 1;
nodes = (
"401 464 OFFCURVE",
"476 385 OFFCURVE",
"476 275 CURVE SMOOTH",
"476 166 OFFCURVE",
"401 87 OFFCURVE",
"296 87 CURVE SMOOTH",
"190 87 OFFCURVE",
"116 166 OFFCURVE",
"115 275 CURVE SMOOTH",
"116 385 OFFCURVE",
"190 464 OFFCURVE",
"296 464 CURVE SMOOTH"
);
}
);
width = 636;
}
);
leftKerningGroup = o;
rightKerningGroup = j;
unicode = 0067;
},
{
glyphname = h;
layers = (
{
anchors = (
{
name = bottom;
position = "{601, 0}";
},
{
name = center;
position = "{332, 264}";
},
{
name = top;
position = "{138, 742}";
},
{
name = topright;
position = "{246, 528}";
}
);
layerId = "89102082-4794-43F6-87DB-199E42FAC5CB";
paths = (
{
closed = 1;
nodes = (
"583 0 LINE",
"583 324 LINE",
"583 452 OFFCURVE",
"509 529 OFFCURVE",
"383 529 CURVE",
"239 527 OFFCURVE",
"151 444 OFFCURVE",
"151 258 CURVE",
"178 258 LINE",
"178 373 OFFCURVE",
"244 453 OFFCURVE",
"356 454 CURVE",
"449 454 OFFCURVE",
"505 398 OFFCURVE",
"505 304 CURVE",
"505 0 LINE SMOOTH"
);
},
{
closed = 1;
nodes = (
"178 0 LINE",
"178 742 LINE",
"100 742 LINE",
"100 0 LINE"
);
}
);
width = 662;
}
);
leftKerningGroup = h;
rightKerningGroup = n;
unicode = 0068;
},
{
glyphname = hbar;
layers = (
{
components = (
{
name = h;
}
);
layerId = "89102082-4794-43F6-87DB-199E42FAC5CB";
paths = (
{
closed = 1;
nodes = (
"13 649 LINE",
"13 599 LINE",
"333 599 LINE",
"333 649 LINE"
);
}
);
width = 748;
}
);
leftKerningGroup = h;
rightKerningGroup = n;
unicode = 0127;
},
{
glyphname = i;
layers = (
{
anchors = (
{
name = _top;
position = "{133, 526}";
},
{
name = ogonek;
position = "{226, 10}";
},
{
name = top;
position = "{133, 526}";
}
);
layerId = "89102082-4794-43F6-87DB-199E42FAC5CB";
paths = (
{
closed = 1;
nodes = (
"95 526 LINE",
"95 0 LINE",
"172 0 LINE",
"172 526 LINE"
);
},
{
closed = 1;
nodes = (
"104 730 OFFCURVE",
"82 708 OFFCURVE",
"82 677 CURVE SMOOTH",
"82 647 OFFCURVE",
"104 624 OFFCURVE",
"133 624 CURVE SMOOTH",
"162 624 OFFCURVE",
"184 647 OFFCURVE",
"184 677 CURVE SMOOTH",
"184 708 OFFCURVE",
"162 730 OFFCURVE",
"133 730 CURVE SMOOTH"
);
}
);
width = 267;
}
);
leftKerningGroup = dotlessi;
rightKerningGroup = dotlessi;
unicode = 0069;
},
{
glyphname = idotless;
layers = (
{
anchors = (
{
name = ogonek;
position = "{226, 10}";
},
{
name = top;
position = "{133, 526}";
}
);
layerId = "89102082-4794-43F6-87DB-199E42FAC5CB";
paths = (
{
closed = 1;
nodes = (
"95 526 LINE",
"95 0 LINE",
"172 0 LINE",
"172 526 LINE"
);
}
);
width = 267;
}
);
leftKerningGroup = i;
rightKerningGroup = i;
unicode = 0131;
},
{
glyphname = iogonek;
layers = (
{
layerId = "89102082-4794-43F6-87DB-199E42FAC5CB";
paths = (
{
closed = 1;
nodes = (
"88 526 LINE",
"88 0 LINE",
"108 0 LINE",
"73 -53 OFFCURVE",
"56 -91 OFFCURVE",
"56 -126 CURVE SMOOTH",
"56 -176 OFFCURVE",
"91 -200 OFFCURVE",
"129 -200 CURVE SMOOTH",
"162 -200 OFFCURVE",
"195 -180 OFFCURVE",
"216 -150 CURVE",
"190 -120 LINE",
"174 -140 OFFCURVE",
"157 -153 OFFCURVE",
"137 -153 CURVE SMOOTH",
"116 -153 OFFCURVE",
"102 -139 OFFCURVE",
"102 -115 CURVE SMOOTH",
"102 -89 OFFCURVE",
"114 -55 OFFCURVE",
"151 0 CURVE",
"167 0 LINE",
"167 526 LINE"
);
},
{
closed = 1;
nodes = (
"98 731 OFFCURVE",
"76 708 OFFCURVE",
"76 677 CURVE SMOOTH",
"76 647 OFFCURVE",
"98 624 OFFCURVE",
"127 624 CURVE SMOOTH",
"156 624 OFFCURVE",
"178 647 OFFCURVE",
"178 677 CURVE SMOOTH",
"178 708 OFFCURVE",
"156 731 OFFCURVE",
"127 731 CURVE SMOOTH"
);
}
);
width = 253;
}
);
leftKerningGroup = i;
rightKerningGroup = i;
unicode = 012F;
},
{
glyphname = j;
layers = (
{
layerId = "89102082-4794-43F6-87DB-199E42FAC5CB";
paths = (
{
closed = 1;
nodes = (
"92 526 LINE",
"92 -30 LINE",
"92 -96 OFFCURVE",
"62 -127 OFFCURVE",
"16 -126 CURVE",
"-10 -126 OFFCURVE",
"-37 -116 OFFCURVE",
"-60 -99 CURVE",
"-88 -161 LINE",
"-58 -184 OFFCURVE",
"-20 -197 OFFCURVE",
"19 -197 CURVE",
"101 -197 OFFCURVE",
"170 -141 OFFCURVE",
"170 -20 CURVE",
"170 526 LINE"
);
},
{
closed = 1;
nodes = (
"101 731 OFFCURVE",
"78 708 OFFCURVE",
"78 677 CURVE SMOOTH",
"78 647 OFFCURVE",
"101 624 OFFCURVE",
"131 624 CURVE SMOOTH",
"162 624 OFFCURVE",
"184 647 OFFCURVE",
"184 677 CURVE SMOOTH",
"184 708 OFFCURVE",
"162 731 OFFCURVE",
"131 731 CURVE SMOOTH"
);
}
);
width = 267;
}
);
leftKerningGroup = j;
rightKerningGroup = j;
unicode = 006A;
},
{
glyphname = jdotless;
layers = (
{
anchors = (
{
name = top;
position = "{128, 526}";
}
);
layerId = "89102082-4794-43F6-87DB-199E42FAC5CB";
paths = (
{
closed = 1;
nodes = (
"92 526 LINE",
"92 -16 LINE",
"92 -91 OFFCURVE",
"64 -130 OFFCURVE",
"11 -129 CURVE",
"-17 -128 OFFCURVE",
"-45 -119 OFFCURVE",
"-69 -101 CURVE",
"-92 -160 LINE",
"-58 -183 OFFCURVE",
"-17 -195 OFFCURVE",
"26 -196 CURVE",
"118 -197 OFFCURVE",
"170 -137 OFFCURVE",
"170 -26 CURVE",
"170 526 LINE"
);
}
);
width = 253;
}
);
leftKerningGroup = j;
rightKerningGroup = j;
rightMetricsKey = i;
unicode = 0237;
},
{
glyphname = k;
layers = (
{
anchors = (
{
name = bottom;
position = "{116, 0}";
},
{
name = top;
position = "{139, 742}";
},
{
name = topright;
position = "{249, 526}";
}
);
layerId = "89102082-4794-43F6-87DB-199E42FAC5CB";
paths = (
{
closed = 0;
nodes = (
"230 111 LINE"
);
},
{
closed = 1;
nodes = (
"100 742 LINE",
"100 0 LINE",
"178 0 LINE",
"178 742 LINE"
);
},
{
closed = 1;
nodes = (
"449 526 LINE",
"169 244 LINE",
"169 143 LINE",
"541 526 LINE"
);
},
{
closed = 1;
nodes = (
"276 286 LINE",
"469 0 LINE",
"562 0 LINE",
"334 336 LINE"
);
}
);
width = 573;
}
);
leftKerningGroup = h;
rightKerningGroup = x;
unicode = 006B;
},
{
glyphname = kgreenlandic;
layers = (
{
anchors = (
{
name = bottom;
position = "{282, 0}";
},
{
name = ogonek;
position = "{226, 10}";
},
{
name = top;
position = "{133, 526}";
}
);
layerId = "89102082-4794-43F6-87DB-199E42FAC5CB";
paths = (
{
closed = 0;
nodes = (
"230 111 LINE"
);
},
{
closed = 1;
nodes = (
"95 526 LINE",
"95 0 LINE",
"172 0 LINE",
"172 526 LINE"
);
},
{
closed = 1;
nodes = (
"445 526 LINE",
"165 245 LINE",
"165 143 LINE",
"536 526 LINE"
);
},
{
closed = 1;
nodes = (
"272 287 LINE",
"465 0 LINE",
"557 0 LINE",
"330 337 LINE"
);
}
);
width = 568;
}
);
leftKerningGroup = h;
leftMetricsKey = n;
rightKerningGroup = k;
rightMetricsKey = k;
unicode = 0138;
},
{
glyphname = l;
layers = (
{
anchors = (
{
name = bottom;
position = "{139, 0}";
},
{
name = top;
position = "{139, 742}";
},
{
name = topright;
position = "{249, 526}";
}
);
layerId = "89102082-4794-43F6-87DB-199E42FAC5CB";
paths = (
{
closed = 1;
nodes = (
"100 742 LINE",
"100 0 LINE",
"178 0 LINE",
"178 742 LINE"
);
}
);
width = 278;
}
);
leftKerningGroup = h;
rightKerningGroup = l;
unicode = 006C;
},
{
glyphname = ldot;
layers = (
{
components = (
{
name = l;
}
);
layerId = "89102082-4794-43F6-87DB-199E42FAC5CB";
paths = (
{
closed = 1;
nodes = (
"246 358 OFFCURVE",
"225 336 OFFCURVE",
"225 308 CURVE SMOOTH",
"225 280 OFFCURVE",
"246 258 OFFCURVE",
"273 258 CURVE SMOOTH",
"300 258 OFFCURVE",
"320 280 OFFCURVE",
"320 308 CURVE SMOOTH",
"320 336 OFFCURVE",
"300 358 OFFCURVE",
"273 358 CURVE SMOOTH"
);
}
);
width = 293;
}
);
leftKerningGroup = h;
leftMetricsKey = l;
rightKerningGroup = l;
unicode = 0140;
},
{
glyphname = lslash;
layers = (
{
components = (
{
name = l;
transform = "{1, 0, 0, 1, 40, 0}";
}
);
layerId = "89102082-4794-43F6-87DB-199E42FAC5CB";
paths = (
{
closed = 1;
nodes = (
"13 436 LINE",
"27 381 LINE",
"336 471 LINE",
"321 526 LINE"
);
}
);
width = 341;
}
);
leftKerningGroup = lslash;
rightKerningGroup = lslash;
unicode = 0142;
},
{
glyphname = m;
layers = (
{
layerId = "89102082-4794-43F6-87DB-199E42FAC5CB";
paths = (
{
closed = 1;
nodes = (
"95 526 LINE",
"95 0 LINE",
"172 0 LINE",
"172 526 LINE"
);
},
{
closed = 1;
nodes = (
"233 527 OFFCURVE",
"146 444 OFFCURVE",
"146 259 CURVE",
"173 259 LINE",
"173 373 OFFCURVE",
"238 452 OFFCURVE",
"346 455 CURVE",
"437 455 OFFCURVE",
"492 399 OFFCURVE",
"492 304 CURVE",
"492 0 LINE SMOOTH",
"570 0 LINE",
"570 324 LINE",
"570 452 OFFCURVE",
"497 529 OFFCURVE",
"374 529 CURVE"
);
},
{
closed = 1;
nodes = (
"629 527 OFFCURVE",
"542 444 OFFCURVE",
"542 259 CURVE",
"569 259 LINE",
"569 373 OFFCURVE",
"633 452 OFFCURVE",
"741 455 CURVE",
"832 455 OFFCURVE",
"887 399 OFFCURVE",
"887 304 CURVE",
"887 0 LINE SMOOTH",
"966 0 LINE",
"966 324 LINE",
"966 452 OFFCURVE",
"893 529 OFFCURVE",
"769 529 CURVE"
);
}
);
width = 1044;
}
);
leftKerningGroup = n;
rightKerningGroup = n;
unicode = 006D;
},
{
glyphname = n;
layers = (
{
anchors = (
{
name = bottom;
position = "{332, 0}";
},
{
name = top;
position = "{341, 526}";
}
);
layerId = "89102082-4794-43F6-87DB-199E42FAC5CB";
paths = (
{
closed = 1;
nodes = (
"95 526 LINE",
"95 0 LINE",
"173 0 LINE",
"173 526 LINE"
);
},
{
closed = 1;
nodes = (
"233 527 OFFCURVE",
"145 444 OFFCURVE",
"145 258 CURVE",
"172 258 LINE",
"172 373 OFFCURVE",
"238 453 OFFCURVE",
"350 454 CURVE",
"443 454 OFFCURVE",
"499 398 OFFCURVE",
"499 304 CURVE",
"499 0 LINE SMOOTH",
"577 0 LINE",
"577 324 LINE",
"577 452 OFFCURVE",
"503 529 OFFCURVE",
"377 529 CURVE"
);
}
);
width = 656;
}
);
leftKerningGroup = n;
rightKerningGroup = n;
unicode = 006E;
},
{
glyphname = eng;
layers = (
{
anchors = (
{
name = bottom;
position = "{332, 0}";
},
{
name = top;
position = "{341, 526}";
}
);
layerId = "89102082-4794-43F6-87DB-199E42FAC5CB";
paths = (
{
closed = 1;
nodes = (
"233 527 OFFCURVE",
"145 444 OFFCURVE",
"145 258 CURVE",
"172 258 LINE",
"172 373 OFFCURVE",
"238 453 OFFCURVE",
"350 454 CURVE SMOOTH",
"443 454 OFFCURVE",
"499 398 OFFCURVE",
"499 304 CURVE SMOOTH",
"499 -30 LINE SMOOTH",
"499 -96 OFFCURVE",
"469 -127 OFFCURVE",
"423 -126 CURVE SMOOTH",
"397 -126 OFFCURVE",
"370 -116 OFFCURVE",
"347 -99 CURVE",
"319 -161 LINE",
"349 -184 OFFCURVE",
"387 -197 OFFCURVE",
"426 -197 CURVE SMOOTH",
"508 -197 OFFCURVE",
"577 -141 OFFCURVE",
"577 -21 CURVE SMOOTH",
"577 324 LINE SMOOTH",
"577 452 OFFCURVE",
"503 529 OFFCURVE",
"377 529 CURVE SMOOTH"
);
},
{
closed = 1;
nodes = (
"95 526 LINE",
"95 0 LINE",
"173 0 LINE",
"173 526 LINE"
);
}
);
width = 656;
}
);
leftKerningGroup = i;
rightKerningGroup = i;
unicode = 014B;
},
{
glyphname = o;
layers = (
{
anchors = (
{
name = top;
position = "{309, 526}";
}
);
layerId = "89102082-4794-43F6-87DB-199E42FAC5CB";
paths = (
{
closed = 1;
nodes = (
"153 529 OFFCURVE",
"42 420 OFFCURVE",
"42 264 CURVE SMOOTH",
"42 106 OFFCURVE",
"153 -3 OFFCURVE",
"309 -3 CURVE SMOOTH",
"466 -3 OFFCURVE",
"577 106 OFFCURVE",
"577 264 CURVE SMOOTH",
"577 420 OFFCURVE",
"466 529 OFFCURVE",
"309 529 CURVE SMOOTH"
);
},
{
closed = 1;
nodes = (
"419 460 OFFCURVE",
"498 379 OFFCURVE",
"498 263 CURVE SMOOTH",
"498 145 OFFCURVE",
"419 65 OFFCURVE",
"309 65 CURVE SMOOTH",
"199 65 OFFCURVE",
"120 145 OFFCURVE",
"120 263 CURVE SMOOTH",
"120 379 OFFCURVE",
"199 460 OFFCURVE",
"309 460 CURVE SMOOTH"
);
}
);
width = 618;
}
);
leftKerningGroup = o;
rightKerningGroup = o;
unicode = 006F;
},
{
glyphname = oslash;
layers = (
{
anchors = (
{
name = top;
position = "{309, 526}";
}
);
layerId = "89102082-4794-43F6-87DB-199E42FAC5CB";
paths = (
{
closed = 1;
nodes = (
"417 660 LINE",
"157 -148 LINE",
"197 -148 LINE",
"457 660 LINE"
);
},
{
closed = 1;
nodes = (
"153 529 OFFCURVE",
"42 420 OFFCURVE",
"42 264 CURVE SMOOTH",
"42 106 OFFCURVE",
"153 -3 OFFCURVE",
"309 -3 CURVE SMOOTH",
"466 -3 OFFCURVE",
"577 106 OFFCURVE",
"577 264 CURVE SMOOTH",
"577 420 OFFCURVE",
"466 529 OFFCURVE",
"309 529 CURVE SMOOTH"
);
},
{
closed = 1;
nodes = (
"422 466 OFFCURVE",
"502 383 OFFCURVE",
"502 263 CURVE SMOOTH",
"502 142 OFFCURVE",
"422 59 OFFCURVE",
"309 59 CURVE SMOOTH",
"196 59 OFFCURVE",
"116 142 OFFCURVE",
"116 263 CURVE SMOOTH",
"116 383 OFFCURVE",
"196 466 OFFCURVE",
"309 466 CURVE SMOOTH"
);
}
);
width = 618;
}
);
leftKerningGroup = o;
leftMetricsKey = o;
rightKerningGroup = o;
rightMetricsKey = o;
unicode = 00F8;
},
{
glyphname = oe;
layers = (
{
anchors = (
{
name = top;
position = "{529, 526}";
}
);
layerId = "89102082-4794-43F6-87DB-199E42FAC5CB";
paths = (
{
closed = 0;
nodes = (
"373 216 LINE"
);
},
{
closed = 1;
nodes = (
"153 529 OFFCURVE",
"42 420 OFFCURVE",
"42 264 CURVE SMOOTH",
"42 106 OFFCURVE",
"153 -3 OFFCURVE",
"309 -3 CURVE SMOOTH",
"461 -3 OFFCURVE",
"563 106 OFFCURVE",
"563 264 CURVE SMOOTH",
"563 420 OFFCURVE",
"461 529 OFFCURVE",
"309 529 CURVE SMOOTH"
);
},
{
closed = 1;
nodes = (
"419 460 OFFCURVE",
"498 379 OFFCURVE",
"498 263 CURVE SMOOTH",
"498 145 OFFCURVE",
"419 65 OFFCURVE",
"309 65 CURVE SMOOTH",
"199 65 OFFCURVE",
"120 145 OFFCURVE",
"120 263 CURVE SMOOTH",
"120 379 OFFCURVE",
"199 460 OFFCURVE",
"309 460 CURVE SMOOTH"
);
},
{
closed = 1;
nodes = (
"558 248 LINE",
"1015 248 LINE",
"1018 414 OFFCURVE",
"917 529 OFFCURVE",
"759 529 CURVE SMOOTH",
"611 529 OFFCURVE",
"510 420 OFFCURVE",
"510 263 CURVE SMOOTH",
"510 106 OFFCURVE",
"609 -3 OFFCURVE",
"761 -3 CURVE SMOOTH",
"848 -3 OFFCURVE",
"922 29 OFFCURVE",
"973 84 CURVE",
"930 129 LINE",
"889 86 OFFCURVE",
"831 62 OFFCURVE",
"766 62 CURVE SMOOTH",
"653 62 OFFCURVE",
"572 144 OFFCURVE",
"572 267 CURVE SMOOTH",
"572 385 OFFCURVE",
"649 469 OFFCURVE",
"760 469 CURVE SMOOTH",
"863 469 OFFCURVE",
"931 397 OFFCURVE",
"937 294 CURVE",
"558 294 LINE"
);
}
);
width = 1054;
}
);
leftKerningGroup = o;
leftMetricsKey = o;
rightKerningGroup = e;
rightMetricsKey = e;
unicode = 0153;
},
{
glyphname = p;
layers = (
{
layerId = "89102082-4794-43F6-87DB-199E42FAC5CB";
paths = (
{
closed = 1;
nodes = (
"100 526 LINE",
"100 -194 LINE",
"178 -194 LINE",
"178 526 LINE"
);
},
{
closed = 0;
nodes = (
"208 31 LINE"
);
},
{
closed = 1;
nodes = (
"238 529 OFFCURVE",
"144 426 OFFCURVE",
"145 262 CURVE",
"144 101 OFFCURVE",
"237 -3 OFFCURVE",
"383 -3 CURVE SMOOTH",
"532 -3 OFFCURVE",
"634 106 OFFCURVE",
"634 262 CURVE SMOOTH",
"634 419 OFFCURVE",
"530 529 OFFCURVE",
"382 529 CURVE SMOOTH"
);
},
{
closed = 1;
nodes = (
"477 462 OFFCURVE",
"556 378 OFFCURVE",
"556 264 CURVE SMOOTH",
"556 149 OFFCURVE",
"477 66 OFFCURVE",
"367 66 CURVE SMOOTH",
"257 66 OFFCURVE",
"178 148 OFFCURVE",
"178 264 CURVE SMOOTH",
"178 379 OFFCURVE",
"257 462 OFFCURVE",
"367 462 CURVE SMOOTH"
);
}
);
width = 676;
}
);
leftKerningGroup = p;
rightKerningGroup = o;
unicode = 0070;
},
{
glyphname = thorn;
layers = (
{
anchors = (
{
name = bottom;
position = "{139, 0}";
},
{
name = top;
position = "{139, 742}";
},
{
name = topright;
position = "{249, 526}";
}
);
layerId = "89102082-4794-43F6-87DB-199E42FAC5CB";
paths = (
{
closed = 0;
nodes = (
"320 314 LINE"
);
},
{
closed = 1;
nodes = (
"100 526 LINE",
"100 -194 LINE",
"178 -194 LINE",
"178 526 LINE"
);
},
{
closed = 0;
nodes = (
"208 31 LINE"
);
},
{
closed = 1;
nodes = (
"238 529 OFFCURVE",
"144 426 OFFCURVE",
"145 262 CURVE",
"144 101 OFFCURVE",
"237 -3 OFFCURVE",
"383 -3 CURVE SMOOTH",
"532 -3 OFFCURVE",
"634 106 OFFCURVE",
"634 262 CURVE SMOOTH",
"634 419 OFFCURVE",
"530 529 OFFCURVE",
"382 529 CURVE SMOOTH"
);
},
{
closed = 1;
nodes = (
"477 462 OFFCURVE",
"556 378 OFFCURVE",
"556 264 CURVE SMOOTH",
"556 149 OFFCURVE",
"477 66 OFFCURVE",
"367 66 CURVE SMOOTH",
"257 66 OFFCURVE",
"178 148 OFFCURVE",
"178 264 CURVE SMOOTH",
"178 379 OFFCURVE",
"257 462 OFFCURVE",
"367 462 CURVE SMOOTH"
);
},
{
closed = 1;
nodes = (
"100 742 LINE",
"100 0 LINE",
"178 0 LINE",
"178 742 LINE"
);
}
);
width = 675;
}
);
leftKerningGroup = h;
leftMetricsKey = l;
rightKerningGroup = o;
rightMetricsKey = o;
unicode = 00FE;
},
{
glyphname = q;
layers = (
{
layerId = "89102082-4794-43F6-87DB-199E42FAC5CB";
paths = (
{
closed = 1;
nodes = (
"501 526 LINE",
"501 -194 LINE",
"579 -194 LINE",
"579 526 LINE"
);
},
{
closed = 0;
nodes = (
"430 108 LINE"
);
},
{
closed = 1;
nodes = (
"147 530 OFFCURVE",
"42 421 OFFCURVE",
"42 264 CURVE SMOOTH",
"42 107 OFFCURVE",
"146 -4 OFFCURVE",
"296 -4 CURVE SMOOTH",
"442 -4 OFFCURVE",
"535 101 OFFCURVE",
"535 263 CURVE",
"535 426 OFFCURVE",
"442 530 OFFCURVE",
"295 530 CURVE SMOOTH"
);
},
{
closed = 1;
nodes = (
"422 462 OFFCURVE",
"501 378 OFFCURVE",
"501 262 CURVE SMOOTH",
"501 146 OFFCURVE",
"422 63 OFFCURVE",
"311 63 CURVE SMOOTH",
"199 63 OFFCURVE",
"121 146 OFFCURVE",
"120 262 CURVE SMOOTH",
"121 378 OFFCURVE",
"200 462 OFFCURVE",
"311 462 CURVE SMOOTH"
);
}
);
width = 679;
}
);
leftKerningGroup = o;
rightKerningGroup = q;
unicode = 0071;
},
{
glyphname = r;
layers = (
{
anchors = (
{
name = bottom;
position = "{132, 0}";
},
{
name = top;
position = "{189, 526}";
}
);
layerId = "89102082-4794-43F6-87DB-199E42FAC5CB";
paths = (
{
closed = 1;
nodes = (
"95 526 LINE",
"95 0 LINE",
"173 0 LINE",
"173 526 LINE"
);
},
{
closed = 1;
nodes = (
"226 527 OFFCURVE",
"145 431 OFFCURVE",
"145 258 CURVE",
"172 256 LINE",
"172 375 OFFCURVE",
"243 455 OFFCURVE",
"362 453 CURVE",
"362 529 LINE"
);
}
);
width = 372;
}
);
leftKerningGroup = n;
rightKerningGroup = r;
unicode = 0072;
},
{
glyphname = s;
layers = (
{
anchors = (
{
name = bottom;
position = "{225, 0}";
},
{
name = top;
position = "{230, 526}";
}
);
layerId = "89102082-4794-43F6-87DB-199E42FAC5CB";
paths = (
{
closed = 1;
nodes = (
"138 530 OFFCURVE",
"51 487 OFFCURVE",
"51 387 CURVE SMOOTH",
"51 201 OFFCURVE",
"345 266 OFFCURVE",
"343 138 CURVE SMOOTH",
"342 85 OFFCURVE",
"291 61 OFFCURVE",
"230 61 CURVE SMOOTH",
"168 61 OFFCURVE",
"99 86 OFFCURVE",
"54 128 CURVE",
"24 71 LINE",
"74 23 OFFCURVE",
"151 -3 OFFCURVE",
"227 -3 CURVE SMOOTH",
"327 -3 OFFCURVE",
"419 43 OFFCURVE",
"419 146 CURVE SMOOTH",
"420 335 OFFCURVE",
"126 274 OFFCURVE",
"126 393 CURVE SMOOTH",
"126 443 OFFCURVE",
"171 464 OFFCURVE",
"230 464 CURVE SMOOTH",
"278 464 OFFCURVE",
"331 448 OFFCURVE",
"373 422 CURVE",
"402 482 LINE",
"358 511 OFFCURVE",
"297 530 OFFCURVE",
"235 530 CURVE SMOOTH"
);
}
);
width = 453;
}
);
leftKerningGroup = s;
rightKerningGroup = s;
unicode = 0073;
},
{
glyphname = germandbls;
layers = (
{
layerId = "89102082-4794-43F6-87DB-199E42FAC5CB";
paths = (
{
closed = 1;
nodes = (
"183 745 OFFCURVE",
"90 645 OFFCURVE",
"90 490 CURVE SMOOTH",
"90 0 LINE",
"167 0 LINE",
"167 495 LINE SMOOTH",
"167 608 OFFCURVE",
"231 680 OFFCURVE",
"331 680 CURVE SMOOTH",
"419 680 OFFCURVE",
"477 627 OFFCURVE",
"477 545 CURVE SMOOTH",
"477 459 OFFCURVE",
"413 402 OFFCURVE",
"314 402 CURVE",
"314 340 LINE",
"324 340 LINE",
"440 340 OFFCURVE",
"515 288 OFFCURVE",
"515 203 CURVE SMOOTH",
"515 120 OFFCURVE",
"447 63 OFFCURVE",
"343 63 CURVE SMOOTH",
"285 63 LINE",
"285 0 LINE",
"338 0 LINE SMOOTH",
"492 0 OFFCURVE",
"591 84 OFFCURVE",
"591 206 CURVE SMOOTH",
"591 302 OFFCURVE",
"522 363 OFFCURVE",
"424 380 CURVE",
"502 403 OFFCURVE",
"552 472 OFFCURVE",
"552 556 CURVE SMOOTH",
"552 671 OFFCURVE",
"463 745 OFFCURVE",
"332 745 CURVE SMOOTH"
);
}
);
width = 649;
}
);
leftKerningGroup = f;
leftMetricsKey = U;
rightKerningGroup = B;
rightMetricsKey = B;
unicode = 00DF;
},
{
glyphname = t;
layers = (
{
anchors = (
{
name = bottom;
position = "{235, 0}";
},
{
name = center;
position = "{195, 264}";
}
);
layerId = "89102082-4794-43F6-87DB-199E42FAC5CB";
paths = (
{
closed = 1;
nodes = (
"114 648 LINE",
"114 146 LINE",
"114 42 OFFCURVE",
"171 -4 OFFCURVE",
"248 -3 CURVE",
"290 -3 OFFCURVE",
"330 11 OFFCURVE",
"368 36 CURVE",
"345 96 LINE",
"316 79 OFFCURVE",
"288 70 OFFCURVE",
"261 69 CURVE",
"216 69 OFFCURVE",
"191 95 OFFCURVE",
"191 159 CURVE",
"191 648 LINE"
);
},
{
closed = 1;
nodes = (
"38 510 LINE",
"38 449 LINE",
"358 449 LINE",
"358 510 LINE"
);
}
);
width = 390;
}
);
leftKerningGroup = u;
rightKerningGroup = t;
unicode = 0074;
},
{
glyphname = tbar;
layers = (
{
anchors = (
{
name = bottom;
position = "{235, 0}";
},
{
name = center;
position = "{195, 264}";
}
);
layerId = "89102082-4794-43F6-87DB-199E42FAC5CB";
paths = (
{
closed = 1;
nodes = (
"114 648 LINE",
"114 146 LINE",
"114 42 OFFCURVE",
"171 -4 OFFCURVE",
"248 -3 CURVE",
"290 -3 OFFCURVE",
"330 11 OFFCURVE",
"368 36 CURVE",
"345 96 LINE",
"316 79 OFFCURVE",
"288 70 OFFCURVE",
"261 69 CURVE",
"216 69 OFFCURVE",
"191 95 OFFCURVE",
"191 159 CURVE",
"191 648 LINE"
);
},
{
closed = 1;
nodes = (
"38 510 LINE",
"38 449 LINE",
"358 449 LINE",
"358 510 LINE"
);
},
{
closed = 1;
nodes = (
"38 327 LINE",
"38 266 LINE",
"358 266 LINE",
"358 327 LINE"
);
}
);
width = 390;
}
);
leftKerningGroup = t;
rightKerningGroup = t;
unicode = 0167;
},
{
glyphname = u;
layers = (
{
anchors = (
{
name = ogonek;
position = "{584, 10}";
},
{
name = top;
position = "{320, 526}";
}
);
layerId = "89102082-4794-43F6-87DB-199E42FAC5CB";
paths = (
{
closed = 1;
nodes = (
"552 0 LINE",
"552 526 LINE",
"474 526 LINE",
"474 0 LINE"
);
},
{
closed = 1;
nodes = (
"414 -1 OFFCURVE",
"499 83 OFFCURVE",
"499 268 CURVE",
"474 268 LINE",
"474 154 OFFCURVE",
"410 74 OFFCURVE",
"301 72 CURVE",
"210 72 OFFCURVE",
"155 128 OFFCURVE",
"155 222 CURVE",
"155 526 LINE SMOOTH",
"77 526 LINE",
"77 202 LINE",
"77 75 OFFCURVE",
"150 -3 OFFCURVE",
"274 -3 CURVE"
);
}
);
width = 647;
}
);
leftKerningGroup = u;
rightKerningGroup = i;
unicode = 0075;
},
{
glyphname = uogonek;
layers = (
{
layerId = "89102082-4794-43F6-87DB-199E42FAC5CB";
paths = (
{
closed = 1;
nodes = (
"475 526 LINE",
"475 243 LINE",
"467 142 OFFCURVE",
"402 74 OFFCURVE",
"302 72 CURVE SMOOTH",
"211 72 OFFCURVE",
"154 127 OFFCURVE",
"154 222 CURVE SMOOTH",
"154 526 LINE",
"77 526 LINE",
"77 202 LINE SMOOTH",
"77 75 OFFCURVE",
"149 -2 OFFCURVE",
"274 -2 CURVE SMOOTH",
"371 -2 OFFCURVE",
"440 38 OFFCURVE",
"475 116 CURVE",
"475 2 LINE",
"494 2 LINE",
"452 -54 OFFCURVE",
"435 -92 OFFCURVE",
"435 -127 CURVE SMOOTH",
"435 -178 OFFCURVE",
"473 -200 OFFCURVE",
"508 -200 CURVE SMOOTH",
"541 -200 OFFCURVE",
"573 -181 OFFCURVE",
"595 -150 CURVE",
"570 -120 LINE",
"553 -140 OFFCURVE",
"536 -153 OFFCURVE",
"516 -153 CURVE SMOOTH",
"496 -153 OFFCURVE",
"481 -141 OFFCURVE",
"481 -115 CURVE SMOOTH",
"481 -91 OFFCURVE",
"493 -55 OFFCURVE",
"537 0 CURVE",
"553 0 LINE",
"553 526 LINE"
);
}
);
width = 644;
}
);
leftKerningGroup = u;
leftMetricsKey = u;
rightKerningGroup = u;
unicode = 0173;
},
{
glyphname = v;
layers = (
{
layerId = "89102082-4794-43F6-87DB-199E42FAC5CB";
paths = (
{
closed = 1;
nodes = (
"421 526 LINE",
"255 79 LINE",
"86 526 LINE",
"4 526 LINE",
"212 0 LINE",
"293 0 LINE",
"501 526 LINE"
);
}
);
width = 498;
}
);
leftKerningGroup = v;
rightKerningGroup = v;
unicode = 0076;
},
{
glyphname = w;
layers = (
{
anchors = (
{
name = top;
position = "{432, 526}";
}
);
layerId = "89102082-4794-43F6-87DB-199E42FAC5CB";
paths = (
{
closed = 1;
nodes = (
"786 526 LINE",
"632 79 LINE",
"477 526 LINE",
"395 526 LINE",
"242 79 LINE",
"86 526 LINE",
"4 526 LINE",
"200 0 LINE",
"281 0 LINE",
"436 431 LINE",
"590 0 LINE",
"671 0 LINE",
"866 526 LINE"
);
}
);
width = 864;
}
);
leftKerningGroup = v;
rightKerningGroup = v;
unicode = 0077;
},
{
glyphname = x;
layers = (
{
layerId = "89102082-4794-43F6-87DB-199E42FAC5CB";
paths = (
{
closed = 1;
nodes = (
"35 526 LINE",
"213 271 LINE",
"21 0 LINE",
"109 0 LINE",
"264 216 LINE",
"415 0 LINE",
"505 0 LINE",
"316 271 LINE",
"492 526 LINE",
"406 526 LINE",
"265 325 LINE",
"125 526 LINE"
);
}
);
width = 529;
}
);
leftKerningGroup = x;
rightKerningGroup = x;
unicode = 0078;
},
{
glyphname = y;
layers = (
{
anchors = (
{
name = top;
position = "{254, 526}";
}
);
layerId = "89102082-4794-43F6-87DB-199E42FAC5CB";
paths = (
{
closed = 1;
nodes = (
"425 526 LINE",
"258 88 LINE",
"82 526 LINE",
"1 526 LINE",
"218 4 LINE",
"197 -46 LINE SMOOTH",
"176 -96 OFFCURVE",
"142 -122 OFFCURVE",
"101 -122 CURVE SMOOTH",
"74 -122 OFFCURVE",
"51 -114 OFFCURVE",
"27 -97 CURVE",
"-7 -159 LINE",
"25 -185 OFFCURVE",
"61 -197 OFFCURVE",
"104 -197 CURVE SMOOTH",
"175 -197 OFFCURVE",
"230 -155 OFFCURVE",
"263 -75 CURVE SMOOTH",
"505 526 LINE"
);
}
);
width = 502;
}
);
leftKerningGroup = v;
rightKerningGroup = v;
unicode = 0079;
},
{
glyphname = z;
layers = (
{
anchors = (
{
name = top;
position = "{263, 526}";
}
);
layerId = "89102082-4794-43F6-87DB-199E42FAC5CB";
paths = (
{
closed = 1;
nodes = (
"61 526 LINE",
"61 461 LINE",
"382 460 LINE",
"52 58 LINE",
"52 0 LINE",
"484 -1 LINE",
"484 65 LINE",
"146 66 LINE",
"476 468 LINE",
"476 526 LINE"
);
}
);
width = 526;
}
);
leftKerningGroup = z;
rightKerningGroup = z;
unicode = 007A;
},
{
glyphname = a.ss01;
layers = (
{
anchors = (
{
name = ogonek;
position = "{623, 10}";
},
{
name = top;
position = "{333, 526}";
}
);
layerId = "89102082-4794-43F6-87DB-199E42FAC5CB";
paths = (
{
closed = 1;
nodes = (
"500 526 LINE",
"500 0 LINE",
"577 0 LINE",
"577 526 LINE"
);
},
{
closed = 1;
nodes = (
"145 530 OFFCURVE",
"42 420 OFFCURVE",
"42 264 CURVE SMOOTH",
"42 107 OFFCURVE",
"146 -4 OFFCURVE",
"296 -4 CURVE SMOOTH",
"442 -4 OFFCURVE",
"535 101 OFFCURVE",
"535 263 CURVE",
"535 426 OFFCURVE",
"441 531 OFFCURVE",
"294 530 CURVE SMOOTH"
);
},
{
closed = 1;
nodes = (
"422 462 OFFCURVE",
"500 378 OFFCURVE",
"501 262 CURVE SMOOTH",
"500 146 OFFCURVE",
"422 63 OFFCURVE",
"311 63 CURVE SMOOTH",
"199 63 OFFCURVE",
"121 146 OFFCURVE",
"120 262 CURVE SMOOTH",
"121 378 OFFCURVE",
"200 462 OFFCURVE",
"311 462 CURVE SMOOTH"
);
}
);
width = 672;
}
);
leftKerningGroup = o;
leftMetricsKey = o;
rightKerningGroup = dotlessi;
rightMetricsKey = dotlessi;
},
{
glyphname = ae.ss01;
layers = (
{
anchors = (
{
name = top;
position = "{481, 526}";
}
);
layerId = "89102082-4794-43F6-87DB-199E42FAC5CB";
paths = (
{
closed = 0;
nodes = (
"554 124 LINE"
);
},
{
closed = 1;
nodes = (
"248 307 LINE",
"124 306 OFFCURVE",
"50 248 OFFCURVE",
"50 156 CURVE",
"50 66 OFFCURVE",
"121 -3 OFFCURVE",
"230 -3 CURVE",
"344 -3 OFFCURVE",
"429 46 OFFCURVE",
"472 150 CURVE",
"430 198 LINE",
"411 110 OFFCURVE",
"339 62 OFFCURVE",
"245 62 CURVE",
"171 62 OFFCURVE",
"124 101 OFFCURVE",
"124 159 CURVE",
"124 218 OFFCURVE",
"170 245 OFFCURVE",
"259 245 CURVE",
"436 245 LINE",
"436 307 LINE"
);
},
{
closed = 1;
nodes = (
"112 403 LINE",
"167 442 OFFCURVE",
"221 464 OFFCURVE",
"279 464 CURVE",
"374 464 OFFCURVE",
"421 417 OFFCURVE",
"422 339 CURVE",
"422 188 LINE",
"499 188 LINE",
"499 348 LINE",
"498 460 OFFCURVE",
"425 529 OFFCURVE",
"295 529 CURVE",
"204 529 OFFCURVE",
"147 503 OFFCURVE",
"79 458 CURVE"
);
},
{
closed = 1;
nodes = (
"824 90 OFFCURVE",
"767 62 OFFCURVE",
"702 62 CURVE SMOOTH",
"588 62 OFFCURVE",
"507 146 OFFCURVE",
"507 267 CURVE SMOOTH",
"507 389 OFFCURVE",
"583 463 OFFCURVE",
"694 463 CURVE SMOOTH",
"769 463 OFFCURVE",
"826 430 OFFCURVE",
"853 363 CURVE",
"492 238 LINE",
"497 176 LINE",
"931 324 LINE",
"914 452 OFFCURVE",
"821 530 OFFCURVE",
"691 529 CURVE SMOOTH",
"534 528 OFFCURVE",
"430 417 OFFCURVE",
"430 264 CURVE SMOOTH",
"430 106 OFFCURVE",
"540 -3 OFFCURVE",
"697 -3 CURVE SMOOTH",
"785 -3 OFFCURVE",
"860 32 OFFCURVE",
"918 104 CURVE",
"870 146 LINE"
);
}
);
width = 969;
}
);
leftKerningGroup = ae.ss01;
leftMetricsKey = a;
rightKerningGroup = ae.ss01;
rightMetricsKey = e;
},
{
glyphname = e.ss01;
layers = (
{
anchors = (
{
name = bottom;
position = "{300, 0}";
},
{
name = ogonek;
position = "{539, 10}";
},
{
name = top;
position = "{300, 526}";
}
);
layerId = "89102082-4794-43F6-87DB-199E42FAC5CB";
paths = (
{
closed = 1;
nodes = (
"109 176 LINE",
"543 324 LINE",
"526 452 OFFCURVE",
"433 530 OFFCURVE",
"303 529 CURVE SMOOTH",
"146 528 OFFCURVE",
"42 417 OFFCURVE",
"42 264 CURVE SMOOTH",
"42 106 OFFCURVE",
"152 -3 OFFCURVE",
"309 -3 CURVE SMOOTH",
"397 -3 OFFCURVE",
"472 32 OFFCURVE",
"530 104 CURVE",
"482 146 LINE",
"437 90 OFFCURVE",
"379 62 OFFCURVE",
"314 62 CURVE SMOOTH",
"200 62 OFFCURVE",
"120 146 OFFCURVE",
"120 267 CURVE SMOOTH",
"120 389 OFFCURVE",
"195 463 OFFCURVE",
"307 463 CURVE SMOOTH",
"381 463 OFFCURVE",
"438 430 OFFCURVE",
"465 363 CURVE",
"104 238 LINE"
);
}
);
width = 596;
}
);
leftKerningGroup = o;
leftMetricsKey = o;
rightKerningGroup = e;
},
{
glyphname = eogonek.ss01;
layers = (
{
layerId = "89102082-4794-43F6-87DB-199E42FAC5CB";
paths = (
{
closed = 1;
nodes = (
"200 62 OFFCURVE",
"120 146 OFFCURVE",
"120 267 CURVE SMOOTH",
"120 389 OFFCURVE",
"195 463 OFFCURVE",
"307 463 CURVE SMOOTH",
"381 463 OFFCURVE",
"438 430 OFFCURVE",
"465 363 CURVE",
"104 238 LINE",
"109 176 LINE",
"543 324 LINE",
"526 452 OFFCURVE",
"433 530 OFFCURVE",
"303 529 CURVE SMOOTH",
"146 528 OFFCURVE",
"42 417 OFFCURVE",
"42 264 CURVE SMOOTH",
"42 106 OFFCURVE",
"152 -3 OFFCURVE",
"309 -3 CURVE",
"358 -3 OFFCURVE",
"403 12 OFFCURVE",
"441 37 CURVE",
"393 -29 OFFCURVE",
"374 -81 OFFCURVE",
"374 -126 CURVE SMOOTH",
"374 -176 OFFCURVE",
"409 -200 OFFCURVE",
"447 -200 CURVE SMOOTH",
"480 -200 OFFCURVE",
"511 -180 OFFCURVE",
"533 -150 CURVE",
"507 -120 LINE",
"492 -140 OFFCURVE",
"473 -153 OFFCURVE",
"455 -153 CURVE SMOOTH",
"435 -153 OFFCURVE",
"419 -139 OFFCURVE",
"419 -115 CURVE SMOOTH",
"419 -66 OFFCURVE",
"453 1 OFFCURVE",
"520 84 CURVE",
"478 130 LINE",
"437 86 OFFCURVE",
"379 62 OFFCURVE",
"314 62 CURVE"
);
}
);
width = 596;
}
);
leftKerningGroup = o;
rightKerningGroup = e;
},
{
glyphname = f.ss01;
layers = (
{
layerId = "89102082-4794-43F6-87DB-199E42FAC5CB";
paths = (
{
closed = 1;
nodes = (
"164 749 OFFCURVE",
"83 687 OFFCURVE",
"83 573 CURVE",
"83 0 LINE",
"160 0 LINE",
"160 582 LINE",
"160 644 OFFCURVE",
"202 679 OFFCURVE",
"253 679 CURVE",
"281 678 OFFCURVE",
"310 668 OFFCURVE",
"333 651 CURVE",
"365 712 LINE",
"333 736 OFFCURVE",
"292 748 OFFCURVE",
"252 749 CURVE"
);
},
{
closed = 1;
nodes = (
"91 510 LINE",
"91 449 LINE",
"311 449 LINE",
"311 510 LINE"
);
}
);
width = 304;
}
);
leftKerningGroup = f.ss01;
rightKerningGroup = f.ss01;
},
{
glyphname = g.ss01;
layers = (
{
anchors = (
{
name = top;
position = "{314, 526}";
}
);
layerId = "89102082-4794-43F6-87DB-199E42FAC5CB";
paths = (
{
closed = 1;
nodes = (
"477 526 LINE",
"477 53 LINE",
"477 -58 OFFCURVE",
"402 -130 OFFCURVE",
"287 -129 CURVE",
"213 -126 OFFCURVE",
"152 -83 OFFCURVE",
"122 -22 CURVE",
"77 -69 LINE",
"110 -145 OFFCURVE",
"194 -194 OFFCURVE",
"290 -196 CURVE",
"450 -197 OFFCURVE",
"554 -99 OFFCURVE",
"554 55 CURVE",
"554 526 LINE"
);
},
{
closed = 1;
nodes = (
"140 528 OFFCURVE",
"42 425 OFFCURVE",
"42 277 CURVE SMOOTH",
"42 128 OFFCURVE",
"140 23 OFFCURVE",
"282 23 CURVE SMOOTH",
"421 23 OFFCURVE",
"509 122 OFFCURVE",
"509 276 CURVE",
"509 431 OFFCURVE",
"420 530 OFFCURVE",
"280 529 CURVE SMOOTH"
);
},
{
closed = 1;
nodes = (
"401 464 OFFCURVE",
"476 385 OFFCURVE",
"476 275 CURVE SMOOTH",
"476 166 OFFCURVE",
"401 87 OFFCURVE",
"296 87 CURVE SMOOTH",
"190 87 OFFCURVE",
"116 166 OFFCURVE",
"115 275 CURVE SMOOTH",
"116 385 OFFCURVE",
"190 464 OFFCURVE",
"296 464 CURVE SMOOTH"
);
}
);
width = 637;
}
);
leftKerningGroup = o;
leftMetricsKey = o;
rightKerningGroup = j;
rightMetricsKey = j;
},
{
glyphname = l.ss01;
layers = (
{
anchors = (
{
name = bottom;
position = "{146, 0}";
},
{
name = top;
position = "{146, 526}";
},
{
name = topright;
position = "{272, 526}";
}
);
layerId = "89102082-4794-43F6-87DB-199E42FAC5CB";
paths = (
{
closed = 1;
nodes = (
"86 126 LINE SMOOTH",
"86 41 OFFCURVE",
"132 -3 OFFCURVE",
"195 -3 CURVE SMOOTH",
"224 -3 OFFCURVE",
"254 8 OFFCURVE",
"284 28 CURVE",
"269 91 LINE",
"250 77 OFFCURVE",
"231 69 OFFCURVE",
"214 69 CURVE SMOOTH",
"182 69 OFFCURVE",
"163 90 OFFCURVE",
"163 135 CURVE SMOOTH",
"163 742 LINE",
"86 742 LINE"
);
}
);
width = 290;
}
);
leftKerningGroup = l.ss01;
rightKerningGroup = l.ss01;
},
{
glyphname = oe.ss01;
layers = (
{
anchors = (
{
name = bottom;
position = "{917, 0}";
},
{
name = ogonek;
position = "{1157, 10}";
},
{
name = top;
position = "{917, 526}";
}
);
layerId = "89102082-4794-43F6-87DB-199E42FAC5CB";
paths = (
{
closed = 1;
nodes = (
"153 529 OFFCURVE",
"42 420 OFFCURVE",
"42 264 CURVE SMOOTH",
"42 106 OFFCURVE",
"153 -3 OFFCURVE",
"309 -3 CURVE SMOOTH",
"461 -3 OFFCURVE",
"563 106 OFFCURVE",
"563 264 CURVE SMOOTH",
"563 420 OFFCURVE",
"461 529 OFFCURVE",
"309 529 CURVE SMOOTH"
);
},
{
closed = 1;
nodes = (
"420 460 OFFCURVE",
"498 379 OFFCURVE",
"498 263 CURVE SMOOTH",
"498 145 OFFCURVE",
"420 65 OFFCURVE",
"309 65 CURVE SMOOTH",
"199 65 OFFCURVE",
"120 145 OFFCURVE",
"120 263 CURVE SMOOTH",
"120 379 OFFCURVE",
"199 460 OFFCURVE",
"309 460 CURVE SMOOTH"
);
},
{
closed = 1;
nodes = (
"606 528 OFFCURVE",
"510 417 OFFCURVE",
"510 264 CURVE SMOOTH",
"510 106 OFFCURVE",
"612 -3 OFFCURVE",
"765 -3 CURVE SMOOTH",
"853 -3 OFFCURVE",
"927 32 OFFCURVE",
"985 104 CURVE",
"938 146 LINE",
"892 90 OFFCURVE",
"835 62 OFFCURVE",
"770 62 CURVE SMOOTH",
"655 62 OFFCURVE",
"576 146 OFFCURVE",
"576 267 CURVE SMOOTH",
"576 389 OFFCURVE",
"651 463 OFFCURVE",
"762 463 CURVE SMOOTH",
"837 463 OFFCURVE",
"894 430 OFFCURVE",
"921 363 CURVE",
"559 238 LINE",
"565 176 LINE",
"999 324 LINE",
"982 452 OFFCURVE",
"888 530 OFFCURVE",
"759 529 CURVE SMOOTH"
);
}
);
width = 1052;
}
);
leftKerningGroup = o;
leftMetricsKey = "=o";
rightKerningGroup = o;
rightMetricsKey = e.ss01;
},
{
glyphname = t.ss01;
layers = (
{
anchors = (
{
name = bottom;
position = "{196, 0}";
},
{
name = center;
position = "{162, 264}";
}
);
layerId = "89102082-4794-43F6-87DB-199E42FAC5CB";
paths = (
{
closed = 1;
nodes = (
"81 648 LINE",
"81 166 LINE",
"81 53 OFFCURVE",
"137 -4 OFFCURVE",
"217 -3 CURVE",
"256 -3 OFFCURVE",
"297 11 OFFCURVE",
"335 36 CURVE",
"312 96 LINE",
"283 79 OFFCURVE",
"255 70 OFFCURVE",
"230 69 CURVE",
"183 69 OFFCURVE",
"158 104 OFFCURVE",
"158 179 CURVE",
"158 648 LINE"
);
},
{
closed = 1;
nodes = (
"102 510 LINE",
"102 449 LINE",
"325 449 LINE",
"325 510 LINE"
);
}
);
width = 357;
}
);
leftKerningGroup = u;
rightKerningGroup = t;
rightMetricsKey = t;
},
{
glyphname = tbar.ss01;
layers = (
{
anchors = (
{
name = bottom;
position = "{196, 0}";
},
{
name = center;
position = "{162, 264}";
}
);
layerId = "89102082-4794-43F6-87DB-199E42FAC5CB";
paths = (
{
closed = 1;
nodes = (
"81 648 LINE",
"81 166 LINE",
"81 53 OFFCURVE",
"137 -4 OFFCURVE",
"217 -3 CURVE",
"256 -3 OFFCURVE",
"297 11 OFFCURVE",
"335 36 CURVE",
"312 96 LINE",
"283 79 OFFCURVE",
"255 70 OFFCURVE",
"230 69 CURVE",
"183 69 OFFCURVE",
"158 104 OFFCURVE",
"158 179 CURVE",
"158 648 LINE"
);
},
{
closed = 1;
nodes = (
"102 510 LINE",
"102 449 LINE",
"325 449 LINE",
"325 510 LINE"
);
},
{
closed = 1;
nodes = (
"102 327 LINE",
"102 266 LINE",
"325 266 LINE",
"325 327 LINE"
);
}
);
width = 357;
}
);
leftKerningGroup = tbar.ss01;
rightKerningGroup = tbar.ss01;
},
{
glyphname = w.ss01;
layers = (
{
anchors = (
{
name = top;
position = "{483, 526}";
}
);
layerId = "89102082-4794-43F6-87DB-199E42FAC5CB";
paths = (
{
closed = 1;
nodes = (
"812 526 LINE",
"812 213 LINE SMOOTH",
"812 127 OFFCURVE",
"755 72 OFFCURVE",
"669 72 CURVE SMOOTH",
"581 72 OFFCURVE",
"522 127 OFFCURVE",
"522 213 CURVE SMOOTH",
"522 526 LINE",
"444 526 LINE",
"444 213 LINE SMOOTH",
"444 127 OFFCURVE",
"387 72 OFFCURVE",
"298 72 CURVE SMOOTH",
"211 72 OFFCURVE",
"154 127 OFFCURVE",
"154 213 CURVE SMOOTH",
"154 526 LINE",
"76 526 LINE",
"76 210 LINE SMOOTH",
"76 81 OFFCURVE",
"160 -3 OFFCURVE",
"287 -3 CURVE SMOOTH",
"376 -3 OFFCURVE",
"455 44 OFFCURVE",
"483 116 CURVE",
"513 44 OFFCURVE",
"591 -3 OFFCURVE",
"680 -3 CURVE SMOOTH",
"806 -3 OFFCURVE",
"890 81 OFFCURVE",
"890 210 CURVE SMOOTH",
"890 526 LINE"
);
}
);
width = 965;
}
);
leftKerningGroup = u;
rightKerningGroup = w.ss01;
},
{
glyphname = y.ss01;
layers = (
{
anchors = (
{
name = top;
position = "{317, 526}";
}
);
layerId = "89102082-4794-43F6-87DB-199E42FAC5CB";
paths = (
{
closed = 1;
nodes = (
"433 46 OFFCURVE",
"513 139 OFFCURVE",
"513 321 CURVE",
"482 321 LINE",
"482 197 OFFCURVE",
"416 121 OFFCURVE",
"304 119 CURVE",
"211 119 OFFCURVE",
"155 175 OFFCURVE",
"155 269 CURVE",
"155 526 LINE SMOOTH",
"77 526 LINE",
"77 249 LINE",
"77 122 OFFCURVE",
"152 44 OFFCURVE",
"276 44 CURVE"
);
},
{
closed = 1;
nodes = (
"483 526 LINE",
"483 59 LINE",
"483 -59 OFFCURVE",
"413 -129 OFFCURVE",
"298 -129 CURVE",
"231 -126 OFFCURVE",
"161 -97 OFFCURVE",
"113 -53 CURVE",
"89 -110 LINE",
"142 -161 OFFCURVE",
"226 -194 OFFCURVE",
"306 -196 CURVE",
"463 -197 OFFCURVE",
"560 -100 OFFCURVE",
"560 58 CURVE",
"560 526 LINE"
);
}
);
width = 643;
}
);
leftKerningGroup = u;
leftMetricsKey = u;
rightKerningGroup = j;
rightMetricsKey = g;
},
{
glyphname = z.ss01;
layers = (
{
anchors = (
{
name = top;
position = "{263, 526}";
}
);
layerId = "89102082-4794-43F6-87DB-199E42FAC5CB";
paths = (
{
closed = 1;
nodes = (
"255 295 LINE",
"255 231 LINE",
"440 231 LINE",
"440 295 LINE"
);
},
{
closed = 1;
nodes = (
"90 299 LINE",
"90 235 LINE",
"260 235 LINE",
"260 299 LINE"
);
},
{
closed = 1;
nodes = (
"61 526 LINE",
"61 461 LINE",
"382 460 LINE",
"52 58 LINE",
"52 0 LINE",
"484 -1 LINE",
"484 65 LINE",
"146 66 LINE",
"476 468 LINE",
"476 526 LINE"
);
}
);
width = 526;
}
);
leftKerningGroup = z;
leftMetricsKey = z;
rightKerningGroup = z;
rightMetricsKey = z;
},
{
glyphname = fi;
layers = (
{
components = (
{
name = i;
transform = "{1, 0, 0, 1, 324, 0}";
}
);
layerId = "89102082-4794-43F6-87DB-199E42FAC5CB";
paths = (
{
closed = 1;
nodes = (
"194 749 OFFCURVE",
"111 689 OFFCURVE",
"111 573 CURVE",
"111 0 LINE",
"188 0 LINE",
"188 582 LINE",
"188 645 OFFCURVE",
"229 678 OFFCURVE",
"281 678 CURVE",
"311 678 OFFCURVE",
"344 668 OFFCURVE",
"373 652 CURVE",
"375 722 LINE",
"348 739 OFFCURVE",
"314 748 OFFCURVE",
"280 749 CURVE"
);
},
{
closed = 1;
nodes = (
"43 514 LINE",
"43 452 LINE",
"339 452 LINE",
"339 514 LINE"
);
}
);
width = 591;
}
);
leftKerningGroup = f;
leftMetricsKey = f;
rightKerningGroup = dotlessi;
rightMetricsKey = i;
unicode = FB01;
},
{
glyphname = fl;
layers = (
{
components = (
{
name = l;
transform = "{1, 0, 0, 1, 332, 0}";
}
);
layerId = "89102082-4794-43F6-87DB-199E42FAC5CB";
paths = (
{
closed = 1;
nodes = (
"183 753 OFFCURVE",
"111 681 OFFCURVE",
"111 583 CURVE",
"111 0 LINE",
"188 0 LINE",
"188 572 LINE",
"188 638 OFFCURVE",
"234 686 OFFCURVE",
"294 685 CURVE",
"321 684 OFFCURVE",
"350 674 OFFCURVE",
"374 656 CURVE",
"376 727 LINE",
"350 742 OFFCURVE",
"314 751 OFFCURVE",
"280 752 CURVE"
);
},
{
closed = 1;
nodes = (
"44 514 LINE",
"43 453 LINE",
"339 453 LINE",
"339 514 LINE"
);
}
);
width = 610;
}
);
leftKerningGroup = f;
leftMetricsKey = f;
rightKerningGroup = l;
rightMetricsKey = l;
unicode = FB02;
},
{
glyphname = fi.ss01;
layers = (
{
components = (
{
name = i;
transform = "{1, 0, 0, 1, 304, 0}";
}
);
layerId = "89102082-4794-43F6-87DB-199E42FAC5CB";
paths = (
{
closed = 1;
nodes = (
"166 749 OFFCURVE",
"83 689 OFFCURVE",
"83 573 CURVE",
"83 0 LINE",
"160 0 LINE",
"160 582 LINE",
"160 645 OFFCURVE",
"201 678 OFFCURVE",
"253 678 CURVE",
"283 678 OFFCURVE",
"316 668 OFFCURVE",
"345 652 CURVE",
"347 722 LINE",
"320 739 OFFCURVE",
"286 748 OFFCURVE",
"252 749 CURVE"
);
},
{
closed = 1;
nodes = (
"107 510 LINE",
"107 449 LINE",
"311 449 LINE",
"311 510 LINE"
);
}
);
width = 571;
}
);
leftKerningGroup = f;
leftMetricsKey = f.ss01;
rightKerningGroup = dotlessi;
rightMetricsKey = i;
},
{
glyphname = fl.ss01;
layers = (
{
anchors = (
{
name = caret_1;
position = "{312, 0}";
}
);
layerId = "89102082-4794-43F6-87DB-199E42FAC5CB";
paths = (
{
closed = 1;
nodes = (
"601 -9 LINE",
"582 -23 OFFCURVE",
"563 -31 OFFCURVE",
"546 -31 CURVE SMOOTH",
"514 -31 OFFCURVE",
"495 -10 OFFCURVE",
"495 35 CURVE SMOOTH",
"495 578 LINE SMOOTH",
"495 686 OFFCURVE",
"428 747 OFFCURVE",
"306 748 CURVE SMOOTH",
"181 749 OFFCURVE",
"112 689 OFFCURVE",
"111 579 CURVE SMOOTH",
"111 510 LINE",
"43 510 LINE",
"43 449 LINE",
"111 449 LINE",
"111 0 LINE",
"189 0 LINE",
"189 449 LINE",
"312 449 LINE",
"312 510 LINE",
"189 510 LINE",
"189 583 LINE SMOOTH",
"189 644 OFFCURVE",
"230 680 OFFCURVE",
"302 679 CURVE SMOOTH",
"377 677 OFFCURVE",
"418 639 OFFCURVE",
"418 571 CURVE SMOOTH",
"418 26 LINE SMOOTH",
"418 -59 OFFCURVE",
"464 -103 OFFCURVE",
"527 -103 CURVE SMOOTH",
"556 -103 OFFCURVE",
"586 -92 OFFCURVE",
"616 -72 CURVE"
);
}
);
width = 622;
}
);
leftKerningGroup = f;
leftMetricsKey = f;
rightKerningGroup = l;
rightMetricsKey = l.ss01;
},
{
glyphname = ordfeminine;
layers = (
{
layerId = "89102082-4794-43F6-87DB-199E42FAC5CB";
paths = (
{
closed = 1;
nodes = (
"148 770 OFFCURVE",
"102 755 OFFCURVE",
"58 731 CURVE",
"74 691 LINE",
"110 712 OFFCURVE",
"146 724 OFFCURVE",
"182 724 CURVE",
"237 724 OFFCURVE",
"265 699 OFFCURVE",
"266 656 CURVE",
"267 458 LINE",
"323 458 LINE",
"322 662 LINE",
"323 729 OFFCURVE",
"276 770 OFFCURVE",
"194 770 CURVE"
);
},
{
closed = 1;
nodes = (
"275 634 LINE",
"162 634 LINE",
"86 634 OFFCURVE",
"40 603 OFFCURVE",
"40 548 CURVE",
"40 494 OFFCURVE",
"82 456 OFFCURVE",
"146 456 CURVE",
"210 456 OFFCURVE",
"256 483 OFFCURVE",
"279 538 CURVE",
"267 557 LINE",
"246 514 OFFCURVE",
"210 496 OFFCURVE",
"164 496 CURVE",
"122 496 OFFCURVE",
"95 519 OFFCURVE",
"95 553 CURVE",
"95 585 OFFCURVE",
"123 603 OFFCURVE",
"173 603 CURVE",
"275 603 LINE"
);
}
);
width = 380;
}
);
leftKerningGroup = asterisk;
rightKerningGroup = asterisk;
unicode = 00AA;
},
{
glyphname = ordmasculine;
layers = (
{
layerId = "89102082-4794-43F6-87DB-199E42FAC5CB";
paths = (
{
closed = 1;
nodes = (
"104 770 OFFCURVE",
"36 706 OFFCURVE",
"36 613 CURVE SMOOTH",
"36 520 OFFCURVE",
"104 456 OFFCURVE",
"201 456 CURVE SMOOTH",
"299 456 OFFCURVE",
"367 520 OFFCURVE",
"367 613 CURVE SMOOTH",
"367 706 OFFCURVE",
"299 770 OFFCURVE",
"201 770 CURVE SMOOTH"
);
},
{
closed = 1;
nodes = (
"264 722 OFFCURVE",
"308 677 OFFCURVE",
"308 613 CURVE SMOOTH",
"308 548 OFFCURVE",
"264 503 OFFCURVE",
"201 503 CURVE SMOOTH",
"138 503 OFFCURVE",
"93 548 OFFCURVE",
"93 613 CURVE SMOOTH",
"93 677 OFFCURVE",
"138 722 OFFCURVE",
"201 722 CURVE SMOOTH"
);
}
);
width = 402;
}
);
leftKerningGroup = asterisk;
rightKerningGroup = asterisk;
unicode = 00BA;
},
{
glyphname = Delta;
layers = (
{
layerId = "89102082-4794-43F6-87DB-199E42FAC5CB";
paths = (
{
closed = 1;
nodes = (
"317 700 LINE",
"4 0 LINE",
"88 0 LINE",
"357 613 LINE",
"627 0 LINE",
"713 0 LINE",
"400 700 LINE"
);
},
{
closed = 1;
nodes = (
"72 65 LINE",
"72 0 LINE",
"641 0 LINE",
"641 65 LINE"
);
}
);
width = 718;
}
);
leftKerningGroup = A;
rightKerningGroup = A;
unicode = 0394;
},
{
glyphname = Omega;
layers = (
{
anchors = (
{
name = topleft;
position = "{20, 700}";
}
);
layerId = "89102082-4794-43F6-87DB-199E42FAC5CB";
paths = (
{
closed = 1;
nodes = (
"243 703 OFFCURVE",
"91 559 OFFCURVE",
"91 365 CURVE SMOOTH",
"91 253 OFFCURVE",
"154 133 OFFCURVE",
"243 69 CURVE",
"11 69 LINE",
"11 0 LINE",
"333 0 LINE",
"333 65 LINE",
"234 120 OFFCURVE",
"163 243 OFFCURVE",
"163 358 CURVE SMOOTH",
"163 516 OFFCURVE",
"284 631 OFFCURVE",
"450 631 CURVE SMOOTH",
"616 631 OFFCURVE",
"738 516 OFFCURVE",
"738 358 CURVE SMOOTH",
"738 243 OFFCURVE",
"666 120 OFFCURVE",
"568 66 CURVE",
"568 0 LINE",
"889 0 LINE",
"889 69 LINE",
"658 69 LINE",
"747 133 OFFCURVE",
"810 254 OFFCURVE",
"810 365 CURVE SMOOTH",
"810 559 OFFCURVE",
"657 703 OFFCURVE",
"450 703 CURVE SMOOTH"
);
}
);
width = 899;
}
);
leftMetricsKey = T;
rightMetricsKey = T;
unicode = 03A9;
},
{
glyphname = pi;
layers = (
{
layerId = "89102082-4794-43F6-87DB-199E42FAC5CB";
paths = (
{
closed = 1;
nodes = (
"163 526 LINE",
"66 526 OFFCURVE",
"-7 461 OFFCURVE",
"-6 376 CURVE",
"-5 337 OFFCURVE",
"9 292 OFFCURVE",
"31 259 CURVE",
"86 283 LINE",
"68 308 OFFCURVE",
"58 338 OFFCURVE",
"57 364 CURVE",
"56 421 OFFCURVE",
"105 464 OFFCURVE",
"171 464 CURVE",
"713 464 LINE",
"714 526 LINE"
);
},
{
closed = 1;
nodes = (
"486 483 LINE",
"486 0 LINE",
"552 0 LINE",
"552 483 LINE"
);
},
{
closed = 1;
nodes = (
"238 483 LINE",
"183 0 LINE",
"249 0 LINE",
"305 483 LINE"
);
}
);
width = 722;
}
);
unicode = 03C0;
},
{
glyphname = "aaMatra-gurmukhi";
layers = (
{
anchors = (
{
name = bindu;
position = "{122, 680}";
},
{
name = candra;
position = "{122, 690}";
},
{
name = top;
position = "{122, 670}";
}
);
layerId = "89102082-4794-43F6-87DB-199E42FAC5CB";
paths = (
{
closed = 1;
nodes = (
"160 289 LINE",
"160 617 LINE",
"257 617 LINE",
"257 685 LINE",
"0 685 LINE",
"0 617 LINE",
"84 617 LINE",
"84 289 LINE"
);
}
);
width = 257;
}
);
unicode = 0A3E;
},
{
glyphname = "iMatra-gurmukhi";
layers = (
{
anchors = (
{
name = bindu;
position = "{526, 670}";
},
{
name = candra;
position = "{674, 690}";
}
);
layerId = "89102082-4794-43F6-87DB-199E42FAC5CB";
paths = (
{
closed = 1;
nodes = (
"158 617 LINE",
"158 745 LINE SMOOTH",
"158 821 OFFCURVE",
"190 857 OFFCURVE",
"252 857 CURVE SMOOTH",
"325 857 OFFCURVE",
"370 812 OFFCURVE",
"406 755 CURVE",
"458 785 LINE",
"402 884 OFFCURVE",
"325 924 OFFCURVE",
"244 924 CURVE SMOOTH",
"145 924 OFFCURVE",
"83 860 OFFCURVE",
"83 750 CURVE SMOOTH",
"83 685 LINE",
"0 685 LINE",
"0 617 LINE"
);
},
{
closed = 1;
nodes = (
"158 0 LINE",
"158 650 LINE",
"137 617 LINE",
"254 617 LINE",
"254 685 LINE",
"81 685 LINE",
"81 0 LINE"
);
}
);
width = 254;
}
);
unicode = 0A3F;
},
{
glyphname = "iiMatra-gurmukhi";
layers = (
{
anchors = (
{
name = bindu;
position = "{234, 670}";
},
{
name = candra;
position = "{386, 690}";
}
);
layerId = "89102082-4794-43F6-87DB-199E42FAC5CB";
paths = (
{
closed = 1;
nodes = (
"157 617 LINE",
"157 733 LINE SMOOTH",
"157 846 OFFCURVE",
"90 924 OFFCURVE",
"-13 924 CURVE SMOOTH",
"-105 924 OFFCURVE",
"-154 867 OFFCURVE",
"-168 783 CURVE",
"-104 756 LINE",
"-92 809 OFFCURVE",
"-70 857 OFFCURVE",
"-7 857 CURVE SMOOTH",
"55 857 OFFCURVE",
"82 811 OFFCURVE",
"82 740 CURVE SMOOTH",
"82 648 LINE",
"117 685 LINE",
"-22 685 LINE",
"-22 617 LINE"
);
},
{
closed = 1;
nodes = (
"157 0 LINE",
"157 650 LINE",
"136 617 LINE",
"253 617 LINE",
"253 685 LINE",
"80 685 LINE",
"80 0 LINE"
);
}
);
width = 253;
}
);
rightMetricsKey = "STEM-GURM";
unicode = 0A40;
},
{
glyphname = "a-gurmukhi";
layers = (
{
anchors = (
{
name = bindu;
position = "{687, 685}";
},
{
name = candra;
position = "{687, 695}";
},
{
name = top;
position = "{687, 675}";
}
);
layerId = "89102082-4794-43F6-87DB-199E42FAC5CB";
paths = (
{
closed = 1;
nodes = (
"464 190 OFFCURVE",
"491 280 OFFCURVE",
"491 373 CURVE SMOOTH",
"491 522 OFFCURVE",
"421 603 OFFCURVE",
"315 603 CURVE SMOOTH",
"245 603 OFFCURVE",
"194 567 OFFCURVE",
"165 505 CURVE",
"187 518 LINE",
"167 635 OFFCURVE",
"93 685 OFFCURVE",
"6 685 CURVE SMOOTH",
"-8 685 LINE",
"-8 617 LINE",
"12 617 LINE SMOOTH",
"106 617 OFFCURVE",
"137 503 OFFCURVE",
"131 423 CURVE",
"146 489 LINE",
"110 410 OFFCURVE",
"80 318 OFFCURVE",
"69 202 CURVE",
"133 185 LINE",
"183 297 OFFCURVE",
"203 366 OFFCURVE",
"202 447 CURVE",
"193 387 LINE",
"213 492 OFFCURVE",
"265 530 OFFCURVE",
"321 530 CURVE SMOOTH",
"404 530 OFFCURVE",
"426 444 OFFCURVE",
"423 337 CURVE",
"434 415 LINE",
"374 303 OFFCURVE",
"358 186 OFFCURVE",
"352 94 CURVE",
"417 84 LINE"
);
},
{
closed = 1;
nodes = (
"691 335 LINE",
"691 403 LINE",
"447 403 LINE",
"446 335 LINE"
);
},
{
closed = 1;
nodes = (
"735 0 LINE",
"735 650 LINE",
"714 617 LINE",
"831 617 LINE",
"831 685 LINE",
"658 685 LINE",
"658 0 LINE"
);
}
);
width = 831;
}
);
rightMetricsKey = "STEM-GURM";
unicode = 0A05;
},
{
glyphname = "ee-gurmukhi";
layers = (
{
anchors = (
{
name = _top;
position = "{478, 670}";
},
{
name = bindu;
position = "{609, 680}";
},
{
name = bottom;
position = "{370, 2}";
},
{
name = candra;
position = "{679, 690}";
},
{
name = caret_1;
position = "{365, 30}";
},
{
name = nukta;
position = "{98, -22}";
},
{
name = top;
position = "{543, 670}";
}
);
components = (
{
name = "iri-gurmukhi";
}
);
layerId = "89102082-4794-43F6-87DB-199E42FAC5CB";
paths = (
{
closed = 1;
nodes = (
"509 655 LINE",
"509 821 OFFCURVE",
"415 926 OFFCURVE",
"240 926 CURVE SMOOTH",
"196 926 OFFCURVE",
"150 919 OFFCURVE",
"113 906 CURVE",
"129 843 LINE",
"165 853 OFFCURVE",
"207 859 OFFCURVE",
"248 859 CURVE SMOOTH",
"393 859 OFFCURVE",
"445 776 OFFCURVE",
"448 655 CURVE"
);
}
);
width = 622;
}
);
unicode = 0A0F;
},
{
glyphname = "ai-gurmukhi";
layers = (
{
anchors = (
{
name = _top;
position = "{687, 675}";
},
{
name = bindu;
position = "{819, 680}";
},
{
name = candra;
position = "{889, 690}";
},
{
name = top;
position = "{749, 675}";
}
);
components = (
{
name = "a-gurmukhi";
}
);
layerId = "89102082-4794-43F6-87DB-199E42FAC5CB";
paths = (
{
closed = 1;
nodes = (
"718 666 LINE",
"716 902 OFFCURVE",
"599 1007 OFFCURVE",
"442 1007 CURVE",
"443 947 LINE",
"564 947 OFFCURVE",
"657 884 OFFCURVE",
"673 715 CURVE",
"682 735 LINE",
"645 824 OFFCURVE",
"538 873 OFFCURVE",
"426 873 CURVE SMOOTH",
"373 873 OFFCURVE",
"323 864 OFFCURVE",
"284 848 CURVE",
"300 789 LINE",
"335 801 OFFCURVE",
"383 809 OFFCURVE",
"434 809 CURVE SMOOTH",
"545 809 OFFCURVE",
"657 767 OFFCURVE",
"658 666 CURVE"
);
}
);
width = 830;
}
);
unicode = 0A10;
},
{
glyphname = "oo-gurmukhi";
layers = (
{
anchors = (
{
name = bindu;
position = "{628, 680}";
},
{
name = bottom;
position = "{374, 1}";
},
{
name = candra;
position = "{727, 650}";
},
{
name = caret_1;
position = "{368, 30}";
},
{
name = nukta;
position = "{92, -8}";
},
{
name = top;
position = "{535, 670}";
}
);
layerId = "89102082-4794-43F6-87DB-199E42FAC5CB";
paths = (
{
closed = 1;
nodes = (
"495 -6 OFFCURVE",
"572 77 OFFCURVE",
"572 180 CURVE SMOOTH",
"572 283 OFFCURVE",
"503 377 OFFCURVE",
"348 390 CURVE",
"347 351 LINE",
"491 376 OFFCURVE",
"582 486 OFFCURVE",
"582 637 CURVE",
"508 647 LINE",
"508 517 OFFCURVE",
"442 406 OFFCURVE",
"272 406 CURVE SMOOTH",
"105 406 LINE",
"105 345 LINE",
"291 345 LINE SMOOTH",
"447 345 OFFCURVE",
"496 266 OFFCURVE",
"496 193 CURVE SMOOTH",
"496 111 OFFCURVE",
"438 63 OFFCURVE",
"362 63 CURVE SMOOTH",
"192 63 OFFCURVE",
"127 312 OFFCURVE",
"128 543 CURVE SMOOTH",
"128 738 OFFCURVE",
"185 862 OFFCURVE",
"340 862 CURVE SMOOTH",
"373 862 OFFCURVE",
"433 856 OFFCURVE",
"483 845 CURVE",
"499 909 LINE",
"445 922 OFFCURVE",
"378 929 OFFCURVE",
"336 929 CURVE SMOOTH",
"137 929 OFFCURVE",
"54 786 OFFCURVE",
"54 547 CURVE SMOOTH",
"54 255 OFFCURVE",
"151 -6 OFFCURVE",
"373 -6 CURVE SMOOTH"
);
},
{
closed = 1;
nodes = (
"647 617 LINE",
"647 685 LINE",
"-8 685 LINE",
"-8 617 LINE"
);
}
);
width = 640;
}
);
leftMetricsKey = "ura-gurmukhi";
rightMetricsKey = "ura-gurmukhi";
unicode = 0A13;
},
{
glyphname = "ka-gurmukhi";
layers = (
{
anchors = (
{
name = bindu;
position = "{528, 681}";
},
{
name = bottom;
position = "{553, 0}";
},
{
name = candra;
position = "{528, 691}";
},
{
name = caret_1;
position = "{293, 18}";
},
{
name = nukta;
position = "{102, -16}";
},
{
name = top;
position = "{527, 671}";
}
);
layerId = "89102082-4794-43F6-87DB-199E42FAC5CB";
paths = (
{
closed = 1;
nodes = (
"591 0 LINE",
"591 26 LINE SMOOTH",
"591 135 OFFCURVE",
"561 239 OFFCURVE",
"512 321 CURVE",
"513 288 LINE",
"550 370 OFFCURVE",
"567 470 OFFCURVE",
"567 570 CURVE SMOOTH",
"567 633 LINE",
"494 633 LINE",
"494 574 LINE SMOOTH",
"494 499 OFFCURVE",
"485 433 OFFCURVE",
"467 376 CURVE",
"410 451 OFFCURVE",
"328 491 OFFCURVE",
"241 491 CURVE SMOOTH",
"115 491 OFFCURVE",
"35 406 OFFCURVE",
"35 296 CURVE SMOOTH",
"35 176 OFFCURVE",
"133 90 OFFCURVE",
"257 90 CURVE SMOOTH",
"356 90 OFFCURVE",
"436 145 OFFCURVE",
"487 248 CURVE",
"472 255 LINE",
"499 192 OFFCURVE",
"514 115 OFFCURVE",
"514 28 CURVE SMOOTH",
"514 0 LINE"
);
},
{
closed = 1;
nodes = (
"172 159 OFFCURVE",
"112 213 OFFCURVE",
"112 290 CURVE SMOOTH",
"112 369 OFFCURVE",
"168 422 OFFCURVE",
"254 422 CURVE SMOOTH",
"333 422 OFFCURVE",
"406 377 OFFCURVE",
"454 293 CURVE",
"453 322 LINE",
"413 215 OFFCURVE",
"341 159 OFFCURVE",
"256 159 CURVE SMOOTH"
);
},
{
closed = 1;
nodes = (
"663 617 LINE",
"663 685 LINE",
"0 685 LINE",
"0 617 LINE"
);
}
);
width = 663;
}
);
leftMetricsKey = "ra-gurmukhi";
rightMetricsKey = "STEM-GURM";
unicode = 0A15;
},
{
glyphname = "kha-gurmukhi";
layers = (
{
anchors = (
{
name = bindu;
position = "{510, 680}";
},
{
name = bottom;
position = "{519, 0}";
},
{
name = candra;
position = "{510, 690}";
},
{
name = caret_1;
position = "{318, 30}";
},
{
name = nukta;
position = "{114, 49}";
},
{
name = top;
position = "{510, 670}";
}
);
components = (
{
name = "pa-gurmukhi";
}
);
layerId = "89102082-4794-43F6-87DB-199E42FAC5CB";
paths = (
{
closed = 1;
nodes = (
"516 398 LINE",
"516 466 LINE",
"169 466 LINE",
"170 398 LINE"
);
}
);
width = 654;
}
);
leftMetricsKey = "pa-gurmukhi";
rightMetricsKey = "pa-gurmukhi";
unicode = 0A16;
},
{
glyphname = "ga-gurmukhi";
layers = (
{
anchors = (
{
name = bindu;
position = "{644, 681}";
},
{
name = bottom;
position = "{654, 0}";
},
{
name = candra;
position = "{644, 690}";
},
{
name = caret_1;
position = "{434, 30}";
},
{
name = nukta;
position = "{68, -8}";
},
{
name = top;
position = "{644, 671}";
}
);
layerId = "89102082-4794-43F6-87DB-199E42FAC5CB";
paths = (
{
closed = 1;
nodes = (
"417 -6 OFFCURVE",
"474 31 OFFCURVE",
"474 128 CURVE SMOOTH",
"475 650 LINE",
"398 650 LINE",
"398 421 LINE",
"424 444 LINE",
"203 444 LINE SMOOTH",
"104 444 OFFCURVE",
"42 382 OFFCURVE",
"42 278 CURVE SMOOTH",
"42 112 OFFCURVE",
"214 -6 OFFCURVE",
"343 -6 CURVE SMOOTH"
);
},
{
closed = 1;
nodes = (
"230 62 OFFCURVE",
"119 158 OFFCURVE",
"119 268 CURVE SMOOTH",
"119 329 OFFCURVE",
"151 376 OFFCURVE",
"219 376 CURVE SMOOTH",
"424 376 LINE",
"398 389 LINE",
"397 140 LINE SMOOTH",
"397 94 OFFCURVE",
"388 62 OFFCURVE",
"332 62 CURVE SMOOTH"
);
},
{
closed = 1;
nodes = (
"644 617 LINE",
"644 685 LINE",
"0 685 LINE",
"0 617 LINE"
);
},
{
closed = 1;
nodes = (
"692 0 LINE",
"692 650 LINE",
"671 617 LINE",
"788 617 LINE",
"788 685 LINE",
"615 685 LINE",
"615 0 LINE"
);
}
);
width = 788;
}
);
leftMetricsKey = "ra-gurmukhi";
rightMetricsKey = "STEM-GURM";
unicode = 0A17;
},
{
glyphname = "gha-gurmukhi";
layers = (
{
anchors = (
{
name = bindu;
position = "{688, 680}";
},
{
name = bottom;
position = "{697, 0}";
},
{
name = candra;
position = "{688, 690}";
},
{
name = caret_1;
position = "{418, 30}";
},
{
name = nukta;
position = "{118, 0}";
},
{
name = top;
position = "{688, 670}";
}
);
layerId = "89102082-4794-43F6-87DB-199E42FAC5CB";
paths = (
{
closed = 1;
nodes = (
"326 130 OFFCURVE",
"406 156 OFFCURVE",
"423 246 CURVE",
"398 241 LINE",
"427 172 OFFCURVE",
"481 130 OFFCURVE",
"557 130 CURVE SMOOTH",
"608 130 OFFCURVE",
"657 144 OFFCURVE",
"690 180 CURVE",
"677 278 LINE",
"650 214 OFFCURVE",
"593 198 OFFCURVE",
"557 198 CURVE SMOOTH",
"481 198 OFFCURVE",
"444 252 OFFCURVE",
"436 315 CURVE",
"435 254 LINE",
"459 336 OFFCURVE",
"470 412 OFFCURVE",
"470 472 CURVE SMOOTH",
"470 530 OFFCURVE",
"464 589 OFFCURVE",
"453 647 CURVE",
"382 647 LINE",
"382 295 LINE",
"365 214 OFFCURVE",
"298 198 OFFCURVE",
"255 198 CURVE SMOOTH",
"175 198 OFFCURVE",
"130 246 OFFCURVE",
"121 307 CURVE",
"111 282 LINE",
"177 320 OFFCURVE",
"222 393 OFFCURVE",
"222 480 CURVE SMOOTH",
"222 580 OFFCURVE",
"156 685 OFFCURVE",
"24 685 CURVE SMOOTH",
"0 685 LINE",
"0 617 LINE",
"28 617 LINE SMOOTH",
"110 617 OFFCURVE",
"147 557 OFFCURVE",
"147 489 CURVE SMOOTH",
"147 422 OFFCURVE",
"113 360 OFFCURVE",
"50 320 CURVE",
"67 199 OFFCURVE",
"152 130 OFFCURVE",
"255 130 CURVE SMOOTH"
);
},
{
closed = 1;
nodes = (
"736 0 LINE",
"736 650 LINE",
"715 617 LINE",
"832 617 LINE",
"832 685 LINE",
"659 685 LINE",
"659 0 LINE"
);
}
);
width = 832;
}
);
leftMetricsKey = "pa-gurmukhi";
rightMetricsKey = "STEM-GURM";
unicode = 0A18;
},
{
glyphname = "nga-gurmukhi";
layers = (
{
anchors = (
{
name = bindu;
position = "{466, 680}";
},
{
name = bottom;
position = "{296, 0}";
},
{
name = candra;
position = "{466, 690}";
},
{
name = caret_1;
position = "{309, 30}";
},
{
name = nukta;
position = "{78, -37}";
},
{
name = top;
position = "{466, 670}";
}
);
layerId = "89102082-4794-43F6-87DB-199E42FAC5CB";
paths = (
{
closed = 1;
nodes = (
"495 144 LINE",
"437 217 OFFCURVE",
"346 260 OFFCURVE",
"241 260 CURVE SMOOTH",
"133 260 OFFCURVE",
"68 215 OFFCURVE",
"68 141 CURVE SMOOTH",
"68 56 OFFCURVE",
"153 -6 OFFCURVE",
"292 -6 CURVE SMOOTH",
"476 -6 OFFCURVE",
"580 102 OFFCURVE",
"580 233 CURVE SMOOTH",
"580 347 OFFCURVE",
"502 458 OFFCURVE",
"325 458 CURVE SMOOTH",
"182 458 LINE",
"182 646 LINE",
"105 646 LINE",
"105 390 LINE",
"323 390 LINE SMOOTH",
"459 390 OFFCURVE",
"506 313 OFFCURVE",
"506 238 CURVE SMOOTH",
"506 144 OFFCURVE",
"434 54 OFFCURVE",
"286 54 CURVE SMOOTH",
"194 54 OFFCURVE",
"138 89 OFFCURVE",
"138 137 CURVE SMOOTH",
"138 179 OFFCURVE",
"182 205 OFFCURVE",
"251 205 CURVE SMOOTH",
"334 205 OFFCURVE",
"410 167 OFFCURVE",
"459 104 CURVE"
);
},
{
closed = 1;
nodes = (
"643 617 LINE",
"643 685 LINE",
"0 685 LINE",
"0 617 LINE"
);
}
);
width = 643;
}
);
rightMetricsKey = "ttha-gurmukhi";
unicode = 0A19;
},
{
glyphname = "ca-gurmukhi";
layers = (
{
anchors = (
{
name = bindu;
position = "{540, 680}";
},
{
name = bottom;
position = "{453, 1}";
},
{
name = candra;
position = "{540, 690}";
},
{
name = caret_1;
position = "{410, 30}";
},
{
name = nukta;
position = "{137, 0}";
},
{
name = top;
position = "{549, 670}";
}
);
layerId = "89102082-4794-43F6-87DB-199E42FAC5CB";
paths = (
{
closed = 1;
nodes = (
"527 -6 OFFCURVE",
"588 32 OFFCURVE",
"588 131 CURVE",
"588 646 LINE",
"511 646 LINE",
"511 144 LINE",
"511 95 OFFCURVE",
"502 63 OFFCURVE",
"443 63 CURVE SMOOTH",
"324 63 OFFCURVE",
"201 189 OFFCURVE",
"201 334 CURVE",
"123 344 LINE",
"123 138 OFFCURVE",
"311 -6 OFFCURVE",
"453 -6 CURVE SMOOTH"
);
},
{
closed = 1;
nodes = (
"206 379 LINE",
"176 422 OFFCURVE",
"120 425 OFFCURVE",
"35 423 CURVE",
"22 359 LINE",
"62 335 OFFCURVE",
"114 325 OFFCURVE",
"164 330 CURVE"
);
},
{
closed = 1;
nodes = (
"526 328 LINE",
"526 396 LINE",
"137 396 LINE",
"137 328 LINE"
);
},
{
closed = 1;
nodes = (
"684 617 LINE",
"684 685 LINE",
"0 685 LINE",
"0 617 LINE"
);
}
);
width = 684;
}
);
leftMetricsKey = "da-gurmukhi";
rightMetricsKey = "STEM-GURM";
unicode = 0A1A;
},
{
glyphname = "cha-gurmukhi";
layers = (
{
anchors = (
{
name = bindu;
position = "{494, 680}";
},
{
name = bottom;
position = "{321, 2}";
},
{
name = candra;
position = "{494, 690}";
},
{
name = caret_1;
position = "{320, 30}";
},
{
name = nukta;
position = "{78, -37}";
},
{
name = top;
position = "{501, 670}";
}
);
layerId = "89102082-4794-43F6-87DB-199E42FAC5CB";
paths = (
{
closed = 1;
nodes = (
"506 -6 OFFCURVE",
"602 50 OFFCURVE",
"602 143 CURVE SMOOTH",
"602 239 OFFCURVE",
"489 291 OFFCURVE",
"315 291 CURVE SMOOTH",
"293 291 OFFCURVE",
"272 290 OFFCURVE",
"252 290 CURVE SMOOTH",
"201 288 OFFCURVE",
"150 312 OFFCURVE",
"150 361 CURVE SMOOTH",
"150 392 OFFCURVE",
"171 429 OFFCURVE",
"249 429 CURVE SMOOTH",
"542 429 LINE",
"542 649 LINE",
"465 649 LINE",
"465 494 LINE",
"227 494 LINE SMOOTH",
"123 494 OFFCURVE",
"73 440 OFFCURVE",
"73 381 CURVE SMOOTH",
"73 312 OFFCURVE",
"119 266 OFFCURVE",
"192 252 CURVE",
"200 280 LINE",
"92 262 OFFCURVE",
"42 216 OFFCURVE",
"42 146 CURVE SMOOTH",
"42 50 OFFCURVE",
"142 -6 OFFCURVE",
"323 -6 CURVE SMOOTH"
);
},
{
closed = 1;
nodes = (
"179 57 OFFCURVE",
"116 87 OFFCURVE",
"116 145 CURVE SMOOTH",
"116 201 OFFCURVE",
"174 228 OFFCURVE",
"307 228 CURVE SMOOTH",
"452 228 OFFCURVE",
"527 200 OFFCURVE",
"527 141 CURVE SMOOTH",
"527 88 OFFCURVE",
"464 57 OFFCURVE",
"321 57 CURVE SMOOTH"
);
},
{
closed = 1;
nodes = (
"352 44 LINE",
"352 239 LINE",
"287 239 LINE",
"287 44 LINE"
);
},
{
closed = 1;
nodes = (
"646 617 LINE",
"646 685 LINE",
"0 685 LINE",
"0 617 LINE"
);
}
);
width = 646;
}
);
leftMetricsKey = "ttha-gurmukhi";
rightMetricsKey = "ttha-gurmukhi";
unicode = 0A1B;
},
{
glyphname = "ja-gurmukhi";
layers = (
{
anchors = (
{
name = bindu;
position = "{522, 680}";
},
{
name = bottom;
position = "{532, 0}";
},
{
name = candra;
position = "{522, 690}";
},
{
name = caret_1;
position = "{346, 30}";
},
{
name = nukta;
position = "{346, -36}";
},
{
name = top;
position = "{529, 670}";
}
);
layerId = "89102082-4794-43F6-87DB-199E42FAC5CB";
paths = (
{
closed = 1;
nodes = (
"202 59 OFFCURVE",
"213 126 OFFCURVE",
"215 189 CURVE SMOOTH",
"216 227 OFFCURVE",
"213 262 OFFCURVE",
"206 298 CURVE",
"516 298 LINE",
"516 366 LINE",
"180 366 LINE",
"150 393 OFFCURVE",
"112 403 OFFCURVE",
"48 416 CURVE",
"22 354 LINE",
"47 333 OFFCURVE",
"86 311 OFFCURVE",
"131 302 CURVE",
"139 269 OFFCURVE",
"141 235 OFFCURVE",
"140 197 CURVE SMOOTH",
"138 134 OFFCURVE",
"127 68 OFFCURVE",
"112 11 CURVE",
"112 3 LINE",
"188 0 LINE"
);
},
{
closed = 1;
nodes = (
"594 617 LINE",
"594 685 LINE",
"0 685 LINE",
"0 617 LINE"
);
},
{
closed = 1;
nodes = (
"570 0 LINE",
"570 650 LINE",
"549 617 LINE",
"666 617 LINE",
"666 685 LINE",
"493 685 LINE",
"493 0 LINE"
);
}
);
width = 666;
}
);
leftMetricsKey = "da-gurmukhi";
rightMetricsKey = "STEM-GURM";
unicode = 0A1C;
},
{
glyphname = "jha-gurmukhi";
layers = (
{
anchors = (
{
name = bindu;
position = "{531, 680}";
},
{
name = bottom;
position = "{205, -54}";
},
{
name = candra;
position = "{531, 690}";
},
{
name = caret_1;
position = "{319, -8}";
},
{
name = nukta;
position = "{89, -14}";
},
{
name = top;
position = "{540, 670}";
}
);
layerId = "89102082-4794-43F6-87DB-199E42FAC5CB";
paths = (
{
closed = 1;
nodes = (
"243 -54 LINE",
"250 83 LINE",
"227 59 LINE",
"253 56 OFFCURVE",
"278 54 OFFCURVE",
"301 54 CURVE SMOOTH",
"483 54 OFFCURVE",
"577 132 OFFCURVE",
"577 236 CURVE SMOOTH",
"577 314 OFFCURVE",
"527 393 OFFCURVE",
"384 423 CURVE",
"399 386 LINE",
"505 410 OFFCURVE",
"577 494 OFFCURVE",
"579 631 CURVE",
"503 633 LINE",
"500 489 OFFCURVE",
"408 432 OFFCURVE",
"318 432 CURVE SMOOTH",
"229 432 OFFCURVE",
"143 486 OFFCURVE",
"144 634 CURVE",
"67 630 LINE",
"68 511 OFFCURVE",
"130 444 OFFCURVE",
"206 412 CURVE",
"226 433 LINE",
"85 433 LINE",
"86 375 LINE",
"301 375 LINE SMOOTH",
"456 375 OFFCURVE",
"502 307 OFFCURVE",
"502 249 CURVE SMOOTH",
"502 178 OFFCURVE",
"442 118 OFFCURVE",
"292 118 CURVE SMOOTH",
"259 118 OFFCURVE",
"225 123 OFFCURVE",
"195 130 CURVE",
"238 118 LINE",
"211 145 OFFCURVE",
"178 160 OFFCURVE",
"150 169 CURVE SMOOTH",
"127 176 OFFCURVE",
"102 181 OFFCURVE",
"73 183 CURVE",
"50 125 LINE",
"82 99 OFFCURVE",
"126 79 OFFCURVE",
"171 68 CURVE",
"166 -45 LINE",
"166 -54 LINE"
);
},
{
closed = 1;
nodes = (
"635 617 LINE",
"635 685 LINE",
"0 685 LINE",
"0 617 LINE"
);
}
);
width = 635;
}
);
leftMetricsKey = "ta-gurmukhi";
rightMetricsKey = "ta-gurmukhi";
unicode = 0A1D;
},
{
glyphname = "nya-gurmukhi";
layers = (
{
anchors = (
{
name = bindu;
position = "{484, 680}";
},
{
name = bottom;
position = "{393, 1}";
},
{
name = candra;
position = "{484, 690}";
},
{
name = caret_1;
position = "{364, 30}";
},
{
name = nukta;
position = "{102, -18}";
},
{
name = top;
position = "{492, 670}";
}
);
components = (
{
name = "va-gurmukhi";
}
);
layerId = "89102082-4794-43F6-87DB-199E42FAC5CB";
paths = (
{
closed = 1;
nodes = (
"374 473 LINE",
"249 473 OFFCURVE",
"138 520 OFFCURVE",
"138 635 CURVE",
"61 637 LINE",
"61 505 OFFCURVE",
"183 441 OFFCURVE",
"321 441 CURVE"
);
}
);
width = 626;
}
);
leftMetricsKey = "va-gurmukhi";
rightMetricsKey = "va-gurmukhi";
unicode = 0A1E;
},
{
glyphname = "tta-gurmukhi";
layers = (
{
anchors = (
{
name = bindu;
position = "{464, 680}";
},
{
name = bottom;
position = "{368, 1}";
},
{
name = candra;
position = "{464, 690}";
},
{
name = caret_1;
position = "{360, 30}";
},
{
name = nukta;
position = "{95, -16}";
},
{
name = top;
position = "{456, 670}";
}
);
layerId = "89102082-4794-43F6-87DB-199E42FAC5CB";
paths = (
{
closed = 1;
nodes = (
"437 -6 OFFCURVE",
"502 8 OFFCURVE",
"546 30 CURVE",
"528 95 LINE",
"482 75 OFFCURVE",
"423 63 OFFCURVE",
"369 63 CURVE SMOOTH",
"201 63 OFFCURVE",
"119 187 OFFCURVE",
"109 242 CURVE",
"108 204 LINE",
"130 255 OFFCURVE",
"202 387 OFFCURVE",
"470 388 CURVE",
"495 388 LINE",
"495 652 LINE",
"418 652 LINE",
"418 419 LINE",
"446 456 LINE",
"180 455 OFFCURVE",
"76 318 OFFCURVE",
"42 240 CURVE",
"66 128 OFFCURVE",
"184 -6 OFFCURVE",
"373 -6 CURVE SMOOTH"
);
},
{
closed = 1;
nodes = (
"590 617 LINE",
"590 685 LINE",
"0 685 LINE",
"0 617 LINE"
);
}
);
width = 590;
}
);
leftMetricsKey = "ra-gurmukhi";
rightMetricsKey = "STEM-GURM";
unicode = 0A1F;
},
{
glyphname = "ttha-gurmukhi";
layers = (
{
anchors = (
{
name = bindu;
position = "{490, 680}";
},
{
name = bottom;
position = "{324, 2}";
},
{
name = candra;
position = "{324, 690}";
},
{
name = caret_1;
position = "{324, 30}";
},
{
name = nukta;
position = "{66, -16}";
},
{
name = top;
position = "{490, 670}";
}
);
layerId = "89102082-4794-43F6-87DB-199E42FAC5CB";
paths = (
{
closed = 1;
nodes = (
"489 -6 OFFCURVE",
"607 86 OFFCURVE",
"607 227 CURVE SMOOTH",
"607 367 OFFCURVE",
"485 458 OFFCURVE",
"324 458 CURVE SMOOTH",
"161 458 OFFCURVE",
"42 367 OFFCURVE",
"42 227 CURVE SMOOTH",
"42 86 OFFCURVE",
"165 -6 OFFCURVE",
"325 -6 CURVE SMOOTH"
);
},
{
closed = 1;
nodes = (
"201 63 OFFCURVE",
"119 131 OFFCURVE",
"119 226 CURVE SMOOTH",
"119 322 OFFCURVE",
"201 389 OFFCURVE",
"323 389 CURVE SMOOTH",
"445 389 OFFCURVE",
"529 322 OFFCURVE",
"529 226 CURVE SMOOTH",
"529 131 OFFCURVE",
"447 63 OFFCURVE",
"324 63 CURVE SMOOTH"
);
},
{
closed = 1;
nodes = (
"361 416 LINE",
"361 653 LINE",
"285 653 LINE",
"285 416 LINE"
);
},
{
closed = 1;
nodes = (
"648 617 LINE",
"648 685 LINE",
"0 685 LINE",
"0 617 LINE"
);
}
);
width = 648;
}
);
unicode = 0A20;
},
{
glyphname = "dda-gurmukhi";
layers = (
{
anchors = (
{
name = bindu;
position = "{493, 680}";
},
{
name = bottom;
position = "{272, 2}";
},
{
name = candra;
position = "{493, 690}";
},
{
name = caret_1;
position = "{275, 30}";
},
{
name = nukta;
position = "{60, -30}";
},
{
name = top;
position = "{483, 670}";
}
);
layerId = "89102082-4794-43F6-87DB-199E42FAC5CB";
paths = (
{
closed = 1;
nodes = (
"437 -6 OFFCURVE",
"538 91 OFFCURVE",
"538 210 CURVE SMOOTH",
"538 298 OFFCURVE",
"483 395 OFFCURVE",
"343 415 CURVE",
"338 384 LINE",
"455 410 OFFCURVE",
"525 500 OFFCURVE",
"525 643 CURVE",
"448 643 LINE",
"448 529 OFFCURVE",
"401 442 OFFCURVE",
"270 433 CURVE",
"328 432 LINE",
"295 445 OFFCURVE",
"242 450 OFFCURVE",
"198 450 CURVE SMOOTH",
"164 450 OFFCURVE",
"129 447 OFFCURVE",
"98 440 CURVE",
"102 373 LINE",
"135 366 OFFCURVE",
"169 362 OFFCURVE",
"208 362 CURVE SMOOTH",
"246 362 OFFCURVE",
"297 366 OFFCURVE",
"330 376 CURVE",
"259 374 LINE",
"417 373 OFFCURVE",
"463 290 OFFCURVE",
"463 219 CURVE SMOOTH",
"463 133 OFFCURVE",
"394 54 OFFCURVE",
"261 54 CURVE SMOOTH",
"171 54 OFFCURVE",
"113 90 OFFCURVE",
"113 138 CURVE SMOOTH",
"113 181 OFFCURVE",
"160 204 OFFCURVE",
"222 204 CURVE SMOOTH",
"303 204 OFFCURVE",
"375 165 OFFCURVE",
"431 103 CURVE",
"459 150 LINE",
"402 214 OFFCURVE",
"317 259 OFFCURVE",
"213 259 CURVE SMOOTH",
"117 259 OFFCURVE",
"43 220 OFFCURVE",
"43 142 CURVE SMOOTH",
"43 55 OFFCURVE",
"135 -6 OFFCURVE",
"268 -6 CURVE SMOOTH"
);
},
{
closed = 1;
nodes = (
"589 617 LINE",
"589 685 LINE",
"0 685 LINE",
"0 617 LINE"
);
}
);
width = 589;
}
);
leftMetricsKey = "ta-gurmukhi";
rightMetricsKey = "ta-gurmukhi";
unicode = 0A21;
},
{
glyphname = "ddha-gurmukhi";
layers = (
{
anchors = (
{
name = bindu;
position = "{546, 680}";
},
{
name = bottom;
position = "{424, 1}";
},
{
name = candra;
position = "{546, 690}";
},
{
name = caret_1;
position = "{398, 30}";
},
{
name = nukta;
position = "{122, 0}";
},
{
name = top;
position = "{536, 670}";
}
);
layerId = "89102082-4794-43F6-87DB-199E42FAC5CB";
paths = (
{
closed = 1;
nodes = (
"559 -6 OFFCURVE",
"636 58 OFFCURVE",
"636 136 CURVE SMOOTH",
"636 214 OFFCURVE",
"561 262 OFFCURVE",
"449 262 CURVE SMOOTH",
"346 262 OFFCURVE",
"259 221 OFFCURVE",
"203 156 CURVE",
"239 117 LINE",
"289 172 OFFCURVE",
"362 206 OFFCURVE",
"447 206 CURVE SMOOTH",
"521 206 OFFCURVE",
"566 180 OFFCURVE",
"566 137 CURVE SMOOTH",
"566 89 OFFCURVE",
"508 54 OFFCURVE",
"416 54 CURVE SMOOTH",
"267 54 OFFCURVE",
"192 145 OFFCURVE",
"192 266 CURVE SMOOTH",
"192 397 LINE",
"175 374 LINE",
"577 374 LINE",
"577 664 LINE",
"501 664 LINE",
"501 436 LINE",
"141 436 LINE",
"207 420 LINE",
"164 453 OFFCURVE",
"129 461 OFFCURVE",
"35 465 CURVE",
"22 399 LINE",
"50 385 OFFCURVE",
"84 373 OFFCURVE",
"124 371 CURVE",
"124 271 LINE SMOOTH",
"124 112 OFFCURVE",
"243 -6 OFFCURVE",
"425 -6 CURVE SMOOTH"
);
},
{
closed = 1;
nodes = (
"681 617 LINE",
"681 685 LINE",
"0 685 LINE",
"0 617 LINE"
);
}
);
width = 681;
}
);
leftMetricsKey = "da-gurmukhi";
rightMetricsKey = "ttha-gurmukhi";
unicode = 0A22;
},
{
glyphname = "nna-gurmukhi";
layers = (
{
anchors = (
{
name = bindu;
position = "{430, 680}";
},
{
name = bottom;
position = "{375, 1}";
},
{
name = candra;
position = "{430, 690}";
},
{
name = caret_1;
position = "{353, 30}";
},
{
name = nukta;
position = "{97, -18}";
},
{
name = top;
position = "{430, 670}";
}
);
layerId = "89102082-4794-43F6-87DB-199E42FAC5CB";
paths = (
{
closed = 1;
nodes = (
"439 -6 OFFCURVE",
"505 9 OFFCURVE",
"549 31 CURVE",
"530 95 LINE",
"483 75 OFFCURVE",
"422 63 OFFCURVE",
"363 63 CURVE SMOOTH",
"199 63 OFFCURVE",
"115 166 OFFCURVE",
"107 215 CURVE",
"106 174 LINE",
"123 207 OFFCURVE",
"192 303 OFFCURVE",
"393 309 CURVE",
"393 457 LINE",
"316 462 LINE",
"316 326 LINE",
"350 373 LINE",
"161 369 OFFCURVE",
"68 266 OFFCURVE",
"42 210 CURVE",
"64 110 OFFCURVE",
"183 -6 OFFCURVE",
"371 -6 CURVE SMOOTH"
);
},
{
closed = 1;
nodes = (
"543 452 LINE",
"354 460 OFFCURVE",
"243 536 OFFCURVE",
"244 645 CURVE",
"170 652 LINE",
"171 504 OFFCURVE",
"342 389 OFFCURVE",
"540 387 CURVE"
);
},
{
closed = 1;
nodes = (
"603 617 LINE",
"603 685 LINE",
"0 685 LINE",
"0 617 LINE"
);
}
);
width = 603;
}
);
leftMetricsKey = "ra-gurmukhi";
unicode = 0A23;
},
{
glyphname = "ta-gurmukhi";
layers = (
{
anchors = (
{
name = bindu;
position = "{491, 680}";
},
{
name = bottom;
position = "{265, 1}";
},
{
name = candra;
position = "{491, 690}";
},
{
name = caret_1;
position = "{263, 30}";
},
{
name = nukta;
position = "{52, -61}";
},
{
name = top;
position = "{481, 670}";
}
);
layerId = "89102082-4794-43F6-87DB-199E42FAC5CB";
paths = (
{
closed = 1;
nodes = (
"431 -6 OFFCURVE",
"534 90 OFFCURVE",
"534 199 CURVE SMOOTH",
"534 287 OFFCURVE",
"472 379 OFFCURVE",
"321 387 CURVE",
"336 364 LINE",
"451 381 OFFCURVE",
"522 481 OFFCURVE",
"522 623 CURVE SMOOTH",
"522 641 LINE",
"445 642 LINE",
"445 627 LINE SMOOTH",
"445 509 OFFCURVE",
"399 416 OFFCURVE",
"262 405 CURVE",
"318 407 LINE",
"291 415 OFFCURVE",
"247 418 OFFCURVE",
"201 418 CURVE SMOOTH",
"171 418 OFFCURVE",
"131 416 OFFCURVE",
"96 410 CURVE",
"99 343 LINE",
"133 336 OFFCURVE",
"168 332 OFFCURVE",
"204 332 CURVE SMOOTH",
"243 332 OFFCURVE",
"290 338 OFFCURVE",
"324 343 CURVE",
"247 342 LINE",
"410 345 OFFCURVE",
"457 274 OFFCURVE",
"457 210 CURVE SMOOTH",
"457 128 OFFCURVE",
"380 63 OFFCURVE",
"250 63 CURVE SMOOTH",
"189 63 OFFCURVE",
"110 78 OFFCURVE",
"60 99 CURVE",
"43 34 LINE",
"100 11 OFFCURVE",
"182 -6 OFFCURVE",
"256 -6 CURVE SMOOTH"
);
},
{
closed = 1;
nodes = (
"586 617 LINE",
"586 685 LINE",
"0 685 LINE",
"0 617 LINE"
);
}
);
width = 586;
}
);
unicode = 0A24;
},
{
glyphname = "tha-gurmukhi";
layers = (
{
anchors = (
{
name = bindu;
position = "{510, 680}";
},
{
name = bottom;
position = "{519, 0}";
},
{
name = candra;
position = "{510, 690}";
},
{
name = caret_1;
position = "{312, 30}";
},
{
name = nukta;
position = "{118, 0}";
},
{
name = top;
position = "{520, 670}";
}
);
components = (
{
name = "dha-gurmukhi";
}
);
layerId = "89102082-4794-43F6-87DB-199E42FAC5CB";
paths = (
{
closed = 1;
nodes = (
"519 382 LINE",
"519 446 LINE",
"166 446 LINE",
"166 382 LINE"
);
}
);
width = 654;
}
);
leftMetricsKey = "pa-gurmukhi";
rightMetricsKey = "pa-gurmukhi";
unicode = 0A25;
},
{
glyphname = "da-gurmukhi";
layers = (
{
anchors = (
{
name = bindu;
position = "{542, 680}";
},
{
name = bottom;
position = "{421, 1}";
},
{
name = candra;
position = "{542, 690}";
},
{
name = caret_1;
position = "{413, 30}";
},
{
name = nukta;
position = "{119, 0}";
},
{
name = top;
position = "{532, 670}";
}
);
layerId = "89102082-4794-43F6-87DB-199E42FAC5CB";
paths = (
{
closed = 1;
nodes = (
"496 -6 OFFCURVE",
"555 11 OFFCURVE",
"593 30 CURVE",
"574 95 LINE",
"526 75 OFFCURVE",
"473 63 OFFCURVE",
"419 63 CURVE SMOOTH",
"286 63 OFFCURVE",
"197 132 OFFCURVE",
"197 265 CURVE SMOOTH",
"197 383 LINE",
"176 360 LINE",
"572 360 LINE",
"572 649 LINE",
"496 649 LINE",
"496 428 LINE",
"145 428 LINE",
"211 412 LINE",
"166 446 OFFCURVE",
"136 455 OFFCURVE",
"35 458 CURVE",
"22 394 LINE",
"48 381 OFFCURVE",
"83 367 OFFCURVE",
"124 365 CURVE",
"124 271 LINE SMOOTH",
"124 105 OFFCURVE",
"247 -6 OFFCURVE",
"425 -6 CURVE SMOOTH"
);
},
{
closed = 1;
nodes = (
"668 617 LINE",
"668 685 LINE",
"0 685 LINE",
"0 617 LINE"
);
}
);
width = 668;
}
);
rightMetricsKey = "STEM-GURM";
unicode = 0A26;
},
{
glyphname = "dha-gurmukhi";
layers = (
{
anchors = (
{
name = bindu;
position = "{510, 680}";
},
{
name = bottom;
position = "{519, 0}";
},
{
name = candra;
position = "{510, 690}";
},
{
name = caret_1;
position = "{312, 30}";
},
{
name = nukta;
position = "{118, 0}";
},
{
name = top;
position = "{520, 670}";
}
);
components = (
{
name = "pa-gurmukhi";
}
);
layerId = "89102082-4794-43F6-87DB-199E42FAC5CB";
paths = (
{
closed = 1;
nodes = (
"589 617 LINE",
"589 685 LINE",
"4 685 LINE",
"4 617 LINE"
);
}
);
width = 654;
}
);
leftMetricsKey = "pa-gurmukhi";
rightMetricsKey = "pa-gurmukhi";
unicode = 0A27;
},
{
glyphname = "na-gurmukhi";
layers = (
{
anchors = (
{
name = bindu;
position = "{490, 680}";
},
{
name = bottom;
position = "{412, 15}";
},
{
name = candra;
position = "{324, 690}";
},
{
name = caret_1;
position = "{324, 30}";
},
{
name = nukta;
position = "{60, -16}";
},
{
name = top;
position = "{490, 670}";
}
);
layerId = "89102082-4794-43F6-87DB-199E42FAC5CB";
paths = (
{
closed = 1;
nodes = (
"261 66 LINE",
"176 81 OFFCURVE",
"120 141 OFFCURVE",
"120 226 CURVE SMOOTH",
"120 328 OFFCURVE",
"202 389 OFFCURVE",
"325 389 CURVE SMOOTH",
"447 389 OFFCURVE",
"529 327 OFFCURVE",
"529 226 CURVE SMOOTH",
"529 145 OFFCURVE",
"477 82 OFFCURVE",
"391 66 CURVE",
"399 -2 LINE",
"522 16 OFFCURVE",
"607 104 OFFCURVE",
"607 225 CURVE SMOOTH",
"607 370 OFFCURVE",
"485 458 OFFCURVE",
"324 458 CURVE SMOOTH",
"163 458 OFFCURVE",
"42 371 OFFCURVE",
"42 225 CURVE SMOOTH",
"42 101 OFFCURVE",
"132 17 OFFCURVE",
"254 -2 CURVE"
);
},
{
closed = 1;
nodes = (
"362 413 LINE",
"362 660 LINE",
"286 660 LINE",
"286 413 LINE"
);
},
{
closed = 1;
nodes = (
"648 617 LINE",
"648 685 LINE",
"0 685 LINE",
"0 617 LINE"
);
}
);
width = 648;
}
);
leftMetricsKey = "ttha-gurmukhi";
rightMetricsKey = "ttha-gurmukhi";
unicode = 0A28;
},
{
glyphname = "pa-gurmukhi";
layers = (
{
anchors = (
{
name = bindu;
position = "{510, 680}";
},
{
name = bottom;
position = "{519, 0}";
},
{
name = candra;
position = "{510, 690}";
},
{
name = caret_1;
position = "{312, 30}";
},
{
name = nukta;
position = "{118, 0}";
},
{
name = top;
position = "{510, 670}";
}
);
layerId = "89102082-4794-43F6-87DB-199E42FAC5CB";
paths = (
{
closed = 1;
nodes = (
"379 130 OFFCURVE",
"454 150 OFFCURVE",
"505 185 CURVE",
"492 278 LINE",
"445 220 OFFCURVE",
"361 198 OFFCURVE",
"294 198 CURVE SMOOTH",
"177 198 OFFCURVE",
"132 257 OFFCURVE",
"120 317 CURVE",
"101 276 LINE",
"168 313 OFFCURVE",
"223 386 OFFCURVE",
"223 480 CURVE SMOOTH",
"223 580 OFFCURVE",
"156 685 OFFCURVE",
"25 685 CURVE SMOOTH",
"0 685 LINE",
"0 617 LINE",
"29 617 LINE SMOOTH",
"111 617 OFFCURVE",
"147 557 OFFCURVE",
"147 489 CURVE SMOOTH",
"147 422 OFFCURVE",
"113 360 OFFCURVE",
"50 320 CURVE",
"72 197 OFFCURVE",
"167 130 OFFCURVE",
"295 130 CURVE SMOOTH"
);
},
{
closed = 1;
nodes = (
"558 0 LINE",
"558 650 LINE",
"537 617 LINE",
"654 617 LINE",
"654 685 LINE",
"481 685 LINE",
"481 0 LINE"
);
}
);
width = 654;
}
);
leftMetricsKey = "ma-gurmukhi";
rightMetricsKey = "STEM-GURM";
unicode = 0A2A;
},
{
glyphname = "pha-gurmukhi";
layers = (
{
anchors = (
{
name = bindu;
position = "{466, 680}";
},
{
name = bottom;
position = "{343, 1}";
},
{
name = candra;
position = "{466, 690}";
},
{
name = caret_1;
position = "{326, 30}";
},
{
name = nukta;
position = "{71, -16}";
},
{
name = top;
position = "{456, 670}";
}
);
layerId = "89102082-4794-43F6-87DB-199E42FAC5CB";
paths = (
{
closed = 1;
nodes = (
"150 115 LINE",
"203 172 OFFCURVE",
"278 206 OFFCURVE",
"364 206 CURVE SMOOTH",
"440 206 OFFCURVE",
"485 180 OFFCURVE",
"485 137 CURVE SMOOTH",
"485 89 OFFCURVE",
"427 54 OFFCURVE",
"333 54 CURVE SMOOTH",
"195 54 OFFCURVE",
"108 130 OFFCURVE",
"108 234 CURVE SMOOTH",
"108 314 OFFCURVE",
"159 395 OFFCURVE",
"305 395 CURVE SMOOTH",
"496 395 LINE",
"496 651 LINE",
"420 651 LINE",
"420 463 LINE",
"292 463 LINE SMOOTH",
"114 463 OFFCURVE",
"42 355 OFFCURVE",
"42 244 CURVE SMOOTH",
"42 108 OFFCURVE",
"149 -6 OFFCURVE",
"338 -6 CURVE SMOOTH",
"479 -6 OFFCURVE",
"555 58 OFFCURVE",
"555 136 CURVE SMOOTH",
"555 214 OFFCURVE",
"480 261 OFFCURVE",
"366 261 CURVE SMOOTH",
"265 261 OFFCURVE",
"171 224 OFFCURVE",
"115 155 CURVE"
);
},
{
closed = 1;
nodes = (
"601 617 LINE",
"601 685 LINE",
"0 685 LINE",
"0 617 LINE"
);
}
);
width = 601;
}
);
leftMetricsKey = "ra-gurmukhi";
rightMetricsKey = "ttha-gurmukhi";
unicode = 0A2B;
},
{
glyphname = "ba-gurmukhi";
layers = (
{
anchors = (
{
name = bindu;
position = "{510, 680}";
},
{
name = bottom;
position = "{519, 0}";
},
{
name = candra;
position = "{510, 690}";
},
{
name = caret_1;
position = "{323, 30}";
},
{
name = nukta;
position = "{104, -20}";
},
{
name = top;
position = "{520, 670}";
}
);
layerId = "89102082-4794-43F6-87DB-199E42FAC5CB";
paths = (
{
closed = 1;
nodes = (
"373 35 OFFCURVE",
"450 55 OFFCURVE",
"504 97 CURVE",
"497 188 LINE",
"444 125 OFFCURVE",
"365 104 OFFCURVE",
"306 104 CURVE SMOOTH",
"209 104 OFFCURVE",
"123 167 OFFCURVE",
"114 235 CURVE",
"113 200 LINE",
"137 249 OFFCURVE",
"214 346 OFFCURVE",
"426 352 CURVE SMOOTH",
"516 352 LINE",
"516 412 LINE",
"429 412 LINE SMOOTH",
"270 413 OFFCURVE",
"155 509 OFFCURVE",
"156 638 CURVE",
"79 641 LINE",
"79 519 OFFCURVE",
"175 415 OFFCURVE",
"312 382 CURVE",
"325 400 LINE",
"148 381 OFFCURVE",
"69 283 OFFCURVE",
"46 231 CURVE",
"79 108 OFFCURVE",
"201 35 OFFCURVE",
"315 35 CURVE SMOOTH"
);
},
{
closed = 1;
nodes = (
"560 617 LINE",
"560 685 LINE",
"0 685 LINE",
"0 617 LINE"
);
},
{
closed = 1;
nodes = (
"558 0 LINE",
"558 650 LINE",
"537 617 LINE",
"654 617 LINE",
"654 685 LINE",
"481 685 LINE",
"481 0 LINE"
);
}
);
width = 654;
}
);
leftMetricsKey = "ra-gurmukhi";
rightMetricsKey = "STEM-GURM";
unicode = 0A2C;
},
{
glyphname = "bha-gurmukhi";
layers = (
{
anchors = (
{
name = bindu;
position = "{493, 680}";
},
{
name = bottom;
position = "{263, 2}";
},
{
name = candra;
position = "{493, 690}";
},
{
name = caret_1;
position = "{265, 30}";
},
{
name = nukta;
position = "{56, -57}";
},
{
name = top;
position = "{483, 670}";
}
);
layerId = "89102082-4794-43F6-87DB-199E42FAC5CB";
paths = (
{
closed = 1;
nodes = (
"431 -6 OFFCURVE",
"533 90 OFFCURVE",
"533 205 CURVE SMOOTH",
"533 274 OFFCURVE",
"494 338 OFFCURVE",
"431 387 CURVE",
"435 356 LINE",
"493 418 OFFCURVE",
"525 511 OFFCURVE",
"525 621 CURVE SMOOTH",
"525 640 LINE",
"450 640 LINE",
"450 623 LINE SMOOTH",
"450 523 OFFCURVE",
"427 453 OFFCURVE",
"384 404 CURVE",
"406 410 LINE",
"348 447 OFFCURVE",
"277 468 OFFCURVE",
"210 468 CURVE SMOOTH",
"129 468 OFFCURVE",
"62 434 OFFCURVE",
"62 365 CURVE SMOOTH",
"62 292 OFFCURVE",
"137 256 OFFCURVE",
"226 256 CURVE SMOOTH",
"304 256 OFFCURVE",
"367 283 OFFCURVE",
"417 332 CURVE",
"399 334 LINE",
"438 304 OFFCURVE",
"466 263 OFFCURVE",
"466 214 CURVE SMOOTH",
"466 128 OFFCURVE",
"386 63 OFFCURVE",
"252 63 CURVE SMOOTH",
"186 63 OFFCURVE",
"109 79 OFFCURVE",
"60 99 CURVE",
"43 34 LINE",
"100 11 OFFCURVE",
"182 -6 OFFCURVE",
"256 -6 CURVE SMOOTH"
);
},
{
closed = 1;
nodes = (
"166 318 OFFCURVE",
"128 335 OFFCURVE",
"128 365 CURVE SMOOTH",
"128 394 OFFCURVE",
"165 411 OFFCURVE",
"221 411 CURVE SMOOTH",
"278 411 OFFCURVE",
"338 394 OFFCURVE",
"382 359 CURVE",
"377 384 LINE",
"344 341 OFFCURVE",
"289 318 OFFCURVE",
"227 318 CURVE SMOOTH"
);
},
{
closed = 1;
nodes = (
"584 617 LINE",
"584 685 LINE",
"0 685 LINE",
"0 617 LINE"
);
}
);
width = 584;
}
);
leftMetricsKey = "ta-gurmukhi";
rightMetricsKey = "ta-gurmukhi";
unicode = 0A2D;
},
{
glyphname = "ma-gurmukhi";
layers = (
{
anchors = (
{
name = bindu;
position = "{540, 680}";
},
{
name = bottom;
position = "{550, 0}";
},
{
name = candra;
position = "{540, 690}";
},
{
name = caret_1;
position = "{347, 30}";
},
{
name = nukta;
position = "{177, 8}";
},
{
name = top;
position = "{540, 670}";
}
);
layerId = "89102082-4794-43F6-87DB-199E42FAC5CB";
paths = (
{
closed = 1;
nodes = (
"173 135 OFFCURVE",
"222 275 OFFCURVE",
"222 433 CURVE SMOOTH",
"222 591 OFFCURVE",
"152 685 OFFCURVE",
"23 685 CURVE SMOOTH",
"0 685 LINE",
"0 617 LINE",
"32 617 LINE SMOOTH",
"121 617 OFFCURVE",
"150 533 OFFCURVE",
"150 445 CURVE SMOOTH",
"150 387 OFFCURVE",
"144 333 OFFCURVE",
"134 293 CURVE",
"153 334 LINE",
"104 288 OFFCURVE",
"78 174 OFFCURVE",
"67 77 CURVE",
"132 64 LINE"
);
},
{
closed = 1;
nodes = (
"538 260 LINE",
"538 328 LINE",
"175 328 LINE",
"172 260 LINE"
);
},
{
closed = 1;
nodes = (
"588 0 LINE",
"588 650 LINE",
"567 617 LINE",
"684 617 LINE",
"684 685 LINE",
"511 685 LINE",
"511 0 LINE"
);
}
);
width = 684;
}
);
rightMetricsKey = "STEM-GURM";
unicode = 0A2E;
},
{
glyphname = "ya-gurmukhi";
layers = (
{
anchors = (
{
name = bindu;
position = "{620, 680}";
},
{
name = bottom;
position = "{630, 0}";
},
{
name = candra;
position = "{620, 690}";
},
{
name = caret_1;
position = "{366, 30}";
},
{
name = nukta;
position = "{108, -4}";
},
{
name = top;
position = "{628, 670}";
}
);
layerId = "89102082-4794-43F6-87DB-199E42FAC5CB";
paths = (
{
closed = 1;
nodes = (
"346 130 OFFCURVE",
"451 173 OFFCURVE",
"451 304 CURVE",
"451 371 LINE",
"427 349 LINE",
"605 349 LINE",
"605 417 LINE",
"379 417 LINE",
"379 317 LINE",
"379 216 OFFCURVE",
"299 198 OFFCURVE",
"254 198 CURVE SMOOTH",
"171 198 OFFCURVE",
"132 245 OFFCURVE",
"121 305 CURVE",
"111 281 LINE",
"177 321 OFFCURVE",
"222 393 OFFCURVE",
"222 480 CURVE SMOOTH",
"222 580 OFFCURVE",
"156 685 OFFCURVE",
"24 685 CURVE SMOOTH",
"0 685 LINE",
"0 617 LINE",
"28 617 LINE SMOOTH",
"110 617 OFFCURVE",
"147 557 OFFCURVE",
"147 489 CURVE SMOOTH",
"147 422 OFFCURVE",
"113 360 OFFCURVE",
"50 320 CURVE",
"68 197 OFFCURVE",
"150 130 OFFCURVE",
"258 130 CURVE SMOOTH"
);
},
{
closed = 1;
nodes = (
"651 617 LINE",
"651 685 LINE",
"8 685 LINE",
"8 617 LINE"
);
},
{
closed = 1;
nodes = (
"668 0 LINE",
"668 650 LINE",
"647 617 LINE",
"764 617 LINE",
"764 685 LINE",
"591 685 LINE",
"591 0 LINE"
);
}
);
width = 764;
}
);
leftMetricsKey = "pa-gurmukhi";
rightMetricsKey = "STEM-GURM";
unicode = 0A2F;
},
{
glyphname = "ra-gurmukhi";
layers = (
{
anchors = (
{
name = bindu;
position = "{456, 680}";
},
{
name = bottom;
position = "{373, 1}";
},
{
name = candra;
position = "{456, 690}";
},
{
name = caret_1;
position = "{321, 30}";
},
{
name = nukta;
position = "{80, -12}";
},
{
name = top;
position = "{465, 670}";
}
);
layerId = "89102082-4794-43F6-87DB-199E42FAC5CB";
paths = (
{
closed = 1;
nodes = (
"448 -6 OFFCURVE",
"504 31 OFFCURVE",
"504 128 CURVE SMOOTH",
"504 653 LINE",
"427 653 LINE",
"427 423 LINE",
"453 445 LINE",
"203 445 LINE SMOOTH",
"104 445 OFFCURVE",
"42 382 OFFCURVE",
"42 279 CURVE SMOOTH",
"42 111 OFFCURVE",
"232 -6 OFFCURVE",
"373 -6 CURVE SMOOTH"
);
},
{
closed = 1;
nodes = (
"246 62 OFFCURVE",
"119 157 OFFCURVE",
"119 268 CURVE SMOOTH",
"119 329 OFFCURVE",
"151 377 OFFCURVE",
"219 377 CURVE SMOOTH",
"453 377 LINE",
"427 390 LINE",
"427 140 LINE SMOOTH",
"427 93 OFFCURVE",
"419 62 OFFCURVE",
"362 62 CURVE SMOOTH"
);
},
{
closed = 1;
nodes = (
"600 617 LINE",
"600 685 LINE",
"0 685 LINE",
"0 617 LINE"
);
}
);
width = 600;
}
);
rightMetricsKey = "STEM-GURM";
unicode = 0A30;
},
{
glyphname = "la-gurmukhi";
layers = (
{
anchors = (
{
name = bindu;
position = "{586, 680}";
},
{
name = bottom;
position = "{500, 22}";
},
{
name = candra;
position = "{360, 690}";
},
{
name = caret_1;
position = "{360, 30}";
},
{
name = nukta;
position = "{361, -10}";
},
{
name = top;
position = "{586, 670}";
}
);
layerId = "89102082-4794-43F6-87DB-199E42FAC5CB";
paths = (
{
closed = 1;
nodes = (
"268 66 LINE",
"185 80 OFFCURVE",
"129 142 OFFCURVE",
"129 221 CURVE SMOOTH",
"129 287 OFFCURVE",
"167 337 OFFCURVE",
"227 363 CURVE",
"270 321 OFFCURVE",
"319 291 OFFCURVE",
"366 270 CURVE",
"408 291 OFFCURVE",
"455 321 OFFCURVE",
"495 362 CURVE",
"555 335 OFFCURVE",
"590 284 OFFCURVE",
"590 221 CURVE SMOOTH",
"590 145 OFFCURVE",
"537 82 OFFCURVE",
"455 66 CURVE",
"463 -3 LINE",
"584 15 OFFCURVE",
"668 103 OFFCURVE",
"668 217 CURVE SMOOTH",
"668 302 OFFCURVE",
"622 372 OFFCURVE",
"545 411 CURVE",
"588 467 OFFCURVE",
"617 537 OFFCURVE",
"619 628 CURVE",
"541 628 LINE",
"541 478 OFFCURVE",
"435 386 OFFCURVE",
"355 345 CURVE",
"270 388 OFFCURVE",
"181 468 OFFCURVE",
"182 629 CURVE",
"105 628 LINE",
"106 539 OFFCURVE",
"133 469 OFFCURVE",
"172 415 CURVE",
"99 377 OFFCURVE",
"51 310 OFFCURVE",
"51 222 CURVE SMOOTH",
"51 104 OFFCURVE",
"137 17 OFFCURVE",
"261 -3 CURVE"
);
},
{
closed = 1;
nodes = (
"719 617 LINE",
"719 685 LINE",
"0 685 LINE",
"0 617 LINE"
);
}
);
width = 719;
}
);
rightMetricsKey = "ta-gurmukhi";
unicode = 0A32;
},
{
glyphname = "va-gurmukhi";
layers = (
{
anchors = (
{
name = bindu;
position = "{484, 680}";
},
{
name = bottom;
position = "{398, 0}";
},
{
name = candra;
position = "{484, 690}";
},
{
name = caret_1;
position = "{364, 30}";
},
{
name = nukta;
position = "{102, -18}";
},
{
name = top;
position = "{492, 670}";
}
);
layerId = "89102082-4794-43F6-87DB-199E42FAC5CB";
paths = (
{
closed = 1;
nodes = (
"496 210 LINE",
"497 268 LINE",
"225 268 LINE",
"155 268 OFFCURVE",
"120 301 OFFCURVE",
"120 343 CURVE SMOOTH",
"120 374 OFFCURVE",
"142 410 OFFCURVE",
"219 410 CURVE",
"531 410 LINE",
"531 647 LINE",
"454 647 LINE",
"454 452 LINE",
"478 473 LINE",
"197 473 LINE",
"91 473 OFFCURVE",
"45 412 OFFCURVE",
"45 352 CURVE SMOOTH",
"45 275 OFFCURVE",
"111 210 OFFCURVE",
"231 210 CURVE"
);
},
{
closed = 1;
nodes = (
"443 -6 OFFCURVE",
"492 0 OFFCURVE",
"534 12 CURVE",
"518 76 LINE",
"478 68 OFFCURVE",
"435 62 OFFCURVE",
"389 62 CURVE SMOOTH",
"294 62 OFFCURVE",
"215 87 OFFCURVE",
"215 177 CURVE SMOOTH",
"215 191 OFFCURVE",
"216 210 OFFCURVE",
"218 234 CURVE",
"147 234 LINE",
"145 212 OFFCURVE",
"144 194 OFFCURVE",
"144 182 CURVE SMOOTH",
"144 56 OFFCURVE",
"251 -6 OFFCURVE",
"398 -6 CURVE SMOOTH"
);
},
{
closed = 1;
nodes = (
"627 617 LINE",
"627 685 LINE",
"0 685 LINE",
"0 617 LINE"
);
}
);
width = 626;
}
);
leftMetricsKey = "ra-gurmukhi";
unicode = 0A35;
},
{
glyphname = "sa-gurmukhi";
layers = (
{
anchors = (
{
name = bindu;
position = "{541, 680}";
},
{
name = bottom;
position = "{550, 0}";
},
{
name = candra;
position = "{541, 690}";
},
{
name = caret_1;
position = "{347, 30}";
},
{
name = nukta;
position = "{347, 27}";
},
{
name = top;
position = "{550, 670}";
}
);
components = (
{
name = "ma-gurmukhi";
}
);
layerId = "89102082-4794-43F6-87DB-199E42FAC5CB";
paths = (
{
closed = 1;
nodes = (
"597 617 LINE",
"597 685 LINE",
"7 685 LINE",
"7 617 LINE"
);
}
);
width = 684;
}
);
leftMetricsKey = "ma-gurmukhi";
rightMetricsKey = "ma-gurmukhi";
unicode = 0A38;
},
{
glyphname = "ha-gurmukhi";
layers = (
{
anchors = (
{
name = bindu;
position = "{456, 680}";
},
{
name = bottom;
position = "{373, 1}";
},
{
name = candra;
position = "{456, 690}";
},
{
name = caret_1;
position = "{314, 30}";
},
{
name = nukta;
position = "{88, -12}";
},
{
name = top;
position = "{466, 670}";
}
);
layerId = "89102082-4794-43F6-87DB-199E42FAC5CB";
paths = (
{
closed = 1;
nodes = (
"448 -6 OFFCURVE",
"504 31 OFFCURVE",
"504 128 CURVE",
"504 653 LINE",
"427 653 LINE",
"428 140 LINE",
"428 91 OFFCURVE",
"419 62 OFFCURVE",
"362 62 CURVE SMOOTH",
"252 62 OFFCURVE",
"120 152 OFFCURVE",
"120 270 CURVE SMOOTH",
"120 355 OFFCURVE",
"167 377 OFFCURVE",
"266 377 CURVE",
"259 445 LINE",
"122 445 OFFCURVE",
"42 411 OFFCURVE",
"42 281 CURVE SMOOTH",
"42 109 OFFCURVE",
"233 -6 OFFCURVE",
"371 -6 CURVE SMOOTH"
);
},
{
closed = 1;
nodes = (
"600 617 LINE",
"600 685 LINE",
"0 685 LINE",
"0 617 LINE"
);
}
);
width = 600;
}
);
rightMetricsKey = "STEM-GURM";
unicode = 0A39;
},
{
glyphname = "rra-gurmukhi";
layers = (
{
anchors = (
{
name = bindu;
position = "{505, 680}";
},
{
name = bottom;
position = "{308, 34}";
},
{
name = candra;
position = "{505, 690}";
},
{
name = caret_1;
position = "{308, 42}";
},
{
name = top;
position = "{495, 670}";
}
);
layerId = "89102082-4794-43F6-87DB-199E42FAC5CB";
paths = (
{
closed = 1;
nodes = (
"112 0 LINE",
"112 44 LINE SMOOTH",
"112 68 OFFCURVE",
"123 81 OFFCURVE",
"145 81 CURVE SMOOTH",
"187 81 OFFCURVE",
"202 32 OFFCURVE",
"312 32 CURVE SMOOTH",
"366 32 OFFCURVE",
"412 43 OFFCURVE",
"445 65 CURVE",
"420 79 LINE",
"492 -7 LINE",
"556 0 LINE",
"552 11 LINE",
"478 110 LINE",
"479 81 LINE",
"524 115 OFFCURVE",
"550 163 OFFCURVE",
"550 217 CURVE SMOOTH",
"550 299 OFFCURVE",
"494 389 OFFCURVE",
"357 403 CURVE",
"363 376 LINE",
"465 401 OFFCURVE",
"537 486 OFFCURVE",
"537 627 CURVE",
"537 637 LINE",
"461 637 LINE",
"461 628 LINE",
"461 520 OFFCURVE",
"420 432 OFFCURVE",
"284 423 CURVE",
"344 423 LINE",
"311 436 OFFCURVE",
"259 440 OFFCURVE",
"207 440 CURVE SMOOTH",
"179 440 OFFCURVE",
"143 438 OFFCURVE",
"111 431 CURVE",
"115 364 LINE",
"148 356 OFFCURVE",
"183 352 OFFCURVE",
"221 352 CURVE SMOOTH",
"261 352 OFFCURVE",
"310 356 OFFCURVE",
"348 366 CURVE",
"273 365 LINE",
"428 365 OFFCURVE",
"475 288 OFFCURVE",
"475 225 CURVE SMOOTH",
"475 152 OFFCURVE",
"410 97 OFFCURVE",
"303 97 CURVE SMOOTH",
"202 97 OFFCURVE",
"194 148 OFFCURVE",
"131 148 CURVE SMOOTH",
"78 148 OFFCURVE",
"43 113 OFFCURVE",
"43 49 CURVE SMOOTH",
"43 0 LINE"
);
},
{
closed = 1;
nodes = (
"610 617 LINE",
"610 685 LINE",
"0 685 LINE",
"0 617 LINE"
);
}
);
width = 610;
}
);
leftMetricsKey = "ta-gurmukhi";
rightMetricsKey = "ta-gurmukhi";
unicode = 0A5C;
},
{
glyphname = "iri-gurmukhi";
layers = (
{
anchors = (
{
name = bindu;
position = "{478, 680}";
},
{
name = bottom;
position = "{370, 2}";
},
{
name = candra;
position = "{478, 690}";
},
{
name = caret_1;
position = "{365, 30}";
},
{
name = nukta;
position = "{98, -22}";
},
{
name = top;
position = "{488, 670}";
}
);
layerId = "89102082-4794-43F6-87DB-199E42FAC5CB";
paths = (
{
closed = 1;
nodes = (
"438 -6 OFFCURVE",
"502 8 OFFCURVE",
"546 30 CURVE",
"528 95 LINE",
"482 75 OFFCURVE",
"424 63 OFFCURVE",
"366 63 CURVE SMOOTH",
"204 63 OFFCURVE",
"121 162 OFFCURVE",
"112 204 CURVE",
"111 179 LINE",
"132 218 OFFCURVE",
"207 321 OFFCURVE",
"419 327 CURVE SMOOTH",
"527 327 LINE",
"527 652 LINE",
"450 652 LINE",
"450 368 LINE",
"472 393 LINE",
"419 393 LINE",
"258 393 OFFCURVE",
"141 496 OFFCURVE",
"143 635 CURVE",
"66 637 LINE",
"66 506 OFFCURVE",
"164 395 OFFCURVE",
"305 360 CURVE",
"318 377 LINE",
"143 361 OFFCURVE",
"65 259 OFFCURVE",
"42 207 CURVE",
"65 110 OFFCURVE",
"183 -6 OFFCURVE",
"371 -6 CURVE SMOOTH"
);
},
{
closed = 1;
nodes = (
"622 617 LINE",
"622 685 LINE",
"-8 685 LINE",
"-8 617 LINE"
);
}
);
width = 622;
}
);
rightMetricsKey = "STEM-GURM";
unicode = 0A72;
},
{
glyphname = "ura-gurmukhi";
layers = (
{
anchors = (
{
name = bindu;
position = "{642, 680}";
},
{
name = bottom;
position = "{372, 2}";
},
{
name = candra;
position = "{748, 650}";
},
{
name = caret_1;
position = "{368, 30}";
},
{
name = nukta;
position = "{92, -8}";
}
);
layerId = "89102082-4794-43F6-87DB-199E42FAC5CB";
paths = (
{
closed = 1;
nodes = (
"495 -6 OFFCURVE",
"572 77 OFFCURVE",
"572 181 CURVE SMOOTH",
"572 283 OFFCURVE",
"503 377 OFFCURVE",
"348 390 CURVE",
"347 351 LINE",
"491 376 OFFCURVE",
"582 486 OFFCURVE",
"582 637 CURVE SMOOTH",
"582 809 OFFCURVE",
"482 926 OFFCURVE",
"315 926 CURVE SMOOTH",
"150 926 OFFCURVE",
"54 814 OFFCURVE",
"54 538 CURVE SMOOTH",
"54 254 OFFCURVE",
"157 -6 OFFCURVE",
"372 -6 CURVE SMOOTH"
);
},
{
closed = 1;
nodes = (
"193 63 OFFCURVE",
"127 313 OFFCURVE",
"127 537 CURVE SMOOTH",
"127 745 OFFCURVE",
"180 857 OFFCURVE",
"323 857 CURVE SMOOTH",
"450 857 OFFCURVE",
"507 772 OFFCURVE",
"507 647 CURVE SMOOTH",
"507 517 OFFCURVE",
"441 406 OFFCURVE",
"271 406 CURVE SMOOTH",
"103 406 LINE",
"103 345 LINE",
"291 345 LINE SMOOTH",
"447 345 OFFCURVE",
"496 266 OFFCURVE",
"496 193 CURVE SMOOTH",
"496 111 OFFCURVE",
"438 63 OFFCURVE",
"361 63 CURVE SMOOTH"
);
},
{
closed = 1;
nodes = (
"647 617 LINE",
"647 685 LINE",
"-8 685 LINE",
"-8 617 LINE"
);
}
);
width = 640;
}
);
unicode = 0A73;
},
{
glyphname = "ekonkar-gurmukhi";
layers = (
{
layerId = "89102082-4794-43F6-87DB-199E42FAC5CB";
paths = (
{
closed = 1;
nodes = (
"1086 -6 OFFCURVE",
"1163 74 OFFCURVE",
"1163 174 CURVE SMOOTH",
"1163 265 OFFCURVE",
"1099 348 OFFCURVE",
"955 362 CURVE",
"965 347 LINE",
"1101 372 OFFCURVE",
"1171 480 OFFCURVE",
"1173 627 CURVE",
"1097 626 LINE",
"1093 501 OFFCURVE",
"1036 394 OFFCURVE",
"863 394 CURVE SMOOTH",
"723 394 LINE",
"732 333 LINE",
"882 333 LINE SMOOTH",
"1038 333 OFFCURVE",
"1087 256 OFFCURVE",
"1087 186 CURVE SMOOTH",
"1087 109 OFFCURVE",
"1029 63 OFFCURVE",
"958 63 CURVE SMOOTH",
"761 63 OFFCURVE",
"719 368 OFFCURVE",
"719 580 CURVE SMOOTH",
"719 794 OFFCURVE",
"788 914 OFFCURVE",
"1034 914 CURVE SMOOTH",
"1135 914 OFFCURVE",
"1219 876 OFFCURVE",
"1273 830 CURVE",
"1213 883 LINE",
"1230 836 OFFCURVE",
"1252 804 OFFCURVE",
"1303 774 CURVE SMOOTH",
"1324 766 OFFCURVE",
"1343 764 OFFCURVE",
"1363 764 CURVE",
"1392 813 LINE",
"1358 858 OFFCURVE",
"1298 899 OFFCURVE",
"1258 924 CURVE",
"1273 899 LINE",
"1267 920 OFFCURVE",
"1264 936 OFFCURVE",
"1264 962 CURVE SMOOTH",
"1264 1101 OFFCURVE",
"1344 1165 OFFCURVE",
"1439 1165 CURVE SMOOTH",
"1537 1165 OFFCURVE",
"1613 1097 OFFCURVE",
"1631 1004 CURVE",
"1685 1029 LINE",
"1660 1149 OFFCURVE",
"1557 1231 OFFCURVE",
"1436 1231 CURVE SMOOTH",
"1307 1231 OFFCURVE",
"1201 1139 OFFCURVE",
"1201 967 CURVE SMOOTH",
"1201 941 OFFCURVE",
"1202 923 OFFCURVE",
"1208 914 CURVE",
"1240 928 LINE",
"1166 970 OFFCURVE",
"1072 979 OFFCURVE",
"1015 979 CURVE SMOOTH",
"784 979 OFFCURVE",
"645 882 OFFCURVE",
"645 587 CURVE SMOOTH",
"645 228 OFFCURVE",
"757 -6 OFFCURVE",
"965 -6 CURVE SMOOTH"
);
},
{
closed = 1;
nodes = (
"592 53 LINE",
"558 57 OFFCURVE",
"524 82 OFFCURVE",
"524 126 CURVE SMOOTH",
"524 428 LINE SMOOTH",
"524 582 OFFCURVE",
"424 692 OFFCURVE",
"273 692 CURVE SMOOTH",
"140 692 OFFCURVE",
"54 607 OFFCURVE",
"54 492 CURVE SMOOTH",
"54 372 OFFCURVE",
"147 281 OFFCURVE",
"281 281 CURVE SMOOTH",
"352 281 OFFCURVE",
"422 309 OFFCURVE",
"470 375 CURVE",
"449 374 LINE",
"449 132 LINE SMOOTH",
"449 44 OFFCURVE",
"512 -3 OFFCURVE",
"574 -11 CURVE"
);
},
{
closed = 1;
nodes = (
"182 350 OFFCURVE",
"126 411 OFFCURVE",
"126 485 CURVE SMOOTH",
"126 560 OFFCURVE",
"183 622 OFFCURVE",
"280 622 CURVE SMOOTH",
"395 622 OFFCURVE",
"460 536 OFFCURVE",
"451 418 CURVE",
"462 484 LINE",
"437 401 OFFCURVE",
"364 350 OFFCURVE",
"278 350 CURVE SMOOTH"
);
},
{
closed = 1;
nodes = (
"1233 617 LINE",
"1233 685 LINE",
"718 685 LINE",
"711 617 LINE"
);
}
);
width = 1270;
}
);
leftMetricsKey = "one-gurmukhi";
unicode = 0A74;
},
{
glyphname = "ya-gurmukhi.post";
layers = (
{
anchors = (
{
name = bindu;
position = "{334, 680}";
},
{
name = bottom;
position = "{344, 0}";
},
{
name = candra;
position = "{334, 690}";
},
{
name = caret_1;
position = "{167, 30}";
},
{
name = nukta;
position = "{166, -30}";
},
{
name = top;
position = "{344, 670}";
}
);
layerId = "89102082-4794-43F6-87DB-199E42FAC5CB";
paths = (
{
closed = 1;
nodes = (
"-24 105 LINE SMOOTH",
"64 105 OFFCURVE",
"166 147 OFFCURVE",
"166 280 CURVE SMOOTH",
"166 370 LINE",
"142 349 LINE",
"319 349 LINE",
"319 417 LINE",
"93 417 LINE",
"93 292 LINE SMOOTH",
"93 191 OFFCURVE",
"16 172 OFFCURVE",
"-28 172 CURVE SMOOTH",
"-108 172 LINE",
"-108 105 LINE"
);
},
{
closed = 1;
nodes = (
"361 617 LINE",
"361 685 LINE",
"0 685 LINE",
"0 617 LINE"
);
},
{
closed = 1;
nodes = (
"382 0 LINE",
"382 650 LINE",
"361 617 LINE",
"478 617 LINE",
"478 685 LINE",
"305 685 LINE",
"305 0 LINE"
);
}
);
width = 478;
}
);
rightMetricsKey = "STEM-GURM";
},
{
glyphname = "ekonkar-gurmukhi.ss01";
layers = (
{
layerId = "89102082-4794-43F6-87DB-199E42FAC5CB";
paths = (
{
closed = 1;
nodes = (
"1097 626 LINE",
"1093 501 OFFCURVE",
"1036 394 OFFCURVE",
"863 394 CURVE SMOOTH",
"723 394 LINE",
"732 333 LINE",
"882 333 LINE SMOOTH",
"1038 333 OFFCURVE",
"1087 256 OFFCURVE",
"1087 186 CURVE SMOOTH",
"1087 109 OFFCURVE",
"1029 63 OFFCURVE",
"958 63 CURVE SMOOTH",
"757 63 OFFCURVE",
"719 389 OFFCURVE",
"719 581 CURVE SMOOTH",
"719 770 OFFCURVE",
"760 913 OFFCURVE",
"954 913 CURVE SMOOTH",
"987 913 OFFCURVE",
"1017 906 OFFCURVE",
"1040 894 CURVE",
"1071 831 OFFCURVE",
"1118 812 OFFCURVE",
"1186 798 CURVE",
"1215 848 LINE",
"1186 886 OFFCURVE",
"1142 920 OFFCURVE",
"1092 948 CURVE",
"1089 963 OFFCURVE",
"1087 977 OFFCURVE",
"1087 999 CURVE SMOOTH",
"1087 1264 OFFCURVE",
"1254 1389 OFFCURVE",
"1456 1389 CURVE SMOOTH",
"1597 1389 OFFCURVE",
"1704 1317 OFFCURVE",
"1740 1222 CURVE",
"1776 1263 LINE",
"1736 1373 OFFCURVE",
"1611 1456 OFFCURVE",
"1452 1456 CURVE SMOOTH",
"1223 1456 OFFCURVE",
"1024 1309 OFFCURVE",
"1024 1003 CURVE SMOOTH",
"1024 979 OFFCURVE",
"1024 959 OFFCURVE",
"1028 939 CURVE",
"1044 961 LINE",
"1014 976 OFFCURVE",
"979 979 OFFCURVE",
"953 979 CURVE SMOOTH",
"757 979 OFFCURVE",
"645 874 OFFCURVE",
"645 592 CURVE SMOOTH",
"645 233 OFFCURVE",
"757 -6 OFFCURVE",
"965 -6 CURVE SMOOTH",
"1086 -6 OFFCURVE",
"1163 74 OFFCURVE",
"1163 174 CURVE SMOOTH",
"1163 270 OFFCURVE",
"1099 357 OFFCURVE",
"955 372 CURVE",
"955 347 LINE",
"1098 372 OFFCURVE",
"1171 480 OFFCURVE",
"1173 627 CURVE"
);
},
{
closed = 1;
nodes = (
"592 53 LINE",
"558 57 OFFCURVE",
"524 82 OFFCURVE",
"524 126 CURVE SMOOTH",
"524 428 LINE SMOOTH",
"524 582 OFFCURVE",
"424 692 OFFCURVE",
"273 692 CURVE SMOOTH",
"140 692 OFFCURVE",
"54 607 OFFCURVE",
"54 492 CURVE SMOOTH",
"54 372 OFFCURVE",
"147 281 OFFCURVE",
"280 281 CURVE SMOOTH",
"352 281 OFFCURVE",
"422 309 OFFCURVE",
"470 375 CURVE",
"449 374 LINE",
"449 132 LINE SMOOTH",
"449 44 OFFCURVE",
"512 -3 OFFCURVE",
"574 -11 CURVE"
);
},
{
closed = 1;
nodes = (
"182 350 OFFCURVE",
"126 411 OFFCURVE",
"126 485 CURVE SMOOTH",
"126 560 OFFCURVE",
"183 622 OFFCURVE",
"280 622 CURVE SMOOTH",
"395 622 OFFCURVE",
"460 536 OFFCURVE",
"451 418 CURVE",
"462 484 LINE",
"437 401 OFFCURVE",
"364 350 OFFCURVE",
"278 350 CURVE SMOOTH"
);
},
{
closed = 1;
nodes = (
"1233 617 LINE",
"1233 685 LINE",
"717 685 LINE",
"710 617 LINE"
);
}
);
width = 1270;
}
);
leftMetricsKey = "one-gurmukhi";
},
{
glyphname = zero;
layers = (
{
layerId = "89102082-4794-43F6-87DB-199E42FAC5CB";
paths = (
{
closed = 1;
nodes = (
"142 703 OFFCURVE",
"49 577 OFFCURVE",
"49 351 CURVE SMOOTH",
"49 124 OFFCURVE",
"142 -2 OFFCURVE",
"309 -2 CURVE SMOOTH",
"475 -2 OFFCURVE",
"568 124 OFFCURVE",
"568 351 CURVE SMOOTH",
"568 577 OFFCURVE",
"475 703 OFFCURVE",
"309 703 CURVE SMOOTH"
);
},
{
closed = 1;
nodes = (
"426 637 OFFCURVE",
"488 542 OFFCURVE",
"488 351 CURVE SMOOTH",
"488 160 OFFCURVE",
"426 63 OFFCURVE",
"309 63 CURVE SMOOTH",
"190 63 OFFCURVE",
"129 160 OFFCURVE",
"129 351 CURVE SMOOTH",
"129 542 OFFCURVE",
"190 637 OFFCURVE",
"309 637 CURVE SMOOTH"
);
}
);
width = 617;
}
);
note = zero;
unicode = 0030;
},
{
glyphname = one;
layers = (
{
layerId = "89102082-4794-43F6-87DB-199E42FAC5CB";
paths = (
{
closed = 1;
nodes = (
"359 0 LINE",
"359 701 LINE",
"114 701 LINE",
"114 627 LINE",
"279 627 LINE",
"279 0 LINE"
);
}
);
width = 617;
}
);
note = one;
unicode = 0031;
},
{
glyphname = two;
layers = (
{
layerId = "89102082-4794-43F6-87DB-199E42FAC5CB";
paths = (
{
closed = 1;
nodes = (
"207 704 OFFCURVE",
"119 667 OFFCURVE",
"49 607 CURVE",
"84 546 LINE",
"142 599 OFFCURVE",
"217 632 OFFCURVE",
"283 632 CURVE SMOOTH",
"375 632 OFFCURVE",
"431 591 OFFCURVE",
"431 522 CURVE SMOOTH",
"431 476 OFFCURVE",
"391 411 OFFCURVE",
"330 349 CURVE SMOOTH",
"56 65 LINE",
"56 0 LINE",
"556 0 LINE",
"556 74 LINE",
"158 74 LINE",
"385 305 LINE SMOOTH",
"462 385 OFFCURVE",
"514 466 OFFCURVE",
"514 532 CURVE SMOOTH",
"514 637 OFFCURVE",
"426 704 OFFCURVE",
"293 704 CURVE SMOOTH"
);
}
);
width = 617;
}
);
note = two;
unicode = 0032;
},
{
glyphname = three;
layers = (
{
layerId = "89102082-4794-43F6-87DB-199E42FAC5CB";
paths = (
{
closed = 1;
nodes = (
"258 404 LINE",
"503 647 LINE",
"503 700 LINE",
"60 700 LINE",
"61 626 LINE",
"402 626 LINE",
"169 396 LINE",
"169 347 LINE",
"262 347 LINE SMOOTH",
"386 347 OFFCURVE",
"460 301 OFFCURVE",
"460 212 CURVE SMOOTH",
"460 125 OFFCURVE",
"387 66 OFFCURVE",
"264 66 CURVE SMOOTH",
"191 66 OFFCURVE",
"117 91 OFFCURVE",
"62 132 CURVE",
"27 66 LINE",
"89 25 OFFCURVE",
"180 -3 OFFCURVE",
"268 -3 CURVE SMOOTH",
"435 -3 OFFCURVE",
"538 86 OFFCURVE",
"538 215 CURVE SMOOTH",
"538 328 OFFCURVE",
"444 395 OFFCURVE",
"301 402 CURVE SMOOTH"
);
}
);
width = 617;
}
);
note = three;
unicode = 0033;
},
{
glyphname = four;
layers = (
{
layerId = "89102082-4794-43F6-87DB-199E42FAC5CB";
paths = (
{
closed = 1;
nodes = (
"304 701 LINE",
"41 250 LINE",
"41 186 LINE",
"392 186 LINE",
"392 0 LINE",
"467 0 LINE",
"467 186 LINE",
"577 186 LINE",
"577 260 LINE",
"467 260 LINE",
"467 447 LINE",
"392 447 LINE",
"392 260 LINE",
"126 260 LINE",
"383 701 LINE"
);
}
);
width = 617;
}
);
note = four;
unicode = 0034;
},
{
glyphname = five;
layers = (
{
layerId = "89102082-4794-43F6-87DB-199E42FAC5CB";
paths = (
{
closed = 1;
nodes = (
"97 701 LINE",
"97 343 LINE",
"151 355 OFFCURVE",
"239 362 OFFCURVE",
"288 362 CURVE SMOOTH",
"399 362 OFFCURVE",
"470 308 OFFCURVE",
"470 224 CURVE SMOOTH",
"470 129 OFFCURVE",
"399 70 OFFCURVE",
"286 70 CURVE SMOOTH",
"219 70 OFFCURVE",
"140 96 OFFCURVE",
"79 139 CURVE",
"46 74 LINE",
"116 28 OFFCURVE",
"212 -2 OFFCURVE",
"294 -2 CURVE SMOOTH",
"452 -2 OFFCURVE",
"554 89 OFFCURVE",
"554 229 CURVE SMOOTH",
"554 349 OFFCURVE",
"455 435 OFFCURVE",
"300 435 CURVE SMOOTH",
"265 435 OFFCURVE",
"212 432 OFFCURVE",
"172 425 CURVE",
"172 627 LINE",
"525 627 LINE",
"525 701 LINE"
);
}
);
width = 617;
}
);
note = five;
unicode = 0035;
},
{
glyphname = six;
layers = (
{
layerId = "89102082-4794-43F6-87DB-199E42FAC5CB";
paths = (
{
closed = 1;
nodes = (
"168 704 OFFCURVE",
"56 558 OFFCURVE",
"56 334 CURVE SMOOTH",
"56 119 OFFCURVE",
"161 -3 OFFCURVE",
"333 -3 CURVE SMOOTH",
"478 -3 OFFCURVE",
"573 85 OFFCURVE",
"573 227 CURVE SMOOTH",
"573 363 OFFCURVE",
"487 448 OFFCURVE",
"348 448 CURVE SMOOTH",
"243 448 OFFCURVE",
"167 401 OFFCURVE",
"136 316 CURVE",
"124 510 OFFCURVE",
"200 635 OFFCURVE",
"353 635 CURVE SMOOTH",
"408 635 OFFCURVE",
"469 619 OFFCURVE",
"516 592 CURVE",
"548 654 LINE",
"490 684 OFFCURVE",
"413 704 OFFCURVE",
"348 704 CURVE SMOOTH"
);
},
{
closed = 1;
nodes = (
"434 383 OFFCURVE",
"498 324 OFFCURVE",
"498 229 CURVE SMOOTH",
"498 128 OFFCURVE",
"428 67 OFFCURVE",
"328 67 CURVE SMOOTH",
"206 67 OFFCURVE",
"154 155 OFFCURVE",
"154 223 CURVE SMOOTH",
"154 307 OFFCURVE",
"221 383 OFFCURVE",
"334 383 CURVE SMOOTH"
);
}
);
width = 617;
}
);
note = six;
unicode = 0036;
},
{
glyphname = seven;
layers = (
{
layerId = "89102082-4794-43F6-87DB-199E42FAC5CB";
paths = (
{
closed = 1;
nodes = (
"55 701 LINE",
"55 524 LINE",
"127 524 LINE",
"127 627 LINE",
"485 627 LINE",
"174 0 LINE",
"259 0 LINE",
"572 636 LINE",
"572 701 LINE"
);
}
);
width = 617;
}
);
note = seven;
unicode = 0037;
},
{
glyphname = eight;
layers = (
{
layerId = "89102082-4794-43F6-87DB-199E42FAC5CB";
paths = (
{
closed = 1;
nodes = (
"171 704 OFFCURVE",
"84 638 OFFCURVE",
"84 531 CURVE SMOOTH",
"84 457 OFFCURVE",
"128 403 OFFCURVE",
"201 375 CURVE",
"108 348 OFFCURVE",
"51 284 OFFCURVE",
"51 195 CURVE SMOOTH",
"51 71 OFFCURVE",
"150 -3 OFFCURVE",
"309 -3 CURVE SMOOTH",
"468 -3 OFFCURVE",
"567 72 OFFCURVE",
"567 196 CURVE SMOOTH",
"567 284 OFFCURVE",
"511 348 OFFCURVE",
"420 375 CURVE",
"490 402 OFFCURVE",
"533 455 OFFCURVE",
"533 528 CURVE SMOOTH",
"533 638 OFFCURVE",
"447 704 OFFCURVE",
"308 704 CURVE SMOOTH"
);
},
{
closed = 1;
nodes = (
"423 338 OFFCURVE",
"491 286 OFFCURVE",
"491 202 CURVE SMOOTH",
"491 114 OFFCURVE",
"423 62 OFFCURVE",
"309 62 CURVE SMOOTH",
"194 62 OFFCURVE",
"126 114 OFFCURVE",
"126 203 CURVE SMOOTH",
"126 287 OFFCURVE",
"194 338 OFFCURVE",
"308 338 CURVE SMOOTH"
);
},
{
closed = 1;
nodes = (
"407 643 OFFCURVE",
"464 599 OFFCURVE",
"464 523 CURVE SMOOTH",
"464 448 OFFCURVE",
"407 403 OFFCURVE",
"309 403 CURVE SMOOTH",
"211 403 OFFCURVE",
"153 448 OFFCURVE",
"153 523 CURVE SMOOTH",
"153 599 OFFCURVE",
"211 643 OFFCURVE",
"309 643 CURVE SMOOTH"
);
}
);
width = 617;
}
);
note = eight;
unicode = 0038;
},
{
glyphname = nine;
layers = (
{
layerId = "89102082-4794-43F6-87DB-199E42FAC5CB";
paths = (
{
closed = 1;
nodes = (
"451 -3 OFFCURVE",
"563 143 OFFCURVE",
"563 366 CURVE SMOOTH",
"563 582 OFFCURVE",
"459 704 OFFCURVE",
"288 704 CURVE SMOOTH",
"144 704 OFFCURVE",
"50 616 OFFCURVE",
"50 473 CURVE SMOOTH",
"50 337 OFFCURVE",
"135 252 OFFCURVE",
"274 252 CURVE SMOOTH",
"378 252 OFFCURVE",
"452 300 OFFCURVE",
"483 384 CURVE",
"495 190 OFFCURVE",
"419 65 OFFCURVE",
"268 65 CURVE SMOOTH",
"213 65 OFFCURVE",
"153 81 OFFCURVE",
"107 109 CURVE",
"75 47 LINE",
"132 16 OFFCURVE",
"209 -3 OFFCURVE",
"273 -3 CURVE SMOOTH"
);
},
{
closed = 1;
nodes = (
"188 318 OFFCURVE",
"125 377 OFFCURVE",
"125 472 CURVE SMOOTH",
"125 573 OFFCURVE",
"194 633 OFFCURVE",
"294 633 CURVE SMOOTH",
"414 633 OFFCURVE",
"466 546 OFFCURVE",
"465 478 CURVE SMOOTH",
"466 394 OFFCURVE",
"400 318 OFFCURVE",
"287 318 CURVE SMOOTH"
);
}
);
width = 617;
}
);
note = nine;
unicode = 0039;
},
{
glyphname = zero.lf;
layers = (
{
layerId = "89102082-4794-43F6-87DB-199E42FAC5CB";
paths = (
{
closed = 1;
nodes = (
"156 702 OFFCURVE",
"53 576 OFFCURVE",
"53 350 CURVE SMOOTH",
"53 124 OFFCURVE",
"156 -2 OFFCURVE",
"342 -2 CURVE SMOOTH",
"528 -2 OFFCURVE",
"631 124 OFFCURVE",
"631 350 CURVE SMOOTH",
"631 576 OFFCURVE",
"528 702 OFFCURVE",
"342 702 CURVE SMOOTH"
);
},
{
closed = 1;
nodes = (
"477 636 OFFCURVE",
"549 541 OFFCURVE",
"549 350 CURVE SMOOTH",
"549 160 OFFCURVE",
"477 63 OFFCURVE",
"341 63 CURVE SMOOTH",
"205 63 OFFCURVE",
"134 160 OFFCURVE",
"134 350 CURVE SMOOTH",
"134 541 OFFCURVE",
"205 636 OFFCURVE",
"341 636 CURVE SMOOTH"
);
}
);
width = 684;
}
);
},
{
glyphname = one.lf;
layers = (
{
layerId = "89102082-4794-43F6-87DB-199E42FAC5CB";
paths = (
{
closed = 1;
nodes = (
"238 0 LINE",
"238 700 LINE",
"16 700 LINE",
"16 627 LINE",
"158 627 LINE",
"158 0 LINE"
);
}
);
width = 371;
}
);
},
{
glyphname = two.lf;
layers = (
{
layerId = "89102082-4794-43F6-87DB-199E42FAC5CB";
paths = (
{
closed = 1;
nodes = (
"192 703 OFFCURVE",
"108 667 OFFCURVE",
"40 606 CURVE",
"74 545 LINE",
"130 598 OFFCURVE",
"202 631 OFFCURVE",
"266 631 CURVE",
"353 631 OFFCURVE",
"406 590 OFFCURVE",
"406 521 CURVE",
"406 475 OFFCURVE",
"368 410 OFFCURVE",
"310 350 CURVE SMOOTH",
"47 64 LINE",
"47 0 LINE",
"529 0 LINE",
"529 74 LINE",
"150 74 LINE",
"364 305 LINE SMOOTH",
"439 384 OFFCURVE",
"489 465 OFFCURVE",
"489 531 CURVE",
"489 636 OFFCURVE",
"404 703 OFFCURVE",
"276 703 CURVE"
);
}
);
width = 581;
}
);
},
{
glyphname = three.lf;
layers = (
{
layerId = "89102082-4794-43F6-87DB-199E42FAC5CB";
paths = (
{
closed = 1;
nodes = (
"224 403 LINE",
"441 647 LINE",
"441 699 LINE",
"38 699 LINE",
"38 625 LINE",
"341 625 LINE",
"135 396 LINE",
"135 346 LINE",
"221 346 LINE SMOOTH",
"330 346 OFFCURVE",
"395 300 OFFCURVE",
"395 212 CURVE SMOOTH",
"396 125 OFFCURVE",
"332 66 OFFCURVE",
"223 66 CURVE SMOOTH",
"158 66 OFFCURVE",
"92 91 OFFCURVE",
"42 132 CURVE",
"7 66 LINE",
"64 25 OFFCURVE",
"148 -3 OFFCURVE",
"228 -3 CURVE SMOOTH",
"379 -3 OFFCURVE",
"474 86 OFFCURVE",
"474 215 CURVE SMOOTH",
"474 327 OFFCURVE",
"389 395 OFFCURVE",
"263 401 CURVE SMOOTH"
);
}
);
width = 527;
}
);
},
{
glyphname = four.lf;
layers = (
{
layerId = "89102082-4794-43F6-87DB-199E42FAC5CB";
paths = (
{
closed = 1;
nodes = (
"281 700 LINE",
"31 250 LINE",
"31 186 LINE",
"367 186 LINE",
"367 0 LINE",
"442 0 LINE",
"442 186 LINE",
"547 186 LINE",
"548 260 LINE",
"442 260 LINE",
"442 446 LINE",
"367 446 LINE",
"367 260 LINE",
"116 260 LINE",
"360 700 LINE"
);
}
);
width = 577;
}
);
},
{
glyphname = five.lf;
layers = (
{
layerId = "89102082-4794-43F6-87DB-199E42FAC5CB";
paths = (
{
closed = 1;
nodes = (
"83 700 LINE",
"82 343 LINE",
"132 354 OFFCURVE",
"217 361 OFFCURVE",
"262 361 CURVE",
"366 361 OFFCURVE",
"431 308 OFFCURVE",
"431 224 CURVE",
"431 129 OFFCURVE",
"366 70 OFFCURVE",
"261 70 CURVE",
"198 70 OFFCURVE",
"124 96 OFFCURVE",
"66 139 CURVE",
"33 74 LINE",
"99 28 OFFCURVE",
"191 -2 OFFCURVE",
"269 -2 CURVE",
"419 -2 OFFCURVE",
"516 89 OFFCURVE",
"516 229 CURVE",
"516 349 OFFCURVE",
"421 435 OFFCURVE",
"275 435 CURVE",
"243 435 OFFCURVE",
"193 431 OFFCURVE",
"157 424 CURVE",
"157 626 LINE",
"488 626 LINE",
"488 700 LINE"
);
}
);
width = 565;
}
);
},
{
glyphname = six.lf;
layers = (
{
layerId = "89102082-4794-43F6-87DB-199E42FAC5CB";
paths = (
{
closed = 1;
nodes = (
"164 703 OFFCURVE",
"53 557 OFFCURVE",
"53 334 CURVE SMOOTH",
"53 119 OFFCURVE",
"156 -3 OFFCURVE",
"327 -3 CURVE SMOOTH",
"470 -3 OFFCURVE",
"563 85 OFFCURVE",
"563 227 CURVE SMOOTH",
"563 362 OFFCURVE",
"479 447 OFFCURVE",
"341 447 CURVE SMOOTH",
"238 447 OFFCURVE",
"164 400 OFFCURVE",
"133 316 CURVE",
"121 509 OFFCURVE",
"196 634 OFFCURVE",
"347 634 CURVE SMOOTH",
"400 634 OFFCURVE",
"461 618 OFFCURVE",
"507 591 CURVE",
"539 653 LINE",
"482 683 OFFCURVE",
"405 703 OFFCURVE",
"341 703 CURVE SMOOTH"
);
},
{
closed = 1;
nodes = (
"426 382 OFFCURVE",
"488 323 OFFCURVE",
"488 229 CURVE SMOOTH",
"488 128 OFFCURVE",
"420 67 OFFCURVE",
"321 67 CURVE SMOOTH",
"202 67 OFFCURVE",
"150 155 OFFCURVE",
"151 223 CURVE",
"150 307 OFFCURVE",
"216 382 OFFCURVE",
"327 382 CURVE SMOOTH"
);
}
);
width = 604;
}
);
leftMetricsKey = zero.lf;
},
{
glyphname = seven.lf;
layers = (
{
layerId = "89102082-4794-43F6-87DB-199E42FAC5CB";
paths = (
{
closed = 1;
nodes = (
"39 700 LINE",
"39 523 LINE",
"111 523 LINE",
"111 626 LINE",
"437 626 LINE",
"149 0 LINE",
"234 0 LINE",
"525 635 LINE",
"525 700 LINE"
);
}
);
width = 554;
}
);
},
{
glyphname = eight.lf;
layers = (
{
layerId = "89102082-4794-43F6-87DB-199E42FAC5CB";
paths = (
{
closed = 1;
nodes = (
"170 703 OFFCURVE",
"84 638 OFFCURVE",
"84 530 CURVE SMOOTH",
"84 457 OFFCURVE",
"128 403 OFFCURVE",
"201 374 CURVE",
"108 347 OFFCURVE",
"50 283 OFFCURVE",
"50 194 CURVE SMOOTH",
"50 71 OFFCURVE",
"149 -3 OFFCURVE",
"308 -3 CURVE SMOOTH",
"467 -3 OFFCURVE",
"566 71 OFFCURVE",
"566 196 CURVE SMOOTH",
"566 284 OFFCURVE",
"510 347 OFFCURVE",
"419 374 CURVE",
"490 401 OFFCURVE",
"533 454 OFFCURVE",
"533 527 CURVE SMOOTH",
"533 637 OFFCURVE",
"447 703 OFFCURVE",
"308 703 CURVE SMOOTH"
);
},
{
closed = 1;
nodes = (
"423 337 OFFCURVE",
"490 286 OFFCURVE",
"490 202 CURVE SMOOTH",
"490 113 OFFCURVE",
"422 62 OFFCURVE",
"308 62 CURVE SMOOTH",
"193 62 OFFCURVE",
"126 114 OFFCURVE",
"126 203 CURVE SMOOTH",
"126 287 OFFCURVE",
"194 337 OFFCURVE",
"308 337 CURVE SMOOTH"
);
},
{
closed = 1;
nodes = (
"406 642 OFFCURVE",
"464 598 OFFCURVE",
"464 522 CURVE SMOOTH",
"464 447 OFFCURVE",
"406 402 OFFCURVE",
"309 402 CURVE SMOOTH",
"211 402 OFFCURVE",
"153 447 OFFCURVE",
"153 522 CURVE SMOOTH",
"153 598 OFFCURVE",
"211 642 OFFCURVE",
"309 642 CURVE SMOOTH"
);
}
);
width = 617;
}
);
},
{
glyphname = zero.osf;
layers = (
{
layerId = "89102082-4794-43F6-87DB-199E42FAC5CB";
paths = (
{
closed = 1;
nodes = (
"172 602 OFFCURVE",
"53 477 OFFCURVE",
"53 300 CURVE SMOOTH",
"53 122 OFFCURVE",
"172 -2 OFFCURVE",
"342 -2 CURVE SMOOTH",
"512 -2 OFFCURVE",
"631 122 OFFCURVE",
"631 300 CURVE SMOOTH",
"631 477 OFFCURVE",
"512 602 OFFCURVE",
"342 602 CURVE SMOOTH"
);
},
{
closed = 1;
nodes = (
"463 533 OFFCURVE",
"549 439 OFFCURVE",
"549 300 CURVE SMOOTH",
"549 161 OFFCURVE",
"463 67 OFFCURVE",
"341 67 CURVE SMOOTH",
"221 67 OFFCURVE",
"134 161 OFFCURVE",
"134 300 CURVE SMOOTH",
"134 439 OFFCURVE",
"221 533 OFFCURVE",
"341 533 CURVE SMOOTH"
);
}
);
width = 684;
}
);
},
{
glyphname = one.osf;
layers = (
{
layerId = "89102082-4794-43F6-87DB-199E42FAC5CB";
paths = (
{
closed = 1;
nodes = (
"238 0 LINE",
"238 600 LINE",
"16 600 LINE",
"16 526 LINE",
"158 526 LINE",
"158 0 LINE"
);
}
);
width = 371;
}
);
},
{
glyphname = two.osf;
layers = (
{
layerId = "89102082-4794-43F6-87DB-199E42FAC5CB";
paths = (
{
closed = 1;
nodes = (
"182 608 OFFCURVE",
"104 577 OFFCURVE",
"40 524 CURVE",
"73 463 LINE",
"125 509 OFFCURVE",
"191 538 OFFCURVE",
"250 538 CURVE SMOOTH",
"328 538 OFFCURVE",
"374 504 OFFCURVE",
"374 448 CURVE SMOOTH",
"374 410 OFFCURVE",
"341 356 OFFCURVE",
"288 306 CURVE SMOOTH",
"47 62 LINE",
"47 0 LINE",
"493 0 LINE",
"493 74 LINE",
"151 74 LINE",
"343 262 LINE SMOOTH",
"412 330 OFFCURVE",
"458 400 OFFCURVE",
"458 459 CURVE SMOOTH",
"458 550 OFFCURVE",
"379 608 OFFCURVE",
"260 608 CURVE SMOOTH"
);
}
);
width = 545;
}
);
leftMetricsKey = two.lf;
rightMetricsKey = two.lf;
},
{
glyphname = three.osf;
layers = (
{
layerId = "89102082-4794-43F6-87DB-199E42FAC5CB";
paths = (
{
closed = 1;
nodes = (
"224 303 LINE",
"441 546 LINE",
"441 599 LINE",
"37 599 LINE",
"37 525 LINE",
"341 525 LINE",
"135 296 LINE",
"135 246 LINE",
"222 246 LINE SMOOTH",
"330 246 OFFCURVE",
"395 200 OFFCURVE",
"395 112 CURVE SMOOTH",
"395 25 OFFCURVE",
"332 -34 OFFCURVE",
"223 -34 CURVE SMOOTH",
"158 -34 OFFCURVE",
"91 -9 OFFCURVE",
"42 32 CURVE",
"7 -34 LINE",
"64 -75 OFFCURVE",
"148 -103 OFFCURVE",
"228 -103 CURVE SMOOTH",
"379 -103 OFFCURVE",
"474 -14 OFFCURVE",
"474 115 CURVE SMOOTH",
"474 227 OFFCURVE",
"389 295 OFFCURVE",
"263 301 CURVE SMOOTH"
);
}
);
width = 527;
}
);
},
{
glyphname = four.osf;
layers = (
{
layerId = "89102082-4794-43F6-87DB-199E42FAC5CB";
paths = (
{
closed = 1;
nodes = (
"282 600 LINE",
"32 150 LINE",
"32 85 LINE",
"368 85 LINE",
"368 -100 LINE",
"443 -100 LINE",
"443 85 LINE",
"548 85 LINE",
"548 159 LINE",
"443 159 LINE",
"443 346 LINE",
"368 346 LINE",
"368 159 LINE",
"117 159 LINE",
"361 600 LINE"
);
}
);
width = 577;
}
);
},
{
glyphname = five.osf;
layers = (
{
layerId = "89102082-4794-43F6-87DB-199E42FAC5CB";
paths = (
{
closed = 1;
nodes = (
"83 600 LINE",
"83 243 LINE",
"132 254 OFFCURVE",
"217 261 OFFCURVE",
"262 261 CURVE",
"365 261 OFFCURVE",
"431 208 OFFCURVE",
"431 124 CURVE",
"431 29 OFFCURVE",
"365 -30 OFFCURVE",
"261 -30 CURVE",
"197 -30 OFFCURVE",
"123 -4 OFFCURVE",
"66 39 CURVE",
"33 -26 LINE",
"99 -72 OFFCURVE",
"191 -102 OFFCURVE",
"269 -102 CURVE",
"418 -102 OFFCURVE",
"515 -11 OFFCURVE",
"515 129 CURVE",
"515 249 OFFCURVE",
"421 335 OFFCURVE",
"275 335 CURVE",
"243 335 OFFCURVE",
"193 331 OFFCURVE",
"157 324 CURVE",
"157 526 LINE",
"489 526 LINE",
"488 600 LINE"
);
}
);
width = 565;
}
);
},
{
glyphname = six.osf;
layers = (
{
layerId = "89102082-4794-43F6-87DB-199E42FAC5CB";
paths = (
{
closed = 1;
nodes = (
"164 703 OFFCURVE",
"53 557 OFFCURVE",
"53 334 CURVE SMOOTH",
"53 119 OFFCURVE",
"156 -3 OFFCURVE",
"327 -3 CURVE SMOOTH",
"470 -3 OFFCURVE",
"563 85 OFFCURVE",
"563 227 CURVE SMOOTH",
"563 362 OFFCURVE",
"479 447 OFFCURVE",
"341 447 CURVE SMOOTH",
"238 447 OFFCURVE",
"164 400 OFFCURVE",
"133 316 CURVE",
"121 509 OFFCURVE",
"196 634 OFFCURVE",
"347 634 CURVE SMOOTH",
"400 634 OFFCURVE",
"461 618 OFFCURVE",
"507 591 CURVE",
"539 653 LINE",
"482 683 OFFCURVE",
"405 703 OFFCURVE",
"341 703 CURVE SMOOTH"
);
},
{
closed = 1;
nodes = (
"426 382 OFFCURVE",
"488 323 OFFCURVE",
"488 229 CURVE SMOOTH",
"488 128 OFFCURVE",
"420 67 OFFCURVE",
"321 67 CURVE SMOOTH",
"202 67 OFFCURVE",
"150 155 OFFCURVE",
"151 223 CURVE",
"150 307 OFFCURVE",
"216 382 OFFCURVE",
"327 382 CURVE SMOOTH"
);
}
);
width = 604;
}
);
leftMetricsKey = zero.lf;
},
{
glyphname = seven.osf;
layers = (
{
layerId = "89102082-4794-43F6-87DB-199E42FAC5CB";
paths = (
{
closed = 1;
nodes = (
"39 600 LINE",
"39 423 LINE",
"110 423 LINE",
"111 526 LINE",
"437 526 LINE",
"149 -100 LINE",
"234 -100 LINE",
"525 535 LINE",
"525 600 LINE"
);
}
);
width = 554;
}
);
},
{
glyphname = eight.osf;
layers = (
{
layerId = "89102082-4794-43F6-87DB-199E42FAC5CB";
paths = (
{
closed = 1;
nodes = (
"170 703 OFFCURVE",
"84 638 OFFCURVE",
"84 530 CURVE SMOOTH",
"84 457 OFFCURVE",
"128 403 OFFCURVE",
"201 374 CURVE",
"108 347 OFFCURVE",
"50 283 OFFCURVE",
"50 194 CURVE SMOOTH",
"50 71 OFFCURVE",
"149 -3 OFFCURVE",
"308 -3 CURVE SMOOTH",
"467 -3 OFFCURVE",
"566 71 OFFCURVE",
"566 196 CURVE SMOOTH",
"566 284 OFFCURVE",
"510 347 OFFCURVE",
"419 374 CURVE",
"490 401 OFFCURVE",
"533 454 OFFCURVE",
"533 527 CURVE SMOOTH",
"533 637 OFFCURVE",
"447 703 OFFCURVE",
"308 703 CURVE SMOOTH"
);
},
{
closed = 1;
nodes = (
"423 337 OFFCURVE",
"490 286 OFFCURVE",
"490 202 CURVE SMOOTH",
"490 113 OFFCURVE",
"422 62 OFFCURVE",
"308 62 CURVE SMOOTH",
"193 62 OFFCURVE",
"126 114 OFFCURVE",
"126 203 CURVE SMOOTH",
"126 287 OFFCURVE",
"194 337 OFFCURVE",
"308 337 CURVE SMOOTH"
);
},
{
closed = 1;
nodes = (
"406 642 OFFCURVE",
"464 598 OFFCURVE",
"464 522 CURVE SMOOTH",
"464 447 OFFCURVE",
"406 402 OFFCURVE",
"309 402 CURVE SMOOTH",
"211 402 OFFCURVE",
"153 447 OFFCURVE",
"153 522 CURVE SMOOTH",
"153 598 OFFCURVE",
"211 642 OFFCURVE",
"309 642 CURVE SMOOTH"
);
}
);
width = 617;
}
);
},
{
glyphname = zero.tosf;
layers = (
{
layerId = "89102082-4794-43F6-87DB-199E42FAC5CB";
paths = (
{
closed = 1;
nodes = (
"151 603 OFFCURVE",
"41 478 OFFCURVE",
"41 301 CURVE SMOOTH",
"41 123 OFFCURVE",
"151 -2 OFFCURVE",
"309 -2 CURVE SMOOTH",
"466 -2 OFFCURVE",
"576 123 OFFCURVE",
"576 301 CURVE SMOOTH",
"576 478 OFFCURVE",
"466 603 OFFCURVE",
"309 603 CURVE SMOOTH"
);
},
{
closed = 1;
nodes = (
"420 535 OFFCURVE",
"499 441 OFFCURVE",
"499 301 CURVE SMOOTH",
"499 160 OFFCURVE",
"420 65 OFFCURVE",
"308 65 CURVE SMOOTH",
"197 65 OFFCURVE",
"118 160 OFFCURVE",
"118 301 CURVE SMOOTH",
"118 441 OFFCURVE",
"197 535 OFFCURVE",
"308 535 CURVE SMOOTH"
);
}
);
width = 617;
}
);
userData = {
RMXScaler = {
source = zero.osf;
};
};
},
{
glyphname = one.tosf;
layers = (
{
layerId = "89102082-4794-43F6-87DB-199E42FAC5CB";
paths = (
{
closed = 1;
nodes = (
"369 0 LINE",
"369 601 LINE",
"124 601 LINE",
"124 527 LINE",
"290 527 LINE",
"290 0 LINE"
);
}
);
width = 617;
}
);
userData = {
RMXScaler = {
source = one.osf;
};
};
},
{
glyphname = two.tosf;
layers = (
{
layerId = "89102082-4794-43F6-87DB-199E42FAC5CB";
paths = (
{
closed = 1;
nodes = (
"211 609 OFFCURVE",
"126 578 OFFCURVE",
"58 525 CURVE",
"92 463 LINE",
"148 510 OFFCURVE",
"220 539 OFFCURVE",
"284 539 CURVE SMOOTH",
"371 539 OFFCURVE",
"423 505 OFFCURVE",
"423 449 CURVE SMOOTH",
"423 411 OFFCURVE",
"386 358 OFFCURVE",
"329 306 CURVE SMOOTH",
"65 63 LINE",
"65 0 LINE",
"547 0 LINE",
"547 74 LINE",
"168 74 LINE",
"382 263 LINE SMOOTH",
"458 331 OFFCURVE",
"507 401 OFFCURVE",
"507 460 CURVE SMOOTH",
"507 551 OFFCURVE",
"422 609 OFFCURVE",
"294 609 CURVE SMOOTH"
);
}
);
width = 617;
}
);
userData = {
RMXScaler = {
source = two.osf;
};
};
},
{
glyphname = three.tosf;
layers = (
{
layerId = "89102082-4794-43F6-87DB-199E42FAC5CB";
paths = (
{
closed = 1;
nodes = (
"258 304 LINE",
"502 547 LINE",
"502 600 LINE",
"60 600 LINE",
"60 526 LINE",
"402 526 LINE",
"169 296 LINE",
"169 247 LINE",
"261 247 LINE SMOOTH",
"386 247 OFFCURVE",
"460 201 OFFCURVE",
"460 112 CURVE SMOOTH",
"460 25 OFFCURVE",
"387 -34 OFFCURVE",
"264 -34 CURVE SMOOTH",
"191 -34 OFFCURVE",
"117 -9 OFFCURVE",
"62 32 CURVE",
"27 -34 LINE",
"89 -75 OFFCURVE",
"180 -103 OFFCURVE",
"268 -103 CURVE SMOOTH",
"434 -103 OFFCURVE",
"538 -14 OFFCURVE",
"538 115 CURVE SMOOTH",
"538 228 OFFCURVE",
"444 295 OFFCURVE",
"301 302 CURVE SMOOTH"
);
}
);
width = 617;
}
);
},
{
glyphname = four.tosf;
layers = (
{
layerId = "89102082-4794-43F6-87DB-199E42FAC5CB";
paths = (
{
closed = 1;
nodes = (
"304 601 LINE",
"41 150 LINE",
"41 86 LINE",
"392 86 LINE",
"392 -100 LINE",
"467 -100 LINE",
"467 86 LINE",
"577 86 LINE",
"577 160 LINE",
"467 160 LINE",
"467 347 LINE",
"392 347 LINE",
"392 160 LINE",
"126 160 LINE",
"383 601 LINE"
);
}
);
width = 617;
}
);
},
{
glyphname = five.tosf;
layers = (
{
layerId = "89102082-4794-43F6-87DB-199E42FAC5CB";
paths = (
{
closed = 1;
nodes = (
"97 601 LINE",
"97 243 LINE",
"150 255 OFFCURVE",
"239 262 OFFCURVE",
"288 262 CURVE",
"399 262 OFFCURVE",
"469 208 OFFCURVE",
"469 124 CURVE",
"469 29 OFFCURVE",
"399 -30 OFFCURVE",
"286 -30 CURVE",
"218 -30 OFFCURVE",
"140 -4 OFFCURVE",
"78 39 CURVE",
"45 -26 LINE",
"115 -72 OFFCURVE",
"212 -102 OFFCURVE",
"294 -102 CURVE",
"452 -102 OFFCURVE",
"554 -11 OFFCURVE",
"554 129 CURVE",
"554 249 OFFCURVE",
"455 335 OFFCURVE",
"300 335 CURVE",
"265 335 OFFCURVE",
"211 332 OFFCURVE",
"171 325 CURVE",
"171 527 LINE",
"525 527 LINE",
"525 601 LINE"
);
}
);
width = 617;
}
);
},
{
glyphname = six.tosf;
layers = (
{
layerId = "89102082-4794-43F6-87DB-199E42FAC5CB";
paths = (
{
closed = 1;
nodes = (
"168 704 OFFCURVE",
"56 558 OFFCURVE",
"56 334 CURVE SMOOTH",
"56 119 OFFCURVE",
"161 -3 OFFCURVE",
"333 -3 CURVE SMOOTH",
"478 -3 OFFCURVE",
"572 85 OFFCURVE",
"572 227 CURVE SMOOTH",
"572 363 OFFCURVE",
"486 448 OFFCURVE",
"347 448 CURVE SMOOTH",
"242 448 OFFCURVE",
"167 401 OFFCURVE",
"136 316 CURVE",
"123 510 OFFCURVE",
"200 635 OFFCURVE",
"353 635 CURVE SMOOTH",
"407 635 OFFCURVE",
"469 619 OFFCURVE",
"516 592 CURVE",
"548 654 LINE",
"490 684 OFFCURVE",
"412 704 OFFCURVE",
"347 704 CURVE SMOOTH"
);
},
{
closed = 1;
nodes = (
"434 383 OFFCURVE",
"498 324 OFFCURVE",
"498 229 CURVE SMOOTH",
"498 128 OFFCURVE",
"429 67 OFFCURVE",
"328 67 CURVE SMOOTH",
"206 67 OFFCURVE",
"154 155 OFFCURVE",
"155 223 CURVE",
"154 307 OFFCURVE",
"221 383 OFFCURVE",
"335 383 CURVE SMOOTH"
);
}
);
width = 617;
}
);
},
{
glyphname = seven.tosf;
layers = (
{
layerId = "89102082-4794-43F6-87DB-199E42FAC5CB";
paths = (
{
closed = 1;
nodes = (
"55 601 LINE",
"55 424 LINE",
"127 424 LINE",
"128 527 LINE",
"485 527 LINE",
"174 -100 LINE",
"259 -100 LINE",
"572 536 LINE",
"572 601 LINE"
);
}
);
width = 617;
}
);
},
{
glyphname = eight.tosf;
layers = (
{
layerId = "89102082-4794-43F6-87DB-199E42FAC5CB";
paths = (
{
closed = 1;
nodes = (
"171 704 OFFCURVE",
"85 638 OFFCURVE",
"85 531 CURVE SMOOTH",
"85 457 OFFCURVE",
"128 403 OFFCURVE",
"202 375 CURVE",
"109 348 OFFCURVE",
"51 284 OFFCURVE",
"51 195 CURVE SMOOTH",
"51 71 OFFCURVE",
"150 -3 OFFCURVE",
"309 -3 CURVE SMOOTH",
"468 -3 OFFCURVE",
"568 72 OFFCURVE",
"568 196 CURVE SMOOTH",
"568 284 OFFCURVE",
"511 348 OFFCURVE",
"420 375 CURVE",
"491 402 OFFCURVE",
"533 455 OFFCURVE",
"533 528 CURVE SMOOTH",
"533 638 OFFCURVE",
"448 704 OFFCURVE",
"309 704 CURVE SMOOTH"
);
},
{
closed = 1;
nodes = (
"423 338 OFFCURVE",
"491 286 OFFCURVE",
"491 202 CURVE SMOOTH",
"491 114 OFFCURVE",
"422 62 OFFCURVE",
"309 62 CURVE SMOOTH",
"194 62 OFFCURVE",
"126 114 OFFCURVE",
"126 203 CURVE SMOOTH",
"126 287 OFFCURVE",
"194 338 OFFCURVE",
"308 338 CURVE SMOOTH"
);
},
{
closed = 1;
nodes = (
"407 643 OFFCURVE",
"464 599 OFFCURVE",
"464 523 CURVE SMOOTH",
"464 448 OFFCURVE",
"407 403 OFFCURVE",
"309 403 CURVE SMOOTH",
"211 403 OFFCURVE",
"153 448 OFFCURVE",
"153 523 CURVE SMOOTH",
"153 599 OFFCURVE",
"211 643 OFFCURVE",
"309 643 CURVE SMOOTH"
);
}
);
width = 617;
}
);
},
{
glyphname = nine.tosf;
layers = (
{
layerId = "89102082-4794-43F6-87DB-199E42FAC5CB";
paths = (
{
closed = 1;
nodes = (
"451 -103 OFFCURVE",
"563 43 OFFCURVE",
"563 266 CURVE SMOOTH",
"563 482 OFFCURVE",
"459 604 OFFCURVE",
"288 604 CURVE SMOOTH",
"144 604 OFFCURVE",
"50 516 OFFCURVE",
"50 373 CURVE SMOOTH",
"50 237 OFFCURVE",
"135 152 OFFCURVE",
"273 152 CURVE SMOOTH",
"378 152 OFFCURVE",
"452 200 OFFCURVE",
"483 284 CURVE",
"495 90 OFFCURVE",
"419 -35 OFFCURVE",
"267 -35 CURVE SMOOTH",
"213 -35 OFFCURVE",
"152 -19 OFFCURVE",
"106 9 CURVE",
"74 -53 LINE",
"132 -84 OFFCURVE",
"208 -103 OFFCURVE",
"273 -103 CURVE SMOOTH"
);
},
{
closed = 1;
nodes = (
"188 218 OFFCURVE",
"125 277 OFFCURVE",
"125 372 CURVE SMOOTH",
"125 473 OFFCURVE",
"194 533 OFFCURVE",
"293 533 CURVE SMOOTH",
"414 533 OFFCURVE",
"465 446 OFFCURVE",
"465 378 CURVE",
"465 294 OFFCURVE",
"399 218 OFFCURVE",
"287 218 CURVE SMOOTH"
);
}
);
width = 617;
}
);
},
{
glyphname = zero.dnom;
layers = (
{
layerId = "89102082-4794-43F6-87DB-199E42FAC5CB";
paths = (
{
closed = 1;
nodes = (
"109 412 OFFCURVE",
"43 335 OFFCURVE",
"43 205 CURVE SMOOTH",
"43 74 OFFCURVE",
"109 -1 OFFCURVE",
"221 -1 CURVE SMOOTH",
"333 -1 OFFCURVE",
"400 74 OFFCURVE",
"400 205 CURVE SMOOTH",
"400 335 OFFCURVE",
"333 412 OFFCURVE",
"221 412 CURVE SMOOTH"
);
},
{
closed = 1;
nodes = (
"300 363 OFFCURVE",
"344 306 OFFCURVE",
"344 205 CURVE SMOOTH",
"344 104 OFFCURVE",
"300 48 OFFCURVE",
"221 48 CURVE SMOOTH",
"142 48 OFFCURVE",
"98 104 OFFCURVE",
"98 205 CURVE SMOOTH",
"98 306 OFFCURVE",
"142 363 OFFCURVE",
"221 363 CURVE SMOOTH"
);
}
);
width = 442;
}
);
},
{
glyphname = one.dnom;
layers = (
{
layerId = "89102082-4794-43F6-87DB-199E42FAC5CB";
paths = (
{
closed = 1;
nodes = (
"165 411 LINE",
"21 411 LINE",
"21 361 LINE",
"106 361 LINE",
"106 0 LINE",
"165 0 LINE"
);
}
);
width = 254;
}
);
},
{
glyphname = two.dnom;
layers = (
{
layerId = "89102082-4794-43F6-87DB-199E42FAC5CB";
paths = (
{
closed = 1;
nodes = (
"131 412 OFFCURVE",
"77 391 OFFCURVE",
"34 354 CURVE",
"59 311 LINE",
"93 342 OFFCURVE",
"137 362 OFFCURVE",
"175 362 CURVE",
"225 362 OFFCURVE",
"254 340 OFFCURVE",
"254 303 CURVE",
"254 278 OFFCURVE",
"232 241 OFFCURVE",
"199 208 CURVE SMOOTH",
"40 43 LINE",
"40 0 LINE",
"338 0 LINE",
"338 49 LINE",
"114 49 LINE",
"238 177 LINE SMOOTH",
"286 223 OFFCURVE",
"315 270 OFFCURVE",
"315 311 CURVE",
"315 373 OFFCURVE",
"263 412 OFFCURVE",
"184 412 CURVE"
);
}
);
width = 380;
}
);
},
{
glyphname = three.dnom;
layers = (
{
layerId = "89102082-4794-43F6-87DB-199E42FAC5CB";
paths = (
{
closed = 1;
nodes = (
"159 238 LINE",
"287 373 LINE",
"287 409 LINE",
"35 409 LINE",
"35 364 LINE",
"218 364 LINE",
"94 233 LINE",
"94 198 LINE",
"150 198 LINE SMOOTH",
"212 198 OFFCURVE",
"248 173 OFFCURVE",
"248 125 CURVE SMOOTH",
"248 77 OFFCURVE",
"212 44 OFFCURVE",
"151 44 CURVE SMOOTH",
"111 44 OFFCURVE",
"72 60 OFFCURVE",
"41 87 CURVE",
"16 40 LINE",
"51 15 OFFCURVE",
"104 -2 OFFCURVE",
"155 -2 CURVE SMOOTH",
"248 -2 OFFCURVE",
"307 51 OFFCURVE",
"307 126 CURVE SMOOTH",
"307 192 OFFCURVE",
"256 232 OFFCURVE",
"182 236 CURVE SMOOTH"
);
}
);
width = 348;
}
);
},
{
glyphname = four.dnom;
layers = (
{
layerId = "89102082-4794-43F6-87DB-199E42FAC5CB";
paths = (
{
closed = 1;
nodes = (
"237 411 LINE",
"179 411 LINE",
"30 149 LINE",
"30 105 LINE",
"234 105 LINE",
"234 0 LINE",
"290 0 LINE",
"290 105 LINE",
"353 105 LINE",
"353 150 LINE",
"290 150 LINE",
"290 261 LINE",
"234 261 LINE",
"234 150 LINE",
"90 150 LINE"
);
}
);
width = 381;
}
);
},
{
glyphname = five.dnom;
layers = (
{
layerId = "89102082-4794-43F6-87DB-199E42FAC5CB";
paths = (
{
closed = 1;
nodes = (
"314 411 LINE",
"61 411 LINE",
"61 193 LINE",
"91 201 OFFCURVE",
"146 206 OFFCURVE",
"172 206 CURVE",
"231 206 OFFCURVE",
"268 177 OFFCURVE",
"268 131 CURVE",
"268 78 OFFCURVE",
"231 45 OFFCURVE",
"171 45 CURVE",
"133 45 OFFCURVE",
"89 62 OFFCURVE",
"55 91 CURVE",
"30 44 LINE",
"71 17 OFFCURVE",
"129 -2 OFFCURVE",
"177 -2 CURVE",
"271 -2 OFFCURVE",
"331 52 OFFCURVE",
"331 135 CURVE",
"331 206 OFFCURVE",
"273 252 OFFCURVE",
"182 252 CURVE",
"165 252 OFFCURVE",
"136 248 OFFCURVE",
"116 242 CURVE",
"116 362 LINE",
"314 362 LINE"
);
}
);
width = 370;
}
);
},
{
glyphname = six.dnom;
layers = (
{
layerId = "89102082-4794-43F6-87DB-199E42FAC5CB";
paths = (
{
closed = 1;
nodes = (
"112 412 OFFCURVE",
"43 327 OFFCURVE",
"43 197 CURVE SMOOTH",
"43 70 OFFCURVE",
"107 -2 OFFCURVE",
"212 -2 CURVE SMOOTH",
"301 -2 OFFCURVE",
"359 50 OFFCURVE",
"359 133 CURVE SMOOTH",
"359 213 OFFCURVE",
"307 263 OFFCURVE",
"224 263 CURVE SMOOTH",
"161 263 OFFCURVE",
"116 233 OFFCURVE",
"102 185 CURVE",
"92 297 OFFCURVE",
"139 364 OFFCURVE",
"225 364 CURVE SMOOTH",
"259 364 OFFCURVE",
"294 355 OFFCURVE",
"322 339 CURVE",
"345 383 LINE",
"310 401 OFFCURVE",
"263 412 OFFCURVE",
"222 412 CURVE SMOOTH"
);
},
{
closed = 1;
nodes = (
"268 218 OFFCURVE",
"303 187 OFFCURVE",
"303 135 CURVE SMOOTH",
"303 80 OFFCURVE",
"265 47 OFFCURVE",
"208 47 CURVE SMOOTH",
"141 47 OFFCURVE",
"112 94 OFFCURVE",
"112 131 CURVE",
"112 178 OFFCURVE",
"149 218 OFFCURVE",
"212 218 CURVE SMOOTH"
);
}
);
width = 395;
}
);
},
{
glyphname = seven.dnom;
layers = (
{
layerId = "89102082-4794-43F6-87DB-199E42FAC5CB";
paths = (
{
closed = 1;
nodes = (
"337 411 LINE",
"35 411 LINE",
"35 300 LINE",
"88 300 LINE",
"88 362 LINE",
"273 362 LINE",
"101 0 LINE",
"164 0 LINE",
"337 365 LINE"
);
}
);
width = 365;
}
);
},
{
glyphname = eight.dnom;
layers = (
{
layerId = "89102082-4794-43F6-87DB-199E42FAC5CB";
paths = (
{
closed = 1;
nodes = (
"115 412 OFFCURVE",
"61 374 OFFCURVE",
"61 310 CURVE SMOOTH",
"61 268 OFFCURVE",
"87 237 OFFCURVE",
"131 219 CURVE",
"75 203 OFFCURVE",
"41 165 OFFCURVE",
"41 114 CURVE SMOOTH",
"41 42 OFFCURVE",
"102 -2 OFFCURVE",
"201 -2 CURVE SMOOTH",
"300 -2 OFFCURVE",
"361 42 OFFCURVE",
"361 115 CURVE SMOOTH",
"361 165 OFFCURVE",
"328 203 OFFCURVE",
"274 219 CURVE",
"315 236 OFFCURVE",
"340 267 OFFCURVE",
"340 308 CURVE SMOOTH",
"340 373 OFFCURVE",
"286 412 OFFCURVE",
"201 412 CURVE SMOOTH"
);
},
{
closed = 1;
nodes = (
"267 194 OFFCURVE",
"305 166 OFFCURVE",
"305 120 CURVE SMOOTH",
"305 71 OFFCURVE",
"266 44 OFFCURVE",
"201 44 CURVE SMOOTH",
"135 44 OFFCURVE",
"97 72 OFFCURVE",
"97 121 CURVE SMOOTH",
"97 166 OFFCURVE",
"136 194 OFFCURVE",
"200 194 CURVE SMOOTH"
);
},
{
closed = 1;
nodes = (
"257 371 OFFCURVE",
"290 346 OFFCURVE",
"290 305 CURVE SMOOTH",
"290 263 OFFCURVE",
"257 239 OFFCURVE",
"201 239 CURVE SMOOTH",
"145 239 OFFCURVE",
"112 263 OFFCURVE",
"112 305 CURVE SMOOTH",
"112 346 OFFCURVE",
"145 371 OFFCURVE",
"201 371 CURVE SMOOTH"
);
}
);
width = 402;
}
);
},
{
glyphname = nine.dnom;
layers = (
{
layerId = "89102082-4794-43F6-87DB-199E42FAC5CB";
paths = (
{
closed = 1;
nodes = (
"286 -2 OFFCURVE",
"355 83 OFFCURVE",
"355 213 CURVE SMOOTH",
"355 340 OFFCURVE",
"291 412 OFFCURVE",
"186 412 CURVE SMOOTH",
"97 412 OFFCURVE",
"39 361 OFFCURVE",
"39 277 CURVE SMOOTH",
"39 197 OFFCURVE",
"91 146 OFFCURVE",
"173 146 CURVE SMOOTH",
"238 146 OFFCURVE",
"282 178 OFFCURVE",
"297 226 CURVE",
"306 113 OFFCURVE",
"260 46 OFFCURVE",
"172 46 CURVE SMOOTH",
"139 46 OFFCURVE",
"103 55 OFFCURVE",
"76 72 CURVE",
"52 28 LINE",
"88 9 OFFCURVE",
"135 -2 OFFCURVE",
"176 -2 CURVE SMOOTH"
);
},
{
closed = 1;
nodes = (
"130 192 OFFCURVE",
"95 224 OFFCURVE",
"95 276 CURVE SMOOTH",
"95 330 OFFCURVE",
"133 363 OFFCURVE",
"189 363 CURVE SMOOTH",
"257 363 OFFCURVE",
"285 316 OFFCURVE",
"285 278 CURVE",
"285 232 OFFCURVE",
"249 192 OFFCURVE",
"186 192 CURVE SMOOTH"
);
}
);
width = 398;
}
);
},
{
glyphname = zero.numr;
layers = (
{
layerId = "89102082-4794-43F6-87DB-199E42FAC5CB";
paths = (
{
closed = 1;
nodes = (
"109 701 OFFCURVE",
"43 624 OFFCURVE",
"43 494 CURVE SMOOTH",
"43 363 OFFCURVE",
"109 287 OFFCURVE",
"221 287 CURVE SMOOTH",
"333 287 OFFCURVE",
"400 363 OFFCURVE",
"400 494 CURVE SMOOTH",
"400 624 OFFCURVE",
"333 701 OFFCURVE",
"221 701 CURVE SMOOTH"
);
},
{
closed = 1;
nodes = (
"300 652 OFFCURVE",
"344 595 OFFCURVE",
"344 494 CURVE SMOOTH",
"344 393 OFFCURVE",
"300 337 OFFCURVE",
"221 337 CURVE SMOOTH",
"142 337 OFFCURVE",
"98 393 OFFCURVE",
"98 494 CURVE SMOOTH",
"98 595 OFFCURVE",
"142 652 OFFCURVE",
"221 652 CURVE SMOOTH"
);
}
);
width = 442;
}
);
},
{
glyphname = one.numr;
layers = (
{
layerId = "89102082-4794-43F6-87DB-199E42FAC5CB";
paths = (
{
closed = 1;
nodes = (
"165 700 LINE",
"21 700 LINE",
"21 650 LINE",
"106 650 LINE",
"106 289 LINE",
"165 289 LINE"
);
}
);
width = 254;
}
);
},
{
glyphname = two.numr;
layers = (
{
layerId = "89102082-4794-43F6-87DB-199E42FAC5CB";
paths = (
{
closed = 1;
nodes = (
"131 701 OFFCURVE",
"77 680 OFFCURVE",
"34 643 CURVE",
"59 600 LINE",
"93 631 OFFCURVE",
"137 651 OFFCURVE",
"175 651 CURVE",
"225 651 OFFCURVE",
"254 629 OFFCURVE",
"254 592 CURVE",
"254 567 OFFCURVE",
"232 530 OFFCURVE",
"199 497 CURVE SMOOTH",
"40 332 LINE",
"40 289 LINE",
"338 289 LINE",
"338 338 LINE",
"114 338 LINE",
"238 466 LINE SMOOTH",
"286 512 OFFCURVE",
"315 559 OFFCURVE",
"315 600 CURVE",
"315 662 OFFCURVE",
"263 701 OFFCURVE",
"184 701 CURVE"
);
}
);
width = 380;
}
);
},
{
glyphname = three.numr;
layers = (
{
layerId = "89102082-4794-43F6-87DB-199E42FAC5CB";
paths = (
{
closed = 1;
nodes = (
"159 527 LINE",
"287 662 LINE",
"287 698 LINE",
"35 698 LINE",
"35 653 LINE",
"218 653 LINE",
"94 522 LINE",
"94 487 LINE",
"150 487 LINE SMOOTH",
"212 487 OFFCURVE",
"248 462 OFFCURVE",
"248 414 CURVE SMOOTH",
"248 366 OFFCURVE",
"212 333 OFFCURVE",
"151 333 CURVE SMOOTH",
"111 333 OFFCURVE",
"72 349 OFFCURVE",
"41 376 CURVE",
"16 329 LINE",
"51 304 OFFCURVE",
"104 287 OFFCURVE",
"155 287 CURVE SMOOTH",
"248 287 OFFCURVE",
"307 340 OFFCURVE",
"307 415 CURVE SMOOTH",
"307 481 OFFCURVE",
"256 521 OFFCURVE",
"182 525 CURVE SMOOTH"
);
}
);
width = 348;
}
);
},
{
glyphname = four.numr;
layers = (
{
layerId = "89102082-4794-43F6-87DB-199E42FAC5CB";
paths = (
{
closed = 1;
nodes = (
"237 700 LINE",
"179 700 LINE",
"30 438 LINE",
"30 394 LINE",
"234 394 LINE",
"234 289 LINE",
"290 289 LINE",
"290 394 LINE",
"353 394 LINE",
"353 439 LINE",
"290 439 LINE",
"290 550 LINE",
"234 550 LINE",
"234 439 LINE",
"90 439 LINE"
);
}
);
width = 381;
}
);
},
{
glyphname = five.numr;
layers = (
{
layerId = "89102082-4794-43F6-87DB-199E42FAC5CB";
paths = (
{
closed = 1;
nodes = (
"314 700 LINE",
"61 700 LINE",
"61 482 LINE",
"91 490 OFFCURVE",
"146 495 OFFCURVE",
"172 495 CURVE",
"231 495 OFFCURVE",
"268 466 OFFCURVE",
"268 420 CURVE",
"268 367 OFFCURVE",
"231 334 OFFCURVE",
"171 334 CURVE",
"133 334 OFFCURVE",
"89 351 OFFCURVE",
"55 380 CURVE",
"30 333 LINE",
"71 306 OFFCURVE",
"129 288 OFFCURVE",
"177 288 CURVE",
"271 288 OFFCURVE",
"331 341 OFFCURVE",
"331 424 CURVE",
"331 495 OFFCURVE",
"273 541 OFFCURVE",
"182 541 CURVE",
"165 541 OFFCURVE",
"136 537 OFFCURVE",
"116 531 CURVE",
"116 651 LINE",
"314 651 LINE"
);
}
);
width = 370;
}
);
},
{
glyphname = six.numr;
layers = (
{
layerId = "89102082-4794-43F6-87DB-199E42FAC5CB";
paths = (
{
closed = 1;
nodes = (
"112 701 OFFCURVE",
"43 616 OFFCURVE",
"43 486 CURVE SMOOTH",
"43 359 OFFCURVE",
"107 287 OFFCURVE",
"212 287 CURVE SMOOTH",
"301 287 OFFCURVE",
"359 339 OFFCURVE",
"359 422 CURVE SMOOTH",
"359 502 OFFCURVE",
"307 552 OFFCURVE",
"224 552 CURVE SMOOTH",
"161 552 OFFCURVE",
"116 522 OFFCURVE",
"102 474 CURVE",
"92 586 OFFCURVE",
"139 653 OFFCURVE",
"225 653 CURVE SMOOTH",
"259 653 OFFCURVE",
"294 644 OFFCURVE",
"322 628 CURVE",
"345 672 LINE",
"310 690 OFFCURVE",
"263 701 OFFCURVE",
"222 701 CURVE SMOOTH"
);
},
{
closed = 1;
nodes = (
"268 507 OFFCURVE",
"303 476 OFFCURVE",
"303 424 CURVE SMOOTH",
"303 369 OFFCURVE",
"265 336 OFFCURVE",
"208 336 CURVE SMOOTH",
"141 336 OFFCURVE",
"112 383 OFFCURVE",
"112 420 CURVE",
"112 467 OFFCURVE",
"149 507 OFFCURVE",
"212 507 CURVE SMOOTH"
);
}
);
width = 395;
}
);
},
{
glyphname = seven.numr;
layers = (
{
layerId = "89102082-4794-43F6-87DB-199E42FAC5CB";
paths = (
{
closed = 1;
nodes = (
"337 700 LINE",
"35 700 LINE",
"35 589 LINE",
"88 589 LINE",
"88 651 LINE",
"273 651 LINE",
"101 289 LINE",
"164 289 LINE",
"337 654 LINE"
);
}
);
width = 365;
}
);
},
{
glyphname = eight.numr;
layers = (
{
layerId = "89102082-4794-43F6-87DB-199E42FAC5CB";
paths = (
{
closed = 1;
nodes = (
"115 701 OFFCURVE",
"61 663 OFFCURVE",
"61 599 CURVE SMOOTH",
"61 557 OFFCURVE",
"87 526 OFFCURVE",
"131 508 CURVE",
"75 492 OFFCURVE",
"41 454 OFFCURVE",
"41 403 CURVE SMOOTH",
"41 331 OFFCURVE",
"102 287 OFFCURVE",
"201 287 CURVE SMOOTH",
"300 287 OFFCURVE",
"361 331 OFFCURVE",
"361 404 CURVE SMOOTH",
"361 454 OFFCURVE",
"328 492 OFFCURVE",
"274 508 CURVE",
"315 525 OFFCURVE",
"340 556 OFFCURVE",
"340 597 CURVE SMOOTH",
"340 662 OFFCURVE",
"286 701 OFFCURVE",
"201 701 CURVE SMOOTH"
);
},
{
closed = 1;
nodes = (
"267 483 OFFCURVE",
"305 455 OFFCURVE",
"305 409 CURVE SMOOTH",
"305 360 OFFCURVE",
"266 333 OFFCURVE",
"201 333 CURVE SMOOTH",
"135 333 OFFCURVE",
"97 361 OFFCURVE",
"97 410 CURVE SMOOTH",
"97 455 OFFCURVE",
"136 483 OFFCURVE",
"200 483 CURVE SMOOTH"
);
},
{
closed = 1;
nodes = (
"257 660 OFFCURVE",
"290 635 OFFCURVE",
"290 594 CURVE SMOOTH",
"290 552 OFFCURVE",
"257 528 OFFCURVE",
"201 528 CURVE SMOOTH",
"145 528 OFFCURVE",
"112 552 OFFCURVE",
"112 594 CURVE SMOOTH",
"112 635 OFFCURVE",
"145 660 OFFCURVE",
"201 660 CURVE SMOOTH"
);
}
);
width = 402;
}
);
},
{
glyphname = nine.numr;
layers = (
{
layerId = "89102082-4794-43F6-87DB-199E42FAC5CB";
paths = (
{
closed = 1;
nodes = (
"286 287 OFFCURVE",
"355 372 OFFCURVE",
"355 502 CURVE SMOOTH",
"355 629 OFFCURVE",
"291 701 OFFCURVE",
"186 701 CURVE SMOOTH",
"97 701 OFFCURVE",
"39 650 OFFCURVE",
"39 566 CURVE SMOOTH",
"39 486 OFFCURVE",
"91 435 OFFCURVE",
"173 435 CURVE SMOOTH",
"238 435 OFFCURVE",
"282 467 OFFCURVE",
"297 515 CURVE",
"306 402 OFFCURVE",
"260 335 OFFCURVE",
"172 335 CURVE SMOOTH",
"139 335 OFFCURVE",
"103 344 OFFCURVE",
"76 361 CURVE",
"52 317 LINE",
"88 298 OFFCURVE",
"135 287 OFFCURVE",
"176 287 CURVE SMOOTH"
);
},
{
closed = 1;
nodes = (
"130 481 OFFCURVE",
"95 513 OFFCURVE",
"95 565 CURVE SMOOTH",
"95 619 OFFCURVE",
"133 652 OFFCURVE",
"189 652 CURVE SMOOTH",
"257 652 OFFCURVE",
"285 605 OFFCURVE",
"285 567 CURVE",
"285 521 OFFCURVE",
"249 481 OFFCURVE",
"186 481 CURVE SMOOTH"
);
}
);
width = 398;
}
);
},
{
glyphname = onesuperior;
layers = (
{
layerId = "89102082-4794-43F6-87DB-199E42FAC5CB";
paths = (
{
closed = 1;
nodes = (
"165 700 LINE",
"21 700 LINE",
"21 650 LINE",
"106 650 LINE",
"106 289 LINE",
"165 289 LINE"
);
}
);
width = 254;
}
);
unicode = 00B9;
},
{
glyphname = twosuperior;
layers = (
{
layerId = "89102082-4794-43F6-87DB-199E42FAC5CB";
paths = (
{
closed = 1;
nodes = (
"131 701 OFFCURVE",
"77 680 OFFCURVE",
"34 643 CURVE",
"59 600 LINE",
"93 631 OFFCURVE",
"137 651 OFFCURVE",
"175 651 CURVE",
"225 651 OFFCURVE",
"254 629 OFFCURVE",
"254 592 CURVE",
"254 567 OFFCURVE",
"232 530 OFFCURVE",
"199 497 CURVE SMOOTH",
"40 332 LINE",
"40 289 LINE",
"338 289 LINE",
"338 338 LINE",
"114 338 LINE",
"238 466 LINE SMOOTH",
"286 512 OFFCURVE",
"315 559 OFFCURVE",
"315 600 CURVE",
"315 662 OFFCURVE",
"263 701 OFFCURVE",
"184 701 CURVE"
);
}
);
width = 380;
}
);
unicode = 00B2;
},
{
glyphname = threesuperior;
layers = (
{
layerId = "89102082-4794-43F6-87DB-199E42FAC5CB";
paths = (
{
closed = 1;
nodes = (
"159 527 LINE",
"287 662 LINE",
"287 698 LINE",
"35 698 LINE",
"35 653 LINE",
"218 653 LINE",
"94 522 LINE",
"94 487 LINE",
"150 487 LINE SMOOTH",
"212 487 OFFCURVE",
"248 462 OFFCURVE",
"248 414 CURVE SMOOTH",
"248 366 OFFCURVE",
"212 333 OFFCURVE",
"151 333 CURVE SMOOTH",
"111 333 OFFCURVE",
"72 349 OFFCURVE",
"41 376 CURVE",
"16 329 LINE",
"51 304 OFFCURVE",
"104 287 OFFCURVE",
"155 287 CURVE SMOOTH",
"248 287 OFFCURVE",
"307 340 OFFCURVE",
"307 415 CURVE SMOOTH",
"307 481 OFFCURVE",
"256 521 OFFCURVE",
"182 525 CURVE SMOOTH"
);
}
);
width = 348;
}
);
unicode = 00B3;
},
{
glyphname = fraction;
layers = (
{
layerId = "89102082-4794-43F6-87DB-199E42FAC5CB";
paths = (
{
closed = 1;
nodes = (
"323 700 LINE",
"246 700 LINE",
"-278 0 LINE",
"-200 0 LINE"
);
}
);
width = 57;
}
);
unicode = 2044;
},
{
glyphname = "zero-gurmukhi";
layers = (
{
layerId = "89102082-4794-43F6-87DB-199E42FAC5CB";
paths = (
{
closed = 1;
nodes = (
"554 42 OFFCURVE",
"675 174 OFFCURVE",
"675 341 CURVE SMOOTH",
"675 509 OFFCURVE",
"553 643 OFFCURVE",
"368 643 CURVE SMOOTH",
"185 643 OFFCURVE",
"65 511 OFFCURVE",
"65 345 CURVE SMOOTH",
"65 177 OFFCURVE",
"187 42 OFFCURVE",
"373 42 CURVE SMOOTH"
);
},
{
closed = 1;
nodes = (
"240 110 OFFCURVE",
"142 202 OFFCURVE",
"142 341 CURVE SMOOTH",
"142 481 OFFCURVE",
"242 574 OFFCURVE",
"372 574 CURVE SMOOTH",
"499 574 OFFCURVE",
"597 483 OFFCURVE",
"597 344 CURVE SMOOTH",
"597 203 OFFCURVE",
"498 110 OFFCURVE",
"368 110 CURVE SMOOTH"
);
}
);
width = 739;
}
);
unicode = 0A66;
},
{
glyphname = "one-gurmukhi";
layers = (
{
layerId = "89102082-4794-43F6-87DB-199E42FAC5CB";
paths = (
{
closed = 1;
nodes = (
"524 0 LINE",
"524 428 LINE SMOOTH",
"524 582 OFFCURVE",
"425 692 OFFCURVE",
"272 692 CURVE SMOOTH",
"140 692 OFFCURVE",
"54 607 OFFCURVE",
"54 491 CURVE SMOOTH",
"54 372 OFFCURVE",
"148 281 OFFCURVE",
"279 281 CURVE SMOOTH",
"352 281 OFFCURVE",
"422 308 OFFCURVE",
"470 375 CURVE",
"449 374 LINE",
"449 0 LINE"
);
},
{
closed = 1;
nodes = (
"183 350 OFFCURVE",
"126 411 OFFCURVE",
"126 485 CURVE SMOOTH",
"126 560 OFFCURVE",
"183 622 OFFCURVE",
"280 622 CURVE SMOOTH",
"395 622 OFFCURVE",
"460 537 OFFCURVE",
"451 418 CURVE",
"462 484 LINE",
"437 400 OFFCURVE",
"364 350 OFFCURVE",
"278 350 CURVE SMOOTH"
);
}
);
width = 621;
}
);
unicode = 0A67;
},
{
glyphname = "two-gurmukhi";
layers = (
{
layerId = "89102082-4794-43F6-87DB-199E42FAC5CB";
paths = (
{
closed = 1;
nodes = (
"553 6 LINE",
"553 118 OFFCURVE",
"490 231 OFFCURVE",
"370 280 CURVE",
"375 258 LINE",
"494 287 OFFCURVE",
"553 371 OFFCURVE",
"553 465 CURVE SMOOTH",
"553 596 OFFCURVE",
"444 693 OFFCURVE",
"282 693 CURVE SMOOTH",
"204 693 OFFCURVE",
"122 674 OFFCURVE",
"59 635 CURVE",
"89 574 LINE",
"143 603 OFFCURVE",
"215 622 OFFCURVE",
"291 622 CURVE SMOOTH",
"411 622 OFFCURVE",
"482 553 OFFCURVE",
"482 467 CURVE SMOOTH",
"482 383 OFFCURVE",
"415 306 OFFCURVE",
"274 305 CURVE",
"341 300 LINE",
"304 316 OFFCURVE",
"250 322 OFFCURVE",
"197 322 CURVE SMOOTH",
"166 322 OFFCURVE",
"127 319 OFFCURVE",
"89 310 CURVE",
"93 242 LINE",
"129 236 OFFCURVE",
"167 232 OFFCURVE",
"210 232 CURVE SMOOTH",
"253 232 OFFCURVE",
"306 236 OFFCURVE",
"348 244 CURVE",
"286 247 LINE",
"417 230 OFFCURVE",
"477 120 OFFCURVE",
"477 8 CURVE",
"477 0 LINE",
"553 0 LINE"
);
}
);
width = 625;
}
);
unicode = 0A68;
},
{
glyphname = "three-gurmukhi";
layers = (
{
layerId = "89102082-4794-43F6-87DB-199E42FAC5CB";
paths = (
{
closed = 1;
nodes = (
"256 -118 LINE",
"263 13 LINE",
"226 5 LINE",
"249 -4 OFFCURVE",
"277 -6 OFFCURVE",
"296 -6 CURVE SMOOTH",
"465 -6 OFFCURVE",
"563 78 OFFCURVE",
"563 185 CURVE SMOOTH",
"563 272 OFFCURVE",
"506 356 OFFCURVE",
"375 373 CURVE",
"385 344 LINE",
"511 366 OFFCURVE",
"559 433 OFFCURVE",
"559 507 CURVE SMOOTH",
"559 621 OFFCURVE",
"447 692 OFFCURVE",
"294 692 CURVE SMOOTH",
"215 692 OFFCURVE",
"129 673 OFFCURVE",
"67 635 CURVE",
"97 574 LINE",
"148 602 OFFCURVE",
"221 622 OFFCURVE",
"298 622 CURVE SMOOTH",
"414 622 OFFCURVE",
"484 579 OFFCURVE",
"484 507 CURVE SMOOTH",
"484 451 OFFCURVE",
"440 390 OFFCURVE",
"282 392 CURVE",
"361 387 LINE",
"322 402 OFFCURVE",
"265 405 OFFCURVE",
"210 405 CURVE SMOOTH",
"186 405 OFFCURVE",
"155 403 OFFCURVE",
"125 398 CURVE",
"129 331 LINE",
"161 324 OFFCURVE",
"194 320 OFFCURVE",
"231 320 CURVE SMOOTH",
"272 320 OFFCURVE",
"324 325 OFFCURVE",
"361 333 CURVE",
"286 332 LINE",
"442 334 OFFCURVE",
"487 260 OFFCURVE",
"487 196 CURVE SMOOTH",
"487 109 OFFCURVE",
"403 59 OFFCURVE",
"293 59 CURVE SMOOTH",
"264 59 OFFCURVE",
"237 63 OFFCURVE",
"211 68 CURVE",
"257 47 LINE",
"216 98 OFFCURVE",
"160 116 OFFCURVE",
"90 122 CURVE",
"71 65 LINE",
"101 39 OFFCURVE",
"142 20 OFFCURVE",
"185 8 CURVE",
"179 -107 LINE",
"179 -118 LINE"
);
}
);
width = 631;
}
);
unicode = 0A69;
},
{
glyphname = "four-gurmukhi";
layers = (
{
layerId = "89102082-4794-43F6-87DB-199E42FAC5CB";
paths = (
{
closed = 1;
nodes = (
"496 -3 OFFCURVE",
"593 73 OFFCURVE",
"593 177 CURVE SMOOTH",
"593 259 OFFCURVE",
"533 322 OFFCURVE",
"433 345 CURVE",
"422 315 LINE",
"538 339 OFFCURVE",
"612 405 OFFCURVE",
"612 501 CURVE SMOOTH",
"612 601 OFFCURVE",
"530 674 OFFCURVE",
"414 690 CURVE",
"406 622 LINE",
"486 610 OFFCURVE",
"534 563 OFFCURVE",
"534 500 CURVE SMOOTH",
"534 420 OFFCURVE",
"456 371 OFFCURVE",
"340 371 CURVE SMOOTH",
"223 371 OFFCURVE",
"145 420 OFFCURVE",
"145 500 CURVE SMOOTH",
"145 565 OFFCURVE",
"197 610 OFFCURVE",
"276 622 CURVE",
"269 690 LINE",
"148 676 OFFCURVE",
"67 603 OFFCURVE",
"67 505 CURVE SMOOTH",
"67 414 OFFCURVE",
"138 350 OFFCURVE",
"251 330 CURVE",
"246 354 LINE",
"149 330 OFFCURVE",
"87 268 OFFCURVE",
"87 181 CURVE SMOOTH",
"87 74 OFFCURVE",
"185 -3 OFFCURVE",
"341 -3 CURVE SMOOTH"
);
},
{
closed = 1;
nodes = (
"227 57 OFFCURVE",
"163 115 OFFCURVE",
"163 185 CURVE SMOOTH",
"163 254 OFFCURVE",
"228 309 OFFCURVE",
"339 309 CURVE SMOOTH",
"450 309 OFFCURVE",
"516 255 OFFCURVE",
"516 185 CURVE SMOOTH",
"516 116 OFFCURVE",
"450 57 OFFCURVE",
"338 57 CURVE SMOOTH"
);
}
);
width = 678;
}
);
unicode = 0A6A;
},
{
glyphname = "five-gurmukhi";
layers = (
{
layerId = "89102082-4794-43F6-87DB-199E42FAC5CB";
paths = (
{
closed = 1;
nodes = (
"390 142 OFFCURVE",
"474 161 OFFCURVE",
"527 197 CURVE",
"514 290 LINE",
"465 231 OFFCURVE",
"381 210 OFFCURVE",
"310 210 CURVE SMOOTH",
"183 210 OFFCURVE",
"135 272 OFFCURVE",
"122 329 CURVE",
"111 288 LINE",
"187 337 OFFCURVE",
"222 414 OFFCURVE",
"222 503 CURVE SMOOTH",
"222 564 OFFCURVE",
"206 632 OFFCURVE",
"180 685 CURVE",
"109 679 LINE",
"112 668 LINE",
"135 626 OFFCURVE",
"147 570 OFFCURVE",
"147 520 CURVE SMOOTH",
"147 445 OFFCURVE",
"118 376 OFFCURVE",
"53 332 CURVE",
"77 211 OFFCURVE",
"172 142 OFFCURVE",
"315 142 CURVE SMOOTH"
);
},
{
closed = 1;
nodes = (
"580 0 LINE",
"580 685 LINE",
"503 685 LINE",
"503 0 LINE"
);
}
);
width = 678;
}
);
unicode = 0A6B;
},
{
glyphname = "six-gurmukhi";
layers = (
{
layerId = "89102082-4794-43F6-87DB-199E42FAC5CB";
paths = (
{
closed = 1;
nodes = (
"427 -8 OFFCURVE",
"499 11 OFFCURVE",
"544 35 CURVE",
"525 99 LINE",
"473 77 OFFCURVE",
"405 61 OFFCURVE",
"343 61 CURVE SMOOTH",
"226 61 OFFCURVE",
"138 109 OFFCURVE",
"138 193 CURVE SMOOTH",
"138 257 OFFCURVE",
"192 330 OFFCURVE",
"379 325 CURVE",
"295 330 LINE",
"326 321 OFFCURVE",
"370 318 OFFCURVE",
"402 318 CURVE SMOOTH",
"437 318 OFFCURVE",
"467 322 OFFCURVE",
"498 327 CURVE",
"501 394 LINE",
"468 401 OFFCURVE",
"431 403 OFFCURVE",
"403 403 CURVE SMOOTH",
"349 403 OFFCURVE",
"296 399 OFFCURVE",
"262 386 CURVE",
"333 386 LINE",
"184 391 OFFCURVE",
"143 449 OFFCURVE",
"143 502 CURVE SMOOTH",
"143 577 OFFCURVE",
"220 623 OFFCURVE",
"341 623 CURVE SMOOTH",
"365 623 OFFCURVE",
"386 620 OFFCURVE",
"407 616 CURVE",
"358 637 LINE",
"385 608 OFFCURVE",
"425 590 OFFCURVE",
"471 584 CURVE SMOOTH",
"489 582 OFFCURVE",
"507 581 OFFCURVE",
"525 583 CURVE",
"540 643 LINE",
"488 668 OFFCURVE",
"430 684 OFFCURVE",
"371 689 CURVE",
"422 669 LINE",
"397 682 OFFCURVE",
"380 708 OFFCURVE",
"380 742 CURVE SMOOTH",
"380 805 OFFCURVE",
"429 835 OFFCURVE",
"478 835 CURVE SMOOTH",
"496 835 OFFCURVE",
"516 831 OFFCURVE",
"531 822 CURVE",
"558 876 LINE",
"535 893 OFFCURVE",
"506 900 OFFCURVE",
"476 900 CURVE SMOOTH",
"396 900 OFFCURVE",
"316 850 OFFCURVE",
"316 744 CURVE SMOOTH",
"316 717 OFFCURVE",
"324 691 OFFCURVE",
"339 667 CURVE",
"362 685 LINE",
"346 688 OFFCURVE",
"328 689 OFFCURVE",
"309 689 CURVE SMOOTH",
"156 681 OFFCURVE",
"70 605 OFFCURVE",
"70 515 CURVE SMOOTH",
"70 444 OFFCURVE",
"120 361 OFFCURVE",
"266 340 CURVE",
"262 371 LINE",
"125 356 OFFCURVE",
"67 275 OFFCURVE",
"67 193 CURVE SMOOTH",
"67 71 OFFCURVE",
"198 -8 OFFCURVE",
"356 -8 CURVE SMOOTH"
);
}
);
width = 617;
}
);
unicode = 0A6C;
},
{
glyphname = "seven-gurmukhi";
layers = (
{
layerId = "89102082-4794-43F6-87DB-199E42FAC5CB";
paths = (
{
closed = 1;
nodes = (
"213 692 OFFCURVE",
"136 595 OFFCURVE",
"136 493 CURVE SMOOTH",
"136 444 OFFCURVE",
"155 394 OFFCURVE",
"191 357 CURVE",
"254 389 LINE",
"228 413 OFFCURVE",
"212 454 OFFCURVE",
"212 490 CURVE SMOOTH",
"212 556 OFFCURVE",
"263 621 OFFCURVE",
"357 621 CURVE SMOOTH",
"474 621 OFFCURVE",
"530 519 OFFCURVE",
"530 375 CURVE SMOOTH",
"530 167 OFFCURVE",
"411 63 OFFCURVE",
"232 63 CURVE SMOOTH",
"174 63 OFFCURVE",
"117 75 OFFCURVE",
"64 96 CURVE",
"45 32 LINE",
"93 11 OFFCURVE",
"161 -6 OFFCURVE",
"238 -6 CURVE SMOOTH",
"456 -6 OFFCURVE",
"604 121 OFFCURVE",
"604 370 CURVE SMOOTH",
"604 559 OFFCURVE",
"516 692 OFFCURVE",
"354 692 CURVE SMOOTH"
);
}
);
width = 657;
}
);
unicode = 0A6D;
},
{
glyphname = "eight-gurmukhi";
layers = (
{
layerId = "89102082-4794-43F6-87DB-199E42FAC5CB";
paths = (
{
closed = 1;
nodes = (
"541 -6 OFFCURVE",
"600 11 OFFCURVE",
"638 30 CURVE",
"620 95 LINE",
"572 75 OFFCURVE",
"518 63 OFFCURVE",
"464 63 CURVE SMOOTH",
"331 63 OFFCURVE",
"243 132 OFFCURVE",
"243 265 CURVE SMOOTH",
"243 483 LINE",
"622 483 LINE",
"622 551 LINE",
"227 551 LINE",
"195 581 OFFCURVE",
"147 591 OFFCURVE",
"76 597 CURVE",
"53 539 LINE",
"84 513 OFFCURVE",
"123 493 OFFCURVE",
"170 487 CURVE",
"170 271 LINE SMOOTH",
"170 105 OFFCURVE",
"292 -6 OFFCURVE",
"470 -6 CURVE SMOOTH"
);
}
);
width = 705;
}
);
unicode = 0A6E;
},
{
glyphname = "nine-gurmukhi";
layers = (
{
components = (
{
name = "eight-gurmukhi";
}
);
layerId = "89102082-4794-43F6-87DB-199E42FAC5CB";
paths = (
{
closed = 1;
nodes = (
"599 472 OFFCURVE",
"625 476 OFFCURVE",
"646 485 CURVE",
"622 551 LINE",
"606 544 OFFCURVE",
"587 542 OFFCURVE",
"569 542 CURVE SMOOTH",
"520 542 OFFCURVE",
"470 574 OFFCURVE",
"469 645 CURVE SMOOTH",
"470 712 OFFCURVE",
"519 743 OFFCURVE",
"567 743 CURVE SMOOTH",
"586 743 OFFCURVE",
"605 739 OFFCURVE",
"621 730 CURVE",
"648 784 LINE",
"625 801 OFFCURVE",
"596 808 OFFCURVE",
"566 808 CURVE SMOOTH",
"486 808 OFFCURVE",
"406 756 OFFCURVE",
"406 646 CURVE SMOOTH",
"406 529 OFFCURVE",
"492 472 OFFCURVE",
"573 472 CURVE SMOOTH"
);
}
);
width = 712;
}
);
leftMetricsKey = "eight-gurmukhi";
unicode = 0A6F;
},
{
glyphname = asterisk;
layers = (
{
layerId = "89102082-4794-43F6-87DB-199E42FAC5CB";
paths = (
{
closed = 1;
nodes = (
"301 521 LINE",
"206 574 LINE",
"301 627 LINE",
"279 668 LINE",
"185 613 LINE",
"186 721 LINE",
"142 721 LINE",
"143 613 LINE",
"49 669 LINE",
"27 627 LINE",
"121 574 LINE",
"27 521 LINE",
"49 480 LINE",
"143 535 LINE",
"142 427 LINE",
"186 427 LINE",
"185 535 LINE",
"279 480 LINE"
);
}
);
width = 328;
}
);
unicode = 002A;
},
{
glyphname = bullet;
layers = (
{
layerId = "89102082-4794-43F6-87DB-199E42FAC5CB";
paths = (
{
closed = 1;
nodes = (
"82 348 OFFCURVE",
"51 317 OFFCURVE",
"51 274 CURVE SMOOTH",
"51 231 OFFCURVE",
"82 200 OFFCURVE",
"122 200 CURVE SMOOTH",
"163 200 OFFCURVE",
"194 231 OFFCURVE",
"194 274 CURVE SMOOTH",
"194 317 OFFCURVE",
"163 348 OFFCURVE",
"122 348 CURVE SMOOTH"
);
}
);
width = 245;
}
);
leftMetricsKey = period;
rightMetricsKey = period;
unicode = 2022;
},
{
glyphname = comma;
layers = (
{
layerId = "89102082-4794-43F6-87DB-199E42FAC5CB";
paths = (
{
closed = 1;
nodes = (
"42 -71 LINE",
"86 -71 LINE",
"132 0 LINE SMOOTH",
"141 13 OFFCURVE",
"147 26 OFFCURVE",
"147 42 CURVE SMOOTH",
"147 73 OFFCURVE",
"125 92 OFFCURVE",
"100 92 CURVE SMOOTH",
"73 92 OFFCURVE",
"52 71 OFFCURVE",
"52 42 CURVE SMOOTH",
"52 17 OFFCURVE",
"69 -6 OFFCURVE",
"104 -7 CURVE",
"89 32 LINE"
);
}
);
width = 197;
}
);
unicode = 002C;
},
{
glyphname = exclam;
layers = (
{
components = (
{
name = period;
transform = "{1, 0, 0, 1, 11, 0}";
}
);
layerId = "89102082-4794-43F6-87DB-199E42FAC5CB";
paths = (
{
closed = 1;
nodes = (
"73 688 LINE",
"73 519 LINE",
"84 210 LINE",
"136 210 LINE",
"148 519 LINE",
"148 688 LINE"
);
}
);
width = 221;
}
);
unicode = 0021;
},
{
glyphname = exclamdown;
layers = (
{
layerId = "89102082-4794-43F6-87DB-199E42FAC5CB";
paths = (
{
closed = 1;
nodes = (
"146 -163 LINE",
"146 6 LINE",
"135 315 LINE",
"83 315 LINE",
"71 6 LINE",
"71 -163 LINE"
);
},
{
closed = 1;
nodes = (
"137 433 OFFCURVE",
"157 454 OFFCURVE",
"157 483 CURVE SMOOTH",
"157 511 OFFCURVE",
"137 532 OFFCURVE",
"110 532 CURVE SMOOTH",
"82 532 OFFCURVE",
"62 511 OFFCURVE",
"62 483 CURVE SMOOTH",
"62 454 OFFCURVE",
"82 433 OFFCURVE",
"110 433 CURVE SMOOTH"
);
}
);
width = 221;
}
);
leftMetricsKey = exclam;
rightMetricsKey = exclam;
unicode = 00A1;
},
{
glyphname = numbersign;
layers = (
{
layerId = "89102082-4794-43F6-87DB-199E42FAC5CB";
paths = (
{
closed = 1;
nodes = (
"476 0 LINE",
"562 700 LINE",
"502 700 LINE",
"416 0 LINE"
);
},
{
closed = 1;
nodes = (
"649 247 LINE",
"40 247 LINE",
"35 186 LINE",
"645 186 LINE"
);
},
{
closed = 1;
nodes = (
"215 0 LINE",
"301 700 LINE",
"241 700 LINE",
"155 0 LINE"
);
},
{
closed = 1;
nodes = (
"681 508 LINE",
"72 508 LINE",
"67 447 LINE",
"677 447 LINE"
);
}
);
width = 718;
}
);
unicode = 0023;
},
